<mxfile host="65bd71144e">
    <diagram id="XA3z1hy4nQ34EUFH5lyq" name="Page-1">
        <mxGraphModel dx="-339" dy="-2967" grid="1" gridSize="10" guides="1" tooltips="1" connect="1" arrows="1" fold="1" page="1" pageScale="1" pageWidth="850" pageHeight="1100" math="0" shadow="0">
            <root>
                <mxCell id="0"/>
                <mxCell id="1" parent="0"/>
                <mxCell id="2" value="Import Structure" style="swimlane;whiteSpace=wrap;html=1;shadow=0;dashed=0;strokeWidth=1;align=center;verticalAlign=top;fontFamily=Helvetica;fontSize=12;fontColor=#FFFFFF;fillColor=#660000;movable=1;resizable=1;rotatable=1;deletable=1;editable=1;locked=0;connectable=1;strokeColor=#666666;swimlaneFillColor=#FFFFFF;" vertex="1" parent="1">
                    <mxGeometry x="1040" y="3570" width="280" height="105.00000000000045" as="geometry"/>
                </mxCell>
                <mxCell id="3" value="c:\users\AtlasKickStarter_v0.0.1.zip" style="rounded=1;whiteSpace=wrap;html=1;shadow=0;dashed=0;strokeWidth=1;align=left;verticalAlign=top;fontFamily=Helvetica;fontSize=8;fontColor=#999999;fillColor=default;strokeColor=#666666;spacingLeft=7;" vertex="1" parent="2">
                    <mxGeometry x="45" y="41.25" width="190" height="22.5" as="geometry"/>
                </mxCell>
                <mxCell id="4" value="" style="shape=image;verticalLabelPosition=bottom;labelBackgroundColor=default;verticalAlign=top;aspect=fixed;imageAspect=0;image=data:image/svg+xml,PHN2ZyB4bWxucz0iaHR0cDovL3d3dy53My5vcmcvMjAwMC9zdmciIHZpZXdCb3g9IjAgMCA0NDggNTEyIj48cGF0aCBkPSJNMjQ2LjYgOS40Yy0xMi41LTEyLjUtMzIuOC0xMi41LTQ1LjMgMGwtMTI4IDEyOGMtMTIuNSAxMi41LTEyLjUgMzIuOCAwIDQ1LjNzMzIuOCAxMi41IDQ1LjMgMEwxOTIgMTA5LjMgMTkyIDMyMGMwIDE3LjcgMTQuMyAzMiAzMiAzMnMzMi0xNC4zIDMyLTMybDAtMjEwLjcgNzMuNCA3My40YzEyLjUgMTIuNSAzMi44IDEyLjUgNDUuMyAwczEyLjUtMzIuOCAwLTQ1LjNsLTEyOC0xMjh6TTY0IDM1MmMwLTE3LjctMTQuMy0zMi0zMi0zMnMtMzIgMTQuMy0zMiAzMmwwIDY0YzAgNTMgNDMgOTYgOTYgOTZsMjU2IDBjNTMgMCA5Ni00MyA5Ni05NmwwLTY0YzAtMTcuNy0xNC4zLTMyLTMyLTMycy0zMiAxNC4zLTMyIDMybDAgNjRjMCAxNy43LTE0LjMgMzItMzIgMzJMOTYgNDQ4Yy0xNy43IDAtMzItMTQuMy0zMi0zMmwwLTY0eiIgZmlsbD0iIzY2MDAwMCIvPjwvc3ZnPg==;" vertex="1" parent="2">
                    <mxGeometry x="210" y="45" width="13.13" height="15" as="geometry"/>
                </mxCell>
                <mxCell id="5" value="" style="shape=image;verticalLabelPosition=bottom;labelBackgroundColor=default;verticalAlign=top;aspect=fixed;imageAspect=0;image=data:image/svg+xml,PHN2ZyB4bWxucz0iaHR0cDovL3d3dy53My5vcmcvMjAwMC9zdmciIHZpZXdCb3g9IjAgMCAzODQgNTEyIj48cGF0aCBkPSJNMzQyLjYgMTUwLjZjMTIuNS0xMi41IDEyLjUtMzIuOCAwLTQ1LjNzLTMyLjgtMTIuNS00NS4zIDBMMTkyIDIxMC43IDg2LjYgMTA1LjRjLTEyLjUtMTIuNS0zMi44LTEyLjUtNDUuMyAwcy0xMi41IDMyLjggMCA0NS4zTDE0Ni43IDI1NiA0MS40IDM2MS40Yy0xMi41IDEyLjUtMTIuNSAzMi44IDAgNDUuM3MzMi44IDEyLjUgNDUuMyAwTDE5MiAzMDEuMyAyOTcuNCA0MDYuNmMxMi41IDEyLjUgMzIuOCAxMi41IDQ1LjMgMHMxMi41LTMyLjggMC00NS4zTDIzNy4zIDI1NiAzNDIuNiAxNTAuNnoiIGZpbGw9IiM2NjAwMDAiLz48L3N2Zz4=;" vertex="1" parent="2">
                    <mxGeometry x="223.13" y="75.00000000000045" width="18.75" height="25" as="geometry"/>
                </mxCell>
                <mxCell id="6" value="" style="shape=image;verticalLabelPosition=bottom;labelBackgroundColor=default;verticalAlign=top;aspect=fixed;imageAspect=0;image=data:image/svg+xml,PHN2ZyB4bWxucz0iaHR0cDovL3d3dy53My5vcmcvMjAwMC9zdmciIHZpZXdCb3g9IjAgMCA0NDggNTEyIj48cGF0aCBkPSJNNDM4LjYgMTA1LjRjMTIuNSAxMi41IDEyLjUgMzIuOCAwIDQ1LjNsLTI1NiAyNTZjLTEyLjUgMTIuNS0zMi44IDEyLjUtNDUuMyAwbC0xMjgtMTI4Yy0xMi41LTEyLjUtMTIuNS0zMi44IDAtNDUuM3MzMi44LTEyLjUgNDUuMyAwTDE2MCAzMzguNyAzOTMuNCAxMDUuNGMxMi41LTEyLjUgMzIuOC0xMi41IDQ1LjMgMHoiIGZpbGw9IiM2NjAwMDAiLz48L3N2Zz4=;" vertex="1" parent="2">
                    <mxGeometry x="253.75" y="75" width="21.88" height="25" as="geometry"/>
                </mxCell>
                <mxCell id="7" value="" style="shape=image;verticalLabelPosition=bottom;labelBackgroundColor=default;verticalAlign=top;aspect=fixed;imageAspect=0;image=data:image/png,iVBORw0KGgoAAAANSUhEUgAAAggAAAGsCAYAAAC4mV8GAAAAAXNSR0IArs4c6QAAIABJREFUeF7sXQVYlUsTfpEWJUzEQAQLu7s7r93dHYiNYiCgoGB3e732tbs7rp0YKChioAKKAhL/P3M8eIAT33c4B0HP3uc+KmzMzs7OvDszu59e6NuQeIgqeqJq6yrL44DmeShyEbW4LJqfmxaJ/bO6Tro0YoRG0bLK60MnAr9cruJ1a5CqayBmK4khTLKMGu5dhGzo6QCCmOXSVF0RKyRwSA2LkMBRUwf8pIAYXVNZDugAwh8jDzqAkLpLrS39qwMIqbuOaWQ0HUBIIwvxZ5GhAwh/zHrrAELqLrUOICTwW/PGLXWXMi2MpnkeaktAxXNL83MTT4OuhVwO6ADCHyMYOoCQukutLf2bDj0IxHidEUiZ+Gmef9oSUPHz1PzcxNOga6EDCH+2DOgAQmqvfzzitWAX0ylA0IGElImfdoxo2gAJ2plbyvita80c0IYHgfpNKng6EUgTAqcDCam5DAQQNGsXf24jLWh2gXtUjSRFWaYLHCU11yndjKUd3mlBlNTgqHbmpgYhuibKtqsYYVG1pLJ9qaqrW5VU44AOJKQWq6UAQTMgIfEWErNRBc5X4B5NIUDQDDMETkmr1aJiv+Nz1Fd8j4tRexwjfQNkNjID/am6CFwh1R0lqqEFURJJwe8jE0InHhcfh/j4tMF5lTTLiJ2+nr7K6gkVhIirDiQI52cq1dQBhFRiNGQBQsp0YPKtpgXdImQ/k9NR/DVHeQwXOFpqrZXIcTwubMS2BycRHfsdcSm4c5oBGWBsYIheJZtgRMX2AqjQDt+0IE4C5pK0inbmpgYhWm0SGx8L+s/QyBB6eulnznFxcfj29RsyGmWEnpDYqdCpSYVPaH2tro6ucx1ASC0ZSAoQxIMExVtGCxpd4P5UChDi4uOxyv8UgiNDE7isb2gAE4tMCf8uapITzSyKpcvExVMBNzDx5DK8+fIxRVJknTkrCuewReT3aNwMeoTo2Bjkt7CGV/2hqGBTVEXfkpW69+AevkR8UUlHyeIlkdE0o9J6JE4vAl4gv23+hHoRERF46PcQRkZGKFyoMIyNjFWOJbbCu/fvEBsbCytLK5iYmHJzOlm/D3mPHNlziO0uUf23794iJka1d8fU1BRZrLKoHCvwZSAb9Lx58nLdgMAXsM33k18qO+DQezwiYyKR0Uz5egjp61fUobX5HvkdhhkM5Q4fHR3Na8dFhUKxMLdApkw/9EISkPD5y2eEh4cLmiLJiaGhfHoEdaCrlIgDOoCQWgIhDyAI2DgAzp07i2v/XUPRIkXRtElTOQSnUYDwLTYajc/ORvj3bwlEG5gYwTxX9oR/lzS1gU+e1j/+LRCWpNaaKRnnyusH6PLvNMTGxalNTTYzS0yu1wddyzaG4Y+wQui3L3A9shx/3zzMOnV3Bw8Uz15AyRgSnnl4e6CIoyPWrFmFAQMGJap/5cplVKpUGSdPHseIwSNhJ2P4FXW8dOUyDOov6efMuTM4efoEC+C3b99AxrFdm/YoVpSAXcrLx48fcePOTQYGpNw/hIQgb958sLezZ8Bw7NQxNGnQJEUDnTp3CjlyqAYZEV8iULFcRaVjPX/xHNeuXwUZwA5tO+LWnZsID/+M+nXri6IxNi4WsRliYWysebAlipAUVI78Ggljffn0f/j4AWcvnUX27D/3u7yhyBORN3deFClU5OevSaf9UAf3H95H8LtgmJiYKKX03dt3qFOzDsuROiUmNkZuqCdDhgzQzyAinKLO4Gm0jQ4gaH9hyBt348Z1ZNDPgNKly8jxJCa2i3TQef36NV4FvcK582eR0cQUrVq1xunTp+D//Dka1G8AGxsb5MmdG4aGRpp/SVEYbmHGKfQgbLl/HCcCbuLCez/ExMcmcNkkqxWyF7FP+HdigCBiZO2vm9IRmm0Zi/vvn6eIipODlqBMbhmlKNPb/HP/YNrRlexB2N52popx9LB01VIMHT4cLVs2x9GjxxPVX7FiOQYMGAg3t5lo3by1KIBw4dJ5+D32Q5+efRP6JAEdOnoIZk5xE2R0lREf/T0ap86cQqP6jRJVu3n7JkyMTVDQoZBGAMLFqxdRuXJllet188ZNlCtdTmm9f/fuQtnS5RAWFoqsWbPh2Imj6NW9t8q+k1b4EwDC1ZtXYWdnp5Q3YWFhsMhkkRggyLQggPA16isyZ86stJ9nz56hasWqagGEyKhIfIn8wh6ypCUqKgrZLLKlqxCQaGFU0EAHEDTFScX9bNy0AWZmZvgUFgr9DBnQs0cvOZV/goSAgAA4OY+C02hnVKlchdtIC3n1bt68gcVLF2PE8BEoVbKUdiYg8CyvECB02DkV90NeoGr+kjj2+ArK5i6CG0GPoBcDZLbKDiPbbEx4Wcv8WFGmT5JJKB/99NkzXL92zVrJJk8nzheBAbC3S37qfh7wAhs2bYSFhQVGDRuhNuNOvriOPvs8ErUnD0Bdh/IwNjDCmWc3EBap3N3vVKsrptT/aXSTEhMeFYGS3p25n39aT0OVPMWV0KsdgFC4cCE8fvIYvbv3SaY4g98E4+79u2hYr6HafKSGj58+hoG+AQokWS8SdOo/NjYOb96+QZOGKfMgPA94jjfv36BSxUpy6Y2MjMS58+dQrlQ5ZMsqkU1FhVzeO3ZtB7nFg98Go1rlavjw6SOqVanGoEZo+RMAwp37d+BQ0IFZ4u/vz2CBQjPv3r1LAJefPn2CkYGRUoCADIC5uTnotEUep2zZsvHfqU8HB0n/fo/8UK5MObUAQsS3CJiZm8kFASQbhnqGyKD3UxGHfQ4DrR/JrpGhEf/5OeIzLM0tBQMJAtrhEeHcr3kmc5CnIi0WdUACGamg4Ndo3rQ5T4mMmq2tLchLQx7NalWrK53qkmVL0LlTZ+bNgkULMGrEKGzZ+g/69xuQqB3tWQorFS5cWK4tCPkQgpw5ciodi3RcoYKFRLPe/7k//rv+Hzq06yC6rWyD8RPHYeSIkYj4+hUrVq7AHM85CvqT2EXi5bLlS+Hh7ikTuUscRli+YjkfiGQBAtnGAwcP4MLFC+yNGzFsBLJmzaoe7QpM9ObNm9GlS5eEPhUChPY7p+Lee38cG7AYiy5sQ/dyTdFs9SggOg6m+plh4mjDnZSzssOqCv3lEKkYJCxfvZKZ5DZtBscmKW5MblpSHO9C3mP+ogXwmDELGTNmZLBAMeVsWbPCfY4nJjiPQ1h4OKwsLblt8Ns3sM2bj2OleXLnASmDr9++spJ55u8Pa2trZJbGRn9QOfLofOzxO5dAM7kfPZsOw63XfnyToX7BihizzxffYxXHvPf18UF1O+Xorv/2Wdhx5wT6lWkBl+o9lSxkYoDg6jqd6xJfKAxw9/ZtlCpdBpcuXoBDgYKwtLBQKRTuXh54+uwJevfoA0MDAxibmKBUiVIJyo9CDfsP7Uf7NsmTKcmgW+e0Znctxf7p74rK7Xt3kNvahhW+tJDrjAoZgLsP7rErv3ULaRjqZ0+kbIj3ZHBI2RoYKL/98SLwBV4Fv0KF8hUSxam/fPmC27dvo3jR4qKMC4Gbx4/9EBQchGpVqmP7rm2Y7jIDkWFRMM5sBL0MyoHunwAQnr14hvLly/Oi3b13F8WLF+f1Cg8NZ6BOhcBmeFi4UoCQPWd2lhFScm/evEHu3Ln57/fu3UOpUpJ9dPnSZRQtXDTZGpL8SD0D379/l5ujQAAhk0xulKy8JgUIFC2mNbeysOK56Ovr8/8hH0OQI2sOBo25c+VWucdozLDwMM4JIk8atZUtdLsl4GUA7PLZ4WPoR1hktuBxNFFo/86bPw8RXyMSuitftjzatGqTrHuxAIH2rZOzEwPASRMmsT4d4+wEp9FjYJffDidPn0TD+g0Z+JMOplwnWp+Pnz7iw4cPsM1ni1FOIzFx/ETs2bcXrVq2Qp48efD+/XsOV/EhMOAF67e7d+8gl7UNChZ0wMePn5AzZ07+HYHJFy9e4NTpU+jZoyfLBIVG6U+SozdvgmFsbAIKg02YNB6z3WfD3t4BBFaJDqKJeE3//vz5M/Lly8f6iGSP3PdBQUH48DEEV65eRf++/Rnw0sGB2tGcrKysEBAYwDZF0Zq9Dn7N9Jy/cA579+1l29OiRUu0aN5Cqa6XAgRPd88f9ZLnGMgDCBs2bmBAQCEIWn8K55KNJA/e27dvGbyTziY7+i3yG8wzmycACBqTQAXxl3hgbGKMqOgozkWT2k7qa8nSJRgyeEgC/UoBwrXXD5E/iw2ujFiHdhvG45z/TSAqDsZ6GWFSVAIQymexw+rKiWPmP7mTXMFSIt7eA/thamKC+nXr4diJ4yhVoiQL3uatW1C4UCEsXraEwcOW7dtQolhx7Nm/F2NGjsbd+/cRGvoJ7du0Y5fOnHneHFcPDAzgRezUviNOnT0DhwIFsGrdGjSoVx/Xb96E6ySXRAvWatsE3Hr7NOFnFfI6ooVjDUw9spx/1rBwZViZZEaH0vURHhkBu6y50XKNE/9dWs4OWYESuSQnH0XF+/RGzDqxFk0cKmNpE2eldZeuWoZRTk6csEKCHB8Xj8IOhfDiezBOBV1CVhMrtMxfH+eCr+Kv/A1U6ph7D+6D0Le00GasUK5CAkB48PA+b56kJwEy1P0G98fwwcNYgNZtWI9li5YqPB2RVyci4guKO/70kNDPZAutTb48+ZLRTHFpOrllzpQZ/oH+KFygsEoFSkr87oO7qFqlKm8QysAnJVKpfCWYZTRTyRdpBVJSK9eswMB+g7B7379o2qgZ5vp6YdzICTg+4Twsbc1RaUQZ6OkrBgl/AkC4cOUCHOwlch7+ORw2uWzYeBJwlCpSOnWTrOW2kW9UKcRAp3NS+qTAyOVPyor+Tn3ky5sPBPIePHyA2jVqJwIItBf8nvohf778bAxJf+TPmzyZVCxAePv+LRt0AggfPn1g2SGvQqaMmVgWySNgY22DgFcBDGIL2BaAf4A/J6bmyZWHFSuN+fXr1wQ51DfQ571LbV+9ecV9UXsCBl++fuF+7PLa4fXb1/ge8x05suXgfkI+hbDCz2KZBdmzKs/3kBVwMki0t2gfEP9oj8szZmIBAhndnTt3cEjIsWgxNq6jx4xC7169WV8QQChXthzWrFnNQI/WsG3bdpg2YxqqV6uOsqXLYv5CXzZeXbp05X9TWbxkEQYOGIQxY51QqmRpGBoasLGnA8ipM6fRvWt3zPXx5oNMxLevyGWdCxcvXUC3Lt1x9vwZ9jRcuHQR3rO94e4xi3USgctlK5bB2WksihYpgqnTpqJsmXIMIFwmT8GIUcNZV3Tq2Jlp8J7rhcGDhsBl6mT069sPFy9dRPu27THPdx4cizqiY4eOmO01m2nx8vbCvLk+yXQfyS318/TZU5af8eMmcL4AJfVPcpmESRMnKU2UDgwMZF4o9jQAS5ctRbVq1VCyREmmm8DV2PFjsXb1WvbixHyPYVAWGhqKqdOnom7tugzOGjZoiJmzZvKfp8+exqL5i7Dp700MkmjPThg3AfMXzuc51apZC7du30L2bNlx6PAhrFi+AgRMRAEE7xYjkcciB4LC32PMXl/Ef/uO2LcRMMhvyYRXyu2IrW0kJ175JbGC9Vk4H/cfPoC+fgbUqFINGc3MEgGERvUbwMt3LubM8sTGzZvQvUs3ViiHjhxGyxYtGP2sWL2KQwye3nNQrmxZBL58iXat2+B9SAifclo2b4H+gwfBzs4WUVHRWOSzIBFpAw/MwRH/qwk/q2FXGsWs7bHs0k7+WRXbEnDIlhcdStVHx02TUCxnAbyP+IQXH4MT2uzu7Y1aBSSCr6h0/2cq9j84j+4lGmFmbXlelp8tCSCMGTuWf3Dx4gUULVgUa/12IHcma1TMURLfYiKx9P5mmBoYY1r5kUrHlf5SUe4rbR43TzfMnjWHgVbSQie2mZ5urNBcJkxWerInI3nx8iWUL1OOFZQQGZCtQ8qSFD8pTlUeBGk7MkakrCkZMfLbTyVJvxfiiaB6l65chE2u3HzauXTlEsLDw1CrSm2cm3EVtSZWwdt77xF0/Y0EJCjwJPwJAIGMc9myEjl/9OgRSjiWYINN4JHcwo8fP2bvH8mrokIAwdLKElmzZeXTIyk78uyRMeW/Z7MGGVdaBwKaSZMUqc2zgGd8Us9tnVtuCEAsQAh8FciggEJKlL8gBQgEGshLlS93Pjx88hBZrbIiMjqSjffrN69hb2ufYIRpTFK8dFIj8ES3OGQBgk0OGwYbDvkd2DtBHot3Ie+4T1LuzwOfI2f2nHxypT9pL9jklBy8hBTKLdqybQv69OoDF1cXLJ6/+OdNEpkOxAKEY8ePolDBwgziyFjO9ZoLcqPP8fTi/UUAgQzSrn934sbNG1xv2NBhmOwymePmxRyLYciwIex5mDp5KgoUkISLFy9ZjNatW+PSpUto26Yd/+zI0cPYtn0bBg0YhPLlK2DaDNcfhroTeygOHjrI8yM52/nvDv5zzaq18PB0R+fOXXj/9ujVHZs2/I1/d+9CaFgoyw/lRRHdmzZtQq+eP3MCyD6sWr0Kzk7OrHcoxNG2dVvM8ZqDgQMG8in86LGjOHb8GGZMm/FDpyW2YQSgyKNCdBw5egS2+fLB0dGR5yMFjMpu4pA9696zOzau36gwwdl5nDOmu05P0M+UWE2ne6/ZXrh16xaOHj+KOrXrMP9JX5OHZuu2rfCc5Yn1G9fDdYorNmzagBLFSvAadujQgb0MBNLJm0Dhn/z58+P06dM4/X9wRvk/BBDWrV8nHCC8CH+DOc2GY+SeuXCp3xcTDy5GTESkSIBAbJMwmFDylBmu8HKfzQi6z8D+6NapC288ci3eu38P7dq0g/PEcfD2mI31mzaicYOGuHztKsqULMUxnuzZsuHvrf+gdctWvDlocU+cOsmAgUIQFStUQN1adTBhyiQM6NOf44wli5dItN92PDwN5+OLEn5mZZoZC1uPxZCds/mhJOfa3bHqym4sbOWMdhsmoEiO/IiKicbzj68T2vSr1ApezRXnQXz4GoYy87rhc1QEljUdi8b28mPn0g5lAcL0aa7o0qc7vO6uwtwqE0EP2iy4tx6fosJAbsvp5UcJ0R9yX3Qg9/+2HVvRp2cfWCrJFidBp9OIkAx9WtdL1y6jdInSyGIlLwNduateqFGXnfTV61fZI0LuSPJAZM2Sld25pKSzZVGegyCPeRHvvuKc+xXUmVodWewtEXghCHe3PEDV8RVgZCb/2t0fARCe+aFsGQlAIMVC3gIyZGQIKcTwKfQTDA0M+VRvaSE5NCQtDBCyWLK7U5qDQG5e1gzxeggJCWE3KcWaqS95tx3o1ESnHtk8AtlxxAIEupJLRpkKGW95AMHvmR9y5cjF4xL4JfkiT4K00JgELrJaZmWPAQEAuk5M8vfy9UvktcnLQNbBTgIQiD9kXDKZZeLxXrx8wV4EAlvUljxqNJ6YQsZ657874TbNjd3i8ooYgEB7se+APqhcsTLPm07JM6e7sXfA3c2d14/GpJwtAgANGzTCwsUL4TTKiUH2qjWrULp0aezYsYMNzfYd2zFm9Bg2TAQQ2rRug+MnjqN7t+5sFwggUHjQKosV+vcdwP1funQR6zasg8csD+zZu4dP9WPGjuET9/6DB9ClUxcGCIMGDWae9uzTExvWrsfBgwdhbmEukSNDQzaAe/bt4RCHtFy+chknTp5gu0FmiQAChRjo4Llp8yYM6DeAjT7ZIsqbkMdTCnP16tMLdevWxYMHD5gvQvSk7NpQLgGBRAoXJC10qicQIAtsCFQMGjoIvnN9ed/dv3+f98zDRw+RJUsWBmVUqM9d/+6C02gnbP5nMwoVKoS5PnMx1WUqH/iyZM3CeRKDBg5iHhE469K5C6a4TmFAJBggDDgwB5de3ceXrxGJrg7Ff46CXlAEDG3MmaAK+Ythcy93ATKtxwCB3BzS+/mUxJbHJg8e/JgkGaRCDgVx9b9ryGVtzcj8zPlzHGawy58fN2/fAiWWVK9ajYXg+s0bLMQ00eKOxXD9xnWOQ1GM/ltkJIcvihQqlCyBJSYuFjXWD0Hwlw8JdBfObgufv5xYQBdc2IqjfpdB3hPnffNhl8WGH1EKCvtxJ/xHq81d3dCkSNVkcycwMePYKiy5uAO2FtY42W2+ymtWC5ctYg8CnaK3bd2K+vXq43XEO+7bytgcVsaSeG9I5EdkM1F9z5/qJvUgkHLyXegD59HOsDCXr8wFLKTCKuQmLFmiBBvrxEVgyqyIwa9cv4IKFSogQ1wGUJw8LjaOlQW5y8SW71+/48yUy5zIlreBDSzyZsZ/K2+jvmcN6Bsrjhn/CQDhzIUzrGipkGEjsJrBMANISZKRJ3cpGXRTI1N2CcsrBBDIjU5AjvZrYYfCvM9kC3mFKI5PxlSdB6fIWBllNJIbCiNXvImBSSJwQWEFOslT+RT2CaYmpnyipNMnxbAphmudwxovg14yULbNY8ueBQovSAvVISBA9JJng7wRL169YBro79bZrTnXgfY0hRkIRJBngoAAGWIp+KATIOk6AhHqgFtV8i4GINx/cB/HTxzDyOGSQwjpVAoD3rpzi70/Pbr1wIWL52FhYckGiPSwqakJ2rRpiyNHDuPlq5cMAjZs2AAnJyd8+fyFDdS8ufNACXA9uvdgsEEnf/IaUXgpV65cbGjJ0FHcn/hJ1wAph4FCBk0bN8Wa9WtQpVIVPPN/BrcZbliwcAHnJlhaWsJrrheHt5o0bgK3WW6cM0NrTiGRw0cOo3GjxpjjPQcd23fE/gP70bdPX7hOd0Xvnr15fhSmpndoKC9h9MjRPK8mTZrAx9cHlCeQNPnUz88PixYv4v4vX73MRrlv776i5JbWf9yEcejUsRMqVvh5LfuR3yPMcJuBlctWJvPuEn3unu4oVqwYXr16xWtBOQUUUqhRowYr/PLlyuPAoQPskSGgUKJECVy7do29B3R4orAKJY0S7wjUEB8cCjjwulFoZOvWrejV66fHRWEOQsT3SIR+DUfj0V0RLvOADzHLKKc59PQlGbsV7Itj45DZqmT0x+81bygEDpys2m6/sxh1NHHoQWxfJgZGGFa9I8bW7gYjfckpMyQiFJSceMb/BgOrdS0no7ZtGZVdnzh1Ance3sWkSS7Yvm0b8pV3wKQrXhhXeiDszfMit5k1HoU+w5V3t9CzUFuV/SUFCMHBrzFlxhR4uXvBSsBDQoIGSFKJhP78pQsoV6YsGwNtggRZgECntKjIKDZQik6xyuZDAOG48zkUrlAQ/v+9gH6WDKjhUhkGSsAB9UfenOj4aCWhFXW4mLptor5FwShD8quBRAUBStkkRVKM5AIPehvEACFv3rzsVSCAQB4EMrKKAII0SZF+H/klkk/NsoVcwwQQCtkXEqVopX3QXqM4P61J0kIGzsxUeH5K6q5A6owmFCTQHiZeSl3kBOSkHj4CROT5kP6bvIzSsCDVZ6+jgQQc0WGQ5IKMPXlVyAND7ciYUv9SVzzZE6pD/1MbAmMERCh/gX5Ghp49RxkysCudxqH/6URNfVEdqk//pjZUh+SIZJH6kia10u+JVqKBDCMDSkMjBqr0cxqb/qS+CfiTJ4sAI4W1kgLWq9eusleN6tNcdu/ZzeBE1TsfSVeaaPKZ78OJkF27dOWwBnkvlHkkaD7UjuiUei34Z9FRPGeilf5Nv6M/iQfEO+I3/Y7WgepKeUd90Rzod/QzaiN7VVjpS4qUxd/Seyiev5Nkpcsr9YpXweLeiZMAlYt82gAJlFCy4c4hzDq/IUXfX6C5Wppm5jwN8jL4fwgCeSgyGZnCtWZvtCtSR7DCO3fxPF8bpOzckg3KY/uzgzDWN0Ixq4L4/D0CLz6/wrDi3ZHFWNjpX+pBoOzf9ZvWYeTQUezq02Yhzw2h6jIlSzO6/1k0u+6yIQZSWnS1keLK0nCD2Dl+Do7AuRmXYZYzIyqNKgsTS2GPH0XFRsHAyEBw/oRYurRVn5SCNLtf0TcZCCDcunuLk9So0FXTqhWq8kmXMp9z2eRCcHAwn7TpoSRFhTwIFFI0yyQx0tKnnUlx0cmcMvzpNoB9fnvBe0VbfPld+xUKEFI+fy28+pdyotJsD2SQDx89jPPnzqNMmTLsfZH3lodGJyBCFWvoWwxiyRdBodiuRda/984fXpc342FIAEIjv7CRV7cY6xvCytQcxbPbYVyVLiiUNXnmvrC+9fApKhxh0eGwNDLHnY+PkMkwI0pldYS+zF1uVX1JtyoZgqioSHYLpkYh40MxY0LhiYvm1p1c0gQKCOXL3l6QvRIndq4xkXStVQ8GJuKuokXHRfPJJN18sAngU4WxoTHo+yGKCp0u6AqjbKGTCXlqpBn8FHZQnJwqaUmxUspVSFb0IAlLxEN0DFfs2v7p9XUA4U+XAJn5i1DDvwggSM4RaaWQYo+Nj2P3ZErwL82IkqjoZSxBH8BRyADN8CYlc9He2mhmbtqjT9ezIA7ollEQm9JKJR1ASCsrkQboELF3fyFASFsgIQ0sm8ZP2zqAkPZW9behSISS+W3mnM4nkjogIW1qnXS+dJolX8Te/cUAQQcSlK+8iJWU01Ha3aopm5dmd4uuN7U4oFtCtdgmv5HMl6002GvSrlIDIJBYKPquoRanputaDAdE7N00ABB0IEHx2opYSR1AELNFdHU1xYGUiaimqPgN+kn/IEFWFHQgIQ2LpIg9qwMIaXgdJaSJWE0dSEjzq/lbEZgy0fytWJHyyUj9fdplqra8CEmp1gGElEuEVnsQKGZpBCCk3BBqlZm/vHOBq6mAzrQZakjZnH75kugISMwB3XJqQCLSJ0hQtPQ6kKABkUiNLpTs3TQEEGQ5odM2yeVCfZ6kTYCgA4WpsfdTfQz1xTTVSU2bAybdrVpiqF7yl1bV4Ycq6nQgQR2u/qI2chYzjQKEpAxSJYa/iKGpOqz6PEi7AEEHClNVhFJrMPVFNbUoTOPjKNuxmmVuvJ7sWKr7Vl0jOWt1ICGNi5vBzXQSAAAgAElEQVQSc5tOAILOkEg4oM72lLTUgYR0tkl/B3LFiGvqeNd/EVfVmZzQHSuGyfKnnxgkSOv87Dfhb8mcG0JpTC/65xeJR1odVg9IhwAhuQCnVf5qhy71FYLw7awdyoX3qv4chY+hq5lqHFC1nKnkVU+1+codSJ1JqrNjVTFbPEjQi5dDh3rDpJODyq+VlLQxumTN0zFAUOIXSRsc1jIV6u1QdVSOlieioHv15vdraNWNKpgDydPd5Tf95cuvaKekhDB1Qgcp3bFi6I2X76TUBisEC4ziiinljAZISKNdaI4zvxFA+BM9C2I2/09Z1pz4pMb+UG+OqUGZbgw1OSBdUlWCqPbSa+pNAVUE8hlLJBPE9imkvlAShNAqcjwhXQolT2Q9kZSK7P13qJ5yDv2GAEGdTZtehUH93Zly0UlNnqk/z9SkUjeWQA7QcgoRQLWWXdPHXTGECgUmQvsUUk8gz+VWk8dgNcZUa51SQnd6PexoZs7ie1FjTX8M8psChD/Jm6D+7lRfbMSLaMpbqD/PlI/9+/Ug9BAvb+ayK6GODIkaW/SyC6FITKdC+lMkH8rGSUm/2pDHFK6qGJZqmPy0xkkNT09D3anHpd8cIPwO3gQh6jTlu1M98dGQ7IruRux8hZ7sRBOSbhukxByk5NwpNAUhEWO5kVRC5a994l0iVppVyZPY/pTBKk30lUbFThUbtUj2b8xVLXBNOLf+AIDwO3gThKjzlO1O4SKjBXlVq0sx81VuXNQaPp03UtfIp+RMrKitINlLBBIS72n5oENQrwpWUV3uqBIK6jcldKnqP438XszW1CDJfwBnNcQt4ZwSDBC+x8QgOiqKCdTX14eRkREiIiIQHx+PE6dPoXXLvzREfOJuYmJiEBcXx+NR+f79O28xI0NDNcdLufRGRUXBwNAA+hn01aRBnWbyldb3mO+IjormDg2NjGBkKOFTahZan2/fvknWxcgIhmqvTWKqic/Un56esjUTs56yG0NMu+TcJLn/+vVrwi8yZsyogk7xK0Jru2PXDnTu0Fl8YxUt2FTJzIH2tLGxccIc1I3kC20XGxuLyMjIBLkVJDN6QETEF6bTwMCA2yZexZ//ktAhXBHKsovkOTo6GiYmJgkjEK0ki+Gfw2BpYanx9ZDXoXR9zMzMUmU8uYOo2iYCF5z0A/GV9jKtH8lbSsqVq1dQqWKlRF2ot9rqU0H6ieYiLUn/Lf35x48fcev2LdStU1f9weS0jImR2ELDH3tBbOdE773791CubDmFTQUDhAOHD+Li5cswMTZGQXsH/NWiJf67cQMO9gXg6T0H8719xNInqP7BI4fxKugVBvTpx/U3b92C+Pg4dO3URVB7+ZVUSb3yrn0WzkejBg3hWKRoCmiQNA35EALzzOYJAEh5h8np3n9oPy5fuQJDI0MEBr5Eo/oN0L5te40bK2V0+T/3x3T3mShgZ4dXQUFwm+aGHNmzp5g3HnM8MLDfQGTJkkVAX2LWNJ6N05u3b5HfNr+AvpNXoXVznuAMhwIO/MvhQ4fDwtxCrb4UNSIaB48YjLUr1mq0X+qMuPX23Vu4TJuCvHny4u27N/zn2NFjEylvqdJ99/4dTIxNYGFuLoiWxFAsqerWw7Xr17B81QrY5rNFQGAAPGZ6IFu2bCr7vnGLdI49zM3NVdwf0PsBD8SbDTJmE6dMgu8PnUZgpnf/PljouxDnL5xHsyZNVdKpiQovXrzA0JHDsH71WmTLpng/PX36FPb29hrb8x8+fECmTJkkxi8lzpQfbQkYjHQahaxZsiA2Lg7PXzzHeOfxKFG8uNpsWr12Dfr27pOsvfjVVpsEeHl7Yazz2IQOPGZ7YNL4ifxvWTpoHbdu24rx48arP1hCy589z/WZB7OMZhg0cKBa/X758gW79+xGt67dFLYXDBB27t6FiuUrsBKhQid7EqS4+LgEgECo+5GfH290m1y51CI6aaNde3azAhk9fCT/atW6NYiPi0f/Pn0ZkT589BAZMuijcKFCyJAhA548eworC0u8eh0Eu/x2LN/0s2KOjqzgCJU/efqEBbVoYfUM/EyPWfireUvY5c/PJ433H0JgamIK23z5mMYXAQEICw9D8WLF2MvwPuQ9Xr56BceiRIMxj585c2a8ffcOh48eQYXy5VGmVBlYWQo5mSTesTv+3YFKFSrxunz58hnT3d3Qv3c/3ow0VwJXxYoVx8uXgfj85QuDGqLHOqc18+t5wAvY2eZnz8y79++R28ZG9Lo9fvIYGzdvwkzXGbh2/T9s27kds908mO+kXAsXKsxj0Yn70eNHTGtYWBgc7CXG1e+JHzLoZeB/y3oLJk2dBKcRTgmGg2gk3pH3pqB9QdC49gXs+TRJBjtzpswwNjbBM/9n+BLxhdeXTn1Br4O4D2MjY7x5+wbZs2XH3v17cfP2TXTt3BWFCxYWPWcymCtWr4DLBJeEtiSPT589ZZmgOdOpmPhP4wa/CUZm88xMY1BQEIoWKYrQsFC8e/cOxYtJFCXNraBDQf574MtA5MieIwEgfIv8Bj8/P2TPnh25bXJzHZp/TGwMHIs4iqJfKkFE0797d2PIgME/9tZqpp3+TTJCYM++QAEGDAsWL+Q51a1VGyampnjy9CnMMmaU7DEFHp6fgZ3kavvCpYu49t81jBo+Crv37eY1GjpwKD58/IjAV4G8duRBodNXvrySfUWGhcC0hYU5DA0lax748iXLdPT3aJDCs8llg9fBr2FlmQWmpia8F21tbUXxhyp7zfPG0EFDQJ6hBw8fYPW6NfD29OJ9nC+vRAc+fPgQJqYmzANaO5JF4gXRWcCuAHtYY+NimWZ1yt///A065dF6N2rYiPcSzTlnjpy8TjRf0jOuM6Zh2OChKFO6DOtlv8d+sLK04nlL9Z2lpSXev3uPokWLggwWrQitLRUCiiSTRQoXQWRUJMj4lilVGmXLlmVvyUO/R8zLAvkl9cUWshE9+/TCovkLYWFhgdevX8N9tgd8vOfxHiF6SL5pTwQGBnId+p/0Be0R0lVkV0h3FvhBsxQgsA14+BBGxkYJe+dFYACyZc3GfCCdQmCSCu3Z4OBgHof0Au0xmh/xlNZLbJk6bSpmTpuR0GyiyyR4uLlLZOPRQ9ZFdnZ2PD8CCOPGjmP9ExsTi9DQTyha1FGBJ0U1zAkPD0ePXj2QJ09ezPGczXJKJSREsifs7QuwTqeFJh1UongJhIaG8n6gg5yVlRXLDwGEmjVqsm0oWqQI62kCyMQ70j+iAELWLFmRM2dOZMuSldHl3v37UK9uXQYIvl7z4Oo2A7Z5bXHx8kWMGTVaIydsAgikyLt0lLhZd+/by+N37dQZg0YMg4G+Pm8WMgDeHrPhNH4s/5s2U1R0NJ94SADIOLuMn4hVa9ewESOhpY09aewE0chbChCioqOwfdcOVvBnzp2F+3Q3Foyjx4+iUMHC6NCuHR4/ecIbrnKlSnjk9wgzpk7HoOFDWMmULlUG5y6cQ7GixVC3Th3kziXUOP8ECbIAgfhDCuzs+XM874tXLqF0yVK8Wa7fvM6G1MoqC7Jny4bsWbOhbJmy6NyzK/5euxFXrl1B+OfPaNZY/OlIChCmT5mG8xcv4NKVSyhUsBBevnqJT2GhqFKxCqpUqgyncWNQq2Yt3H9wnze/j9c8zF+8AHGxsfgSEYG6teqgerXqCRsuKUA4dOQQC/8jv4eoX7cBXr4KRItmLViBevvMxYihw7Fu43rehGRUyH1GJ9Plq5ajTas2bDw2/r0Rrf9qjc1bN7Pib9u6LWpUqyFWN7CymTN3Dvr17sd8dShgz0aEFJqpqSkbOc+ZnliweAED6cqVKuO/H3KXyzoX8yBP7jxsQLJlyYZ+ffphhNMILJi3gGmZPXc2Rg4dmQAQqB9axyPHj2C6yzTcvnMbj589YUNANIgpigAC7Ztho4dh8fwl8Jo3hw3RkeNH4evlA99F89nb0qpFS+w7uB/6+gY4f/E8xo5yRjHHYiqGlw8QTp05jd49emHXnl0oX7Y8K3hP79ko7lgMew7sxaolq5gPs2fNZh5u+Hs9CjoUQtVKVRAU/ArLV61E1SpV2ED07N6TZWmRzwJMmzkdFSpUQOOGjbFwyUKMHCY5XCgrUp5IKSUd8fDhA/To1gMbNm1EzRo1eP4EHEaPGIVZHrOQNVs2NjgEMnfu3omO7TqwLHbr3R3bN2/D7n17ULlCRVbiYgsp9xGjR2DR/EWYMm0qZs1wY8W9e+8edOnUmQHnrTu3WRcSTTQ2KfpZnu4899u3b6NihYrs6R04dBDKlyvPMmtmmhEUsiDZd3VxZT3uPseD1/DqtasYN2Ycli5fygeuunXq4eixI6xPyciUL1cBrf9qJXYqfJDr2fcnQKAOiGbywhIIvXHjOjKamfHBjwwZgcXePXth7fq1rKOfv3iBr18jEPzmDUqXKo12bdqyTu3auQsmTJ7449ATgoxmGTFq+EjMdHdjg0lrcez4Mcz3mc8HkvkL5zPIvXT5EpYsWgIfXx/oZdBjnZQ0XCFkkmPHOyfae+s3bYDb9Jlw93SHpaUV3r59i04dOsIsUyYGCM5jnOEy1QXW1tb4/j2aDwsDB6h3+r9x4waePffH5/BwEPhr07oNbty8gbXr1qJWzdrImjULPn/+zGtKPCM+rlyzioHmgYMHMGHseKaDvB65ctlwXeucOdG7V28sWLSQbQQdXkUBBEJiObJlR44cOdi1IQsQhg0aiiUrlqF82XKM/ONi49CnZy8hfFZahwDCv3t2o2zZMlzv3r37qFyxEhyLFoX7nNnYs30ng4EmfzXHlo2b4ebpjhbNmqN+nbpo3rYVls1fhGzZs6Fjty5Yvmgp2nfthB5du7HQHzx8GDv/2QpTUwn6ElpkAcKjx37o3rkrjp04jrDP4TAxMsaV/65hvJMzu+nGThwHR8dinBtACsN3zly4e3nCdfIURmibt/6DRvUbImvWrEKH/1FPotKSAgRSHCdPn2J3NwGYtq3a8AYNfvuGDSaBl+GDh2HBkoXo0LY9Dh09ghpVq+PgkUNwGjGKjZbYQgChz6B+LPDkqXGfPouRceCrlyygt+/eYYAU8eUrbxjynFD4wMtjDkaMGYnqVavxSenmrVtY+H8FLy1JAUJMTCz8nz/DlWtXWUF27tCJhbhNq9aYPmsG5nv7srKbNG4i9PQywNvHG7Vr1cblK5eTAQTyMhCQHfzj9Cx2zqRsPb080atbT/Zo5MiWAxNdJ2HF4hUMOFesWYEBfQYwQCAgVr1qdczynIVmTZvxib9F2xbYsmELK4rBI4Zg55adSgEC8YcA5vZd21G6ZGlWmIT6+/Tsw4BEaJH1PyX1INA+GjR8MFYuWQE6ody9fxfLV6+At4cXjhw7ggrlKqBI4cJ8MvF78hgXL13kAwN501Q/GJQYJJAHYeXaVQxwSpUsyXx0mT6F/00nxnMXznPY5vDRwyDdsmjpItStXY8NFQEEL19vNmK0r/Ye2Acvj9kY6TwaG1evx6Jli+Hv/xx9e/dmYNG0cVOF2QiKPOg0/6Z/NcOJw8cx3W063GdKToZk2Lr/3yVLIKRGtep8gn/46BGHPAn0kdK9dPkyOrTrgMXLF8Nn9lw2fmLLiVMneL8SuHEePxaDBgxkgJsUIDRp2BjDRg6H71wf7Nq9i0+tBApozxONUya5oM+Avli3ai17q+b6zoWXpxdu3LzJe4jCJZ9CP+HuvXuY6zMXm9ZtZF1Qp2ZtXtKBQwahfdt23N/Fy5ewdOESsVORCxDm+s5D1cpV2MD369OX98zS5ctwaN9BzJnrBVeXqTw2ndAHDRvMeoNoOHvuHFYuW8EAgUIU12/cwOCBg/h3TmPHsIH2mOPJ7clLQOCODB/pCfKYkHyRbE11mYplK5bBZeJkhTlTyQNjiac+ZpwzenTrnvDDLdu2wmnkaAZ0NapX5z304OFDOI1yYoAwdowzfBb4wmm0E2K+x6B7z+7YuH6DWjlbM91mYozTGA6VTnGdgkULFqH/oAFY4DM/wZuwd99exMXHo1XLvzDJZRImTZyMTGZm7IkkORo6eAhWrVmNUSNGsv5t36kDdv2wp48ePcL2ndvFAQTZEANNPilAIHdl86bNmGF8SlUSNxMqZYpCDAQQPLzmMEAghUVg4J/1GzHTwx2d23dAlcpV8Fe7NlizfCW7mNp27oDlC5egfbfOmDBmLLv4jYyMUbF8+R9uHuExbFmAQC6dJo0a48Spk3gX8h6d23fEvQf3sf/QAXRo0w5LVy5ndC91AdFJc8yEsZg5dTojP/UBAnFQLxFAIAXvPscTHdt3wOPHj9mLUKN6DT79kastj00ebN72D3s6yHOQP58thg8ZjpkeEsRNXiDlCYHyV40AwtqN6zFlwmTuh+iY7OqCOrXrsAI/duIYn2Co0OmdTl2z585hgEAx8F7de/LvKCmMkK4igDBrtjuDidiYOFy7fhWjR4xG/yEDUKdWbXaPVq5YOQEgUB9z5nmhYb0GfNKqX7c+gx86Ufbu0ZvDECkFCBRimPIjxEAu+Umuk7Fi0XJATw+r161G3159GSAQH0oUK8EAgfJD6CRKAGHXlp3sSRkwdCB2b/sXYyY4w9vTm+XZw8sD45zGsQfBy8MLMz1momPbjrhy7TJy2+RhcEfxeAKd5GkQAjCTSnhSgLBrz7/sbq5VoyZ7ocqVKcsemamTpuLocSlAKIJps6ajXu26TPvXb1/RumXSU6Xq+wo/QwwjMcPDDd06deHwIXmayFVPhUJ4BC5v3bqFp/5PMdvNE5STVLVSZXj7zmXvj3RfkUt1+84dzDsyBASSyaXqPNoZeXJLQjKqFL6sdFPdGbNmsos4LDQUw4YMSwQQ6DTao2sP/plpRlPkypUL091m4NWrVyBP2j/btuDTp48clkjarxDd5zrDNSGcS2EXff0MGDpoKHsse3Ttzm7r+48esMdPChAoDJzR1JS9alRcZ06Dy4TJGD56BJYtWsqAgLwDM1xn4Oatm+xtpJUil3ylChUZ/JDxJWMqAQh6GD12NPehBz3mtTrhmgQPgq8kxEDhIDJYLpOnoFWbVpjv48t6gnRPwYIFsWbdWlSpXJnDdVWrVMOwkcPY4FMYknhN+4cBQrHiPA/pKXyk00gGcrO95mDKZBc2vMtWLkexoo7YtftftGzegsEneQ1Ixnzm+2KcTA6BkHWRrUMhhhlJQgwEEAj89Oz2UzboUxZSgLBwySL2cpB3uy8Bt9XreG3lFUW7iLwuBBrr15UkPd67/wBuM2bCydkJPnN9OPRH8ksAgfRCtarV4DLFBRPGT+BDq9/jx9h/YD8G9h+AdRvWsWzTPu7ZqxcWLVgIT6/Z6NC2HS5duaw5gEBJihOmTEbN6jUQFRWJUiVKqhXXScooRQChY/v2GDFmNCt9QlFkXKZNnsIhBkUAYe+OfzFlhis+f/6Cgg4OjJro1Jy8KAcLygBCvtx5EP3jhNWgbn0+8Z77v9udvAQUpyRjONxpZAJAOHTkMD5/+YxqVaomxJbFCOqOf3fiy5cIjnM+ePQQOXPkQN9efXDw8KEEgDB73hyOs0d8/YqrV69g/lxfzhmgHIEZU6ZhxJhRaFi/AZo3kYA7sUU2B4HaEkAYM3EsaP4U5yNlNnr4KEybNYPBEil9itNSiIGUWNHCRTj0QWEi8kBJC3kQijkWZ9RLMcKtO7ahXp16uHX7JnuAxjtPwJ59e3Dg8AGsWLycm/ks9GVXPCmCC5cuYMpEFz7Z7T94gEEKubO9Pbzx4eMHzJs/jz0LtWrUEjtldtfKAgTqYN6CeciTOy8r0rv37mLi2Ans9hYKEGa4z2Rvw/v37/Ey6CUnDBJA8HTzhOtMV3Tt1BU7/92JqpWr8trSOHSq69u7L89ZVZEHEAio0fyD3wbjQ8gHTh57+OgBh8wIVK7ftB4L5i7gEBXxkYDJslXLGXiduXAWpYqXlAMQklKS1IEPyAKEp/7P+GQ7ZqQTNmzeiNo1arOHokeXbtA30EerDm3gMn4yg8N9Bw8wQLh19zZOnz2Nxg0asSGhEMOnT5/Qq38fbF6/iemlkM/6VevkGmghx4GPnz6iY7fOWL5oGQMFKmRERw4bAefxzqhZoxa76CmmSy568ihlzmyOYYOGoO+g/pzDULa0xPMpW1RFmCkeT0qagAYVMrCjnEdj7mxvjBnvzIcwAk3Fi5dA08ZNMG7ieDSoX5/d5+Qepp9RaNPaOieaNWmmFCCQrg56/Zo9svN852HL31tw7do1hHz4wOG+jX9vQOFCRRh4UCI0AW2xRQoQyFtBnr3LVy+jc8fOqFihAhYvXczhKgIGAQEB6NOrN+7cvQPPObPZK0Leao/ZnnBwcGDjliGDHho1aMQAgQ5CYyeMRfOmzfEpNJTXf9iQoZg63RU21rlQuEgRHD9xHNOmuPKB4N/d/6Jy5SoIDAhA506dMX/hAo0DhBmu0zF2wjiWVbJJ+fPnh5mZJMRAHoQBgweidavW+PjxA3uu27Vt94OdiaVCmXwSgMplbY0mjZtwW/JYkZeUElUp3Fa1alVkscrC+0IKEM6eO4szZ86gXt16OHL0CLp37846ctToUWjTti3evAlmHUKhlukzp6NLpy7YsWuncIBAyS5JT5fSn5EAUHID/Zv+TrBUU1cAqU/6n/qXbhb6M9F4P/5N9Emv0tDfyVBJr9NI/55Ao0wb+QKveImkY0jb0VjUr7RIfy9LM/Mqgx6jYCm/qL6UHqqrzuld0l4yNrWXjimlR0qbLM1S3tF32qX0UD11xpfOQXaNZOcl7ZPGJBqoHoUY5i3wYQ+CsvWQ1pfOTbq+UvopOZU2/oVL59GjK3khJLLCMphkfWn9STBleUQ/k/23WMUX/0Pupe3kjZ3AdwWySVKWVDaZVz9kXiorPKd4yTUxyZpKZCfRmquYgDyJlvBFEiFgGfyRth4bG8MnSPpPdq8lyI7MnpSssSqzl8RIJtnXlDSsLyMjsvOS3dOyekgqHwl19cA5HaR7kuoNsWsrrR8jo0Ok+iep7pHqGMprYg7+WGvpXpQ3tipuyeoI2XGlc5b2zWPFx3H8nuiQymBS/snqIin90n3FMvBjCWX1pTydq66OoHWRikgiXUdr9kMGZX8uq7sV7StF6zDLwx0Tx09IsBtSmpPKS1IeC5ORxHpedo0T20FJPemaSOVx/cYN6Nld4l1IftVTlVRIKJTdD7K6lvpLKh/SNZa2S6ozZHVsghz/0NOsa0LfhgijShj3ftNaQs4bv3rqaZtGykYndzglvh09cQx9evZmL1NKhI+S/pauWoZZ09xgnVP21oyqXjXDK3V6SXz9T7nMJHeJK5qX7Ald8nd5NcXRq04PqvieCntE3CQFEyRkZmKHFtKnYALTc0WxjFMxVwIIkydO0jJHxK8egR5KZCTdl16KDiAIXikNS7HgccVUTLs00uag61J0o4RubVCOimwRv92Aew/uwcbaRuadBNn5q+ox5bxStwcJZfEJp3VlKyydhfRWv2ppUJcqeT0r46HqPAPVtGqphjIWiEFoSchTBc/UmY0qKeUT4I+OhdRVh4Y00UaDYksxdkpg1W4Rvxp0eqdbWNLr8NqlTzO9p2mAEBH9DeuuH8DnyAjNzDZJL+SK7FiqPvJZWovoX4OSLGJU4VXTOn3CZiJ++8n2mxgoKIcN6vNL/ZaSE35yo6+qR3W4Is+8qBon6RoJGVcMOBMmAymqJW+K6jhFlIAEsVxUNB8xZAlZiRTx7Vc21hRDU3UOv/WKpO0QQ8CnYDRZMxoEFLRRKObp28IJLR3F34P/SU9aluq0TJu4FVVnGwqZ/c9+hdSW0Jy8psTcq1+EntTV4YJQqtKwR0DoFJLWEzKllCybunTJaffTU6S6U21KgerRtVwjjayH/Fn+1pyXO+U07UHQsihqqfu0JuFpjR712S52e4qZuaRvYS2U10pKpZA+xc5MfR4qbinEmmpj3FToU8gSpAIZmhwiLUiMJueTqK80uV6/NccVLmUigCDNtKQMakkW/J/JFM0JflqS9LREi2Y4LPTcLXa0xP0m5ps4LopxHkup1O05seslqL64hRPUZVqolL6kReR+ELxm6YsLaUFuhNKQABDogREzS3MYm5okXJUT2omuno4DOg7oOKDjgI4DOg78XhxggEDgwDyrFYxMfn668veapm42Og7oOKDjgI4DOg7oOCCGA3ofXr+NNzAxhrmVZj9VK4aI9FJX9vGO9EKzjs7fgwP0lT76KJSu6Dig44BiDiR9REjHq5RxQO990Jv4bDY5U9bLH9Kavrsg5Jv1fwg7dNNMRQ74+/snfOo2FYfVDaXjQLriAH2ciz5eJv1GR7oiPg0Sq/cuKDg+u42YdwB+3SySPo0p/QZDalGkAwipxWndOEk58OzZM35rXVd0HNBxQDEHSEcTONABBM1Iid7bl0HxOfLYaKY3gD+i8+D+PYSEvIednT3sHRw01jc910uf8KSPdpDL9fLlS6hePSVvGIgjTQcQxPFLV1tzHNABBM3xUtfT78sBHUDQ7NrqBQe+irfOK/kcqibKwQP7kDOnNUqWKo3du3aiTLlycHAoqImu+auNnp4emDZtOm7evIns2bMjT548GulbSCc6gCCES7o62uCADiBog6vq9Snvw3Xq9aRrpWkO6ACCZjmq9zrgVXyufCkDCPTZ5AP79yI6KgqhYaHo03cAf9GMPmm5ZvVK2OW3Q+48eVCDvjGewjJ79mx06NAB+/fvw/DhI1LYm7jmygDCvXv38OjRo0RfdRTX+59bm/I6qlWrxt4hKhRKunv3LsgoJnxtUAvsoc+xli5dGnnz5tVC75rtMr0ABPpU9eHDh/Hu3TvBDDA3N0e9evUScizevn2LnDnTZl5UREQEH1ToM7q6kvY4oAwg0G29S5cugeRLV4RxIEUA4f3GHoj7/ByRGUyxL6ImWnXoyd8Mz3THjb0AACAASURBVJJFsnlIuYe8f89/P7l5NhpbPUDcty/IXHMszMq0F0Zhklrfvn3D7NmesLXNj969U/erWPIAAp0mLl68iNy5c8PW1lbtTyarxYzfpFF4eDh/g75KlSocO7x8+TLzk/5X9snclE6fFAaBOkpqou/Np+WSHgACgYMjR46gRo0aMDMzE8xO2tO0/mXKlIGdnR0CAgJ4L6XFogMIaXFVftKkCCCQLTp37hwfCCwtLdP2JNIQdSkCCG+WNUPmcqXwPWMO/HMqBt17DVI4tX3bFqBNTTNEPrkJ/Sx1kKlST7XZMHToYDg5Oad60pY8gEC5EJRhXkjrXw9Tm13poiEZicDAQD45kveAjExqlePHj6N+/foKh6M1pv/J4/CrihCAQDxU5XEhL43UU6PpuaxcuRINGjTgHCGxhfi7ceNGjB07ViVAIFBO8/wV1z7VAQjkEaP5aYvvYnn9O9dXBBBIR5OnSncLTdzqawQgxOZqiM377sLAwFDh6NmyWqFpReDb3UMpAgivX7/G8ePH8ObNG4wbN17cbFNYWx5AoFMo0ZRWTzwpnHKqNacw1Y0bNzin5NOnTyhZsmSqjb1r1y60adNG4Xjbt2/HqVMnsWTJ0oQ6lwI/o7SNGUwNMqhNZ1hkLCxM9PH0QyQcsioHH0IAwtatW/DkyROl9FAop06dumrTrKyhm5sbBg1SfEhQNej06dOxcOFCuQDh2LGjKFy4CHLmzAEXFxfQdbZevXqhZs1aqrrV6O/VAQhPnz7lhOpu3bprlBZdZ8k5oAggUGjB0dERFha6937EyI1GAIKhQwfoZSqmctz4d3vw7c5+tQECGeNhw4bA3d0TBw7sx19/tUrVBdcBBJVLrHYFAgjXr19ngBAaGpqqAGHnzp1o27atXNq/f4+Gk9No9m4sWrSE8xVO+Idhy50PMDHQw5zGtoJBAskvnXzJExEbF4+h+1+gfG4znPQPw8q/7GFmpBhsCAEIajNfpiGddinko6pQCMHQMPGBYObMmRg8eLCqpgp/P23aNCxatEguQKC9t3z5UtSuXYeToG1sbLBy5Qp07dotVU+FQgHCoUMHERYWhqZNmyE4OBh79+5FgQJ2HDarXLmK2jzSNVTOAUUAgcLAxYoVS1V78TusldYBAiUrSkv8h1OIfHwK+haVkLHkX6L4FxEdh7N3nuDJ3RsY0bszHj59jlU7D8F5SH/kyqzYcyFqEBWVVQGEmKivWLh2J4YN6A5DObr+88e3yJApu1JDICUh4kMQ5i3dBadxg2FmZIArR7aheO22MDPW1+SU0kxf8gBCRPgn3LpxDdVqN2Q6Qz+8xuFz99CpleTfmirKAML58+dx/vw5lCpVGjEx39GseQu4nHiJiTVy48LLz3CwMlF5+pfSuWzZUrx8+RKzZrnzjz58jYHryZdY2MwOMttE7rSEAgQy7q9evZLbB+VZqHJzUx7BpEkTVLKWQnxFixZNVE+bAIGACyU+Tp48CVOnurLHjvJHyHXsWKUewqJioAc9FMluCiN9wV/5UTnPpBWEAgRa54iIL3j0yI/5tGTJYsyb58P5U0OGDE0UBydATO5vyrehfaCvr8/hEwKU9L86d/rpSji1lRZyrVO/v3tRBRDMM5nB7/5tnL16A0YWudC1fXNoxnoEw9fzMEZNSN28OG2vp1YBAm0md/dZPwFCfBxA/+tlgJ7eTwvatWtXVsDKyszTr5DV1ACrr7/D0V6OWH/zPWwtjLDqxjvs7loExlpUClK6VAGEd4G3sXXNChRvPR51SuVLNp1tCyfC7q8pqJAvo8p1/RhwFyM8t6Blh1boUKcCNs8Zg8ZDPZHFTDPirJKAVK4gDyDM8fZCfGQYxru4Ae/vY7zvFtz/Yon988dolDplAGHaNFd0796Dk+ecnEbB13eBWmPT/AYM6Ic8efJiwoQJyJzZnPuhj6aqAgdUTyhACAsLRUBAoFwaCxcuDGNj7X1vRVsAgQzduHFj+URO4GDKlMno3bsPrly5gmHDhiPwmwF23v+Av2+H4GQfR+Q2l9yG0UYRAhAo/Onr64NKlSqxwS9TpizOnDmNAQMGcp5F2bJl+TQrLfPmzUO7du2QL18+rFq1ir1UjRo1woULFziBluqLLdu2bcP9+/fx+PFjVK1aFT179mQQIq+QbNG1caIhvRdVAOH+haN4YeWIVmXsER8TC9NMZlA/SCjLLR1ASCY70iRFRSEGQsZDhw6Bp+dshXJ34sQJvt5E15yUFY+zQaxMdz/8hKO9imLz7RDExMXh2LMwbO9UCCYpiAUL3RSqAMLGOcPRsNcE7Dl4BgN6tUX32m3QxnkkPrzyQ/m/+uLw3IGwrNIHHStnxb8nbiOHRWbcuP8KwzqXxd+HHsGxmD3q1qzFBoMAwqTNj1Aw+hYa93bG7S1uDBD8713Am9dvcTPMEo2yvML2O1/QtlVbbN+wBPUaNYXJ+/8QYmSL6NAQxOYqifMb1mH+Bi9MGjIM3svWYP7KfzBmUFehU9ZKvc+fP/N1UFJYdCqkP8nTJC/EsGKeKwY4TZfQ8TkIzV22pAggvHjxAvnz5+erlOT6JZevIoBAhmnKFJcE+SUjRWChRIkSovlCJ93Tp0/xeJQnQIZNTBEKEMT0qagurQ1lfFMuiLzStGnTZOEFqicLEMhI3r59Wyk55M2gZFRpsqGiEAPRkiNHDly6dAF37txFv379OcTYo0dPTmrdcf8Dzr4IR3hUHGbVz5sIIJw6dYpvR1Dm+u7du9G8efMUJTcKAQjkzr5z5w6/0xIV9Q3lylXA4sUL0adPP+zZsxsTJkxMBNTIE0I3Nxo2bMi5MBRmo1wMX19fDBkyBKQjySvUqlUrUL7Mly9f0LlzZw6zHDhwAM+fP+fQVb9+/RLdHqGr1yTbrq6ufNPq7NmzqF69OvdP9LVs2ZJ/7+fnhwcPHmD06NEoV66cJkTol/WhCiDs2f4PevQbhHcvHuGe/2uUrVwdK+bPQOFilfE6OACDBgzBiDHj0bxxPVw4shvDp87D0b0bYGmZB/9dvoCho/tjyFA3tG3TAUULWeDVm/c4efg4Zs6dgOXeOg9CooUXAhBGjRqBdes2KBSYPXv2wMrKSiVAiI6NZyVQ0jojcpgZIjImDqf8w1HGxgzWmVLnVK0MIOTMHId2XSajeZvauPPAH77zpqNvo2FYcWwlwp7ewapb8XAI+hv2racBVxcje7V+yJ/LCtt8XVC3Qw+s+nsvKtdqgFoVSiUAhMn/PMbCoZXhs2Yvckc9ReOh7ji+ewNePn2BC2HZMKG2OV7mqI82lfJiwcb9GNmjKZzadYP7ti0wiQvBgIGL0al6PMLNCsH/W2bUbFQDwfcfoEW9qr9sA9PAlIy4YcMGODs7g4zCpEmT2HBqGyDQ/XUac+DAgXxXnxQ4JbopAgikzCkhlk6AVB4+fMBXeCdOnCSaf25uM0GGNXPmzAw61q/fKOo0LwQgkNEkY6GslC9fXlAM/OrVq3xil1fq1Kkj18jKAgQKVTx8+FAFQDBE+fIVVAIEAmpBQUG4cuUyG/vFixfD23su9A0MOX9j14OPmNvEFnfefEXJnBlhKhPfI5CyZMkSVKhQgU/zQ4cOFb12sg2EAASqT94NAkDW1tYMgN+8Ccbdx/6oWak8Xkab4HtcHMrbSG57UJ/0vkuPHj3Yw3Dr1i2sW7cOEydOZNop8XPcuHF8kCIdRGBz/fr1WLp0Kfr06cP8oPUisN2+/c/r41KAMHLkSCxYsID3Wffu3Rl8UK4HARLiCckk7ckBAwakiDdpobFKgLBtM7r0H4zQwEfYsmEtSrYeAV/vOWhRszQ+fPyEAU6jsWTRP5gwvAvuHlyMTKXbYqmHK4qWrYz3/vfQvHtPLFt5Egu8RuHQnu3we/oM5w/vxMp9e7He97cECC/jc+VT7zXC1AQIaUX4kl6Tkd5iCLhzAXql26JGXmOc37MGb3PVwe4RvTB1z368uXUEeiWb49W2qcjbbDIKfL+M/97boEnFvBg2eCxmznODlVVO7Fvphea9x8DQIAN7EAggLJ3QFuf3b4T3uoNYs34utqw/gXbNymLIgqMYV8sc7/M3R9MS2bFixwkMbN8Ay116ovHw+Yh5cwPLz37GnAFl0LmPG1YvnY6xLp7oNdgZFYr++oeB6MRCLk26YkgnIUVJipr2IBBI+Ouvv/i0JVWm8gACrWvHju3h4zOfXb/SQmGClStXixJHMpZt27ZGtmzZuR3NdfnyFaJeARUCEKhvOv0rK7I5QaImIaCytkIMNDQZQLoJQJ6fvn37cojmpH84vM4HqQwx0un82LFjvOYpLUIBAoVWyVPWtm07ECgL/hyNZhsf4Vz/4nj0/hsuBHzGiCqSb+DQnMhzQB4Cqvvff//xz8hrMHXqVMyaNQuTJ09mjw6BBapDwGfTpk0MIMjLQIWAgiwAkgKEmjVrcliLEktJPghYUP/UF3kVaLw/BSC8uHkKy69/xUKnLji8xQfZq/bF7JFDsW7bOiDqMzJlssDsRAChM3b9sxxjxkxEeOAT6FuZwMX7IHymD8QMr2WYMLgNWjVsjL9PHvhdAYL6LynqAAI4EYiuOVKEI1deW45nfY/4hCdvQ+ExYi6c3HojLt4Y5coUx7dPb3DnyWtULF8a929cx+c4wL6QIzIjDLcevoBlNmsULViAN/v3b+F4GBSBkg65EPf9K65cuYnyVargyb2biI7TR4yxORyyGCAqY07kNDdCwOsQ2NpkR0zUF1y/cR/6JqYoWaokKDH+waPHcCxsj2vnzqJ4lVqJTlgpVZgpaU8hKOmjJYoAQsAzP9jaF5YMExOJK4+CUKl4yj5a9PXrVz69S5O25AEEUs5z5nhi/vyFiR6/WrFiOefLUHxZaNm/fz+/KkoucSoUYtiwYT1mznQT2oXgHATBHSqoSCewGTOmqexm6NDhoJwG2ZIUIJArnJ5Gl1cort6mTeKbI8puMVAf9D5GpkxmsLMrwGGFE8/C4NvUDsYG2ktKTEq7EIBAxvbZs6do374DN3/w7hsno/o0zQ/DDHqYfuoVXOvkQU4ZzyflHlAoYfPmzRxCIMDg6enJLn8PDw/2JlCIhMID9KYCeQAIINCpnzwCBIAoyZG8VNIiBQgEIJYtW4YpU6awHFE+jbu7O4fKyHtLr0KSJ5c8DOm9qPIgWFiYI8DvPl6++wRTMyuUKFkc0aFBuPfkJYzMLFC2ZFE8eR6Egna5Ef7uOQzM8yAy9A0ePn0F40xWKFPcFg+fvUPxwrbw97uLD5/jYGb0FQWLl8FL/3co4JA89yw981SrSYpkADQVYkgLTFaVg5CYxih0bz4Gq/cvgvZSptICVzRDQ1q75kguYkoQS/oeAyl+imtTHFxo2bZtK5o3b5GQjU4PGs2bNxdOTk4wNVWdsErjCPUgCKVJG/W06UGQ0hsXDxx6/AlHnoZidiPhV0w1NV8hAOHChfP48OEjx/ipeJ4N4gTKinkywcxIHy2LWKG+feL7+BQeoFcoKQRAhYz+8OGSPJWDBw+y4SdgSx4DusFB4R/yiMyYMYPllIA2hctkr55SWIbASosWLXDy5EnOQ6AESHoLg95maNy4MXbs2MG/pxAEhY7IO5Gei2qAoHsHQcz66gCCCG6JAwgiOtZVVRhiSA3WKLvFkBrjCxkjvQEESpoj0KesULiD3oSQhj1UeRCor5dh0Rh3JABr29inSmJyUvqFAARqM3XqFA5N0fPhxYoVx+iDAWhW2BL17C2gSX+HbIhBiBz97nV0AEGzK6z3OkCXgyCUpYqeWiakrntJUSgX5dcjY0LJWZSsSK/klSpVKmUdimhNrluK/6blkh4AArmt+/fvzwafboucPXtGKUsJHLRq1TrhbQZ6iZEy95V9i4FSLGLi49lV/yuKUIBAYQAKFSS8bxAbjy13QtC9dHZokvS0/GGrX7E+igACeQSLFCmieyhJ5KJoBiAUaAU9s8TxSKIjNPwrRo12StEthlevXrLBkBZr61y/7Etv8gACnZToDnF6d82JlBuNV6c1Jtc7JYFS4hS96a/NhDrZCdB9c3K7puWSHgACucIp4VSdT7BTQh89h9ulSxeV32L4leskFCD8Shr/5LEVAQTSL7R2sgnHfzKfhM5dIwDBwCqH3PFCUQxOrmtSBBDmz/dN+NAJnR6uXr0ML6+5yJUrl9A5aqyeos89UzIQCZ+9vb3KLHKNEfMbdUTGgR51adKkCV95o9MnbWhtb2Y65VHiGyWCpfXP96YHgEAZ8nT9jl4OFPM1R7pZQvfyCRyQV0H3NcffaHOn8lQUAQSSTboxRQmauu8xCF+UFAOEmLe3oKfgI03fS/XF5H8epAgg0PO0lA0sfUyH3PmyX9ajLFx1niIVzqKfNRUBBKpBSk5VzFWdMf+ENgQKaA1lPQbEz+joaK0CLmkMXNXzw2lhDdIDQCA+SV3r9KfQQtn39AVI6TpQ21/xpUYh9Oo8CEK49OvqKAIIRBGBBEr0FCObv24maWPkFAGE2PA3iP/+TeFMPn2LR7+hI9G/v+IHOMg9X7VqNYUPJSUFCCNHjuD4NAEGir9dvXqFH64pXlz863Zil0AZQBDbl66+jgNiOJBeAIKYOaXHujqAkLZXTRlASNuUp03qUgQQVE2JTtT0mVxVpXTp0qDcAnlFHkCgp0rphTJ6qY0eD6EX5AYNGswvjWmz6ACCNrmr61sZB3QAIW3Ihw4gpI11UESFDiBodn20ChA0QaoqgLB27Rp2TdIzuH///Q8/G6qs0AMjHTp04GQ4eqOcXiijuKeQogMIQrikq6MNDugAgja4Kr5PHUAQz7PUbKEDCJrldroGCOShoFcMqaxduxoTJkxSmYBCz97Ss6P0kh4BhVq16ONIwq5M6QCCZoVP15twDugAgnBeabOmDiBok7sp71sHEFLOQ9ke0i1A+PghBMHBEnBQvUZN0CdTR44cpRIgUH36Vjp9C4C+bCam6ABCcm4RSNPmJ4TlrQ/delDlKRKzrumh7p8EEMgIi7kFkZrrpwMIqclt8WPpAIJ8HU1Jv9Kn5cVwNd0CBAoR0BsEVCjEQG++CwUIYhgkW1cHEJJzjq4jpvYVQXom1sHBQd1lTJft/iSAoLvmmC5FNE0QrQMIyZeBvOZ0S4ie5BZb1AYI06dP5/e86eU7iuMrO9GRIafrierca/fxmce3FQwNDWBrm58fJaIkxW/fvuJDSAjPlz6e4z3XWwcQxK6+BurrAIIGmCigCx1AEMCkVKii8yCkApNTMIQOIKQRgECfXPX29sajR4/42+X0RCopMTpN0iNG9JVD+modPUoRGBiI7du3g75LTk8SE7CgU78QwEDhAHqylAq5smfMmM4fGbG0tErEid27/8XUqa6CQgzqyp/Og6Dag3D69GnY2ORCpkyZIXlA6gvLA7m43rx5w4/gFCtWDPb2DvzhGHWKEA8CPdt85MhhdOzYEfnz26kzjKg227dv48850wdvtFGEAAQC0l+/RigdnvYNvR2iqNAd8ZcvA1VOgW4dKTuRkCF99+6t0n7I5ZknT17+CqFsSepBoPvr9HXNmJjvSvvLnj0Hn5QUFXpbQxqWVNYR0ST70SPZusoAwps3wfwxJVn+0uugRoaG0DcwSOiG5j1ixEiVPNZVEM8BdQACnbCfP/dHxYrCv9AqljJpvhzdvpPdN/TRLZIHZXIrdqyk9RV5EOjhwW8xcchomHj/vXz5EkePHoGjYzGo7UGQAgS6ZkjfLK9RowayZMkCMhDz58+Hi4sLHB0dQV90LFiwIH9OdPDgwbh27Rq/kkeMoa+ViX0R8fTpU3j/XuI5kC3GxkZo3LhJwmMrKWWqvPZiAEJ4eDguXrzAj3NkyZKVvwqojouH6JA8Q3uRnvpgY1eoUPJnrZXN98GD+8idO08CeKL8C1obTZSkHgTqm9ZbWmhjkMDJhgT8/Z+xMVU3NKEKIMTGxnAiKj2f/P17DNq3b6+JqSrsIy4ujkNc9Cz4okVLkhk8TQwuBCDQ53/9/B4pHa5mzVr8jLWiQoCcvHaqSq9evfnlUEWFXqikr1gqK2ZmmTBq1Khkt4iSAgQ6bCxYMJ91ibLStm070JVpRYVe6Fy9epWqqbEnkkKY8ooygOD//DnWb9yEcePGJzQ9fOgAHIsVR758tgk/8/R0x8xpqj+prZJQXYVkHBALEAjE0k04f//nqF+/fsInujXJWgLuU6a48OfR7969g1mzPNjzTrZh5szpcHIawwcqMYWA53//XWNgUaRIUaW2RR5AoK+innkRhhPPwuFWP/FBbfPmv9GhQ0csXLhAfYDQqVMnTvYjJUGfHCUiyJPw+PFjbNu2jb83niNHDtC3yIlBa9asYQ9Ct27d0Lp1awYJ5BEg0JBeyv/YuwqwKpPv/V66S0BCARW7uxvFAhVMsLvXtdbcdd1d11xjTQwMTEAUMbEVu1AsVEJQUrrr/v9n8CIgcS981+X6++Z5eNaFmfnOvFPvnHNmjiQEgXAYP34s/v57NUi7QZsHXcMsi6MIvf514oQ7eya0adOmUFNTlwiy9evXsZCuImJBz1fTIshFKkwQ6P/pEStRIvMSaYDyP29K5Imc0MS9XlpYztIIwp49u1gYZYoJQGNPr35X1DTSgJme5DY4cTCiQDB0eqSNjcJAS+NlT3EIgjiyykIeWfVB8I9Mgt3+p9DR1smDOSU1hR1aFOS/ahC0hUk4M7mNLHSFzMkoCUEgjdLMmTMwefIUpkHo3LkL27O4TnR4sLGxZZpTeruH3u2ZN28+vLxOs5cdaTOWJNGBZOLE8Ux7TzfwyMS+deu2YqsoiiCceBkDrzex2GZT7ZuoqEQMpk+fgY0bN5SdIIg0CKROow1g+vTpTHNAkfHoTXVSKd+/fx/kq3DgwAHs2rULc+bMYQSB4sbTRkllDQwMJMHmP81bFoJw86YPTp06CXrPwdPTq1jVZWkNo0E2btz4Mg3g70kQrl+/jnbt2uU1h0wMZGpo3frrgkhaJDOzqky9XJZUEkFwctrJMB4xYiR7ZfPNmzf458RtBJr2g+8fPWFpKBm5Kk0+IkAzZkzDsmW/ITo6Ci9evMTw4cNLKybx38UhCFevXsXHj6Hf1E1EnJ4rFzfRyYbMMzTei0q0oEnyPDWNf9KCFU5EEG1t+39TV3EE4fGnZNQ1VIWqQq5K9OHDh3j9+lVete3bd2AkurSUmJGNyKRM1NBTYc/uenp6FjDNkEz5SW7++krSILyJTsXS0y9weERjvIxKRVUtJWgqy7PiAbHpqKyhCHVFOQw98BQnxrfMN0eSMX/+fKxduzbv9gato2RWmTFjRmnNEfvvtAaTOady5cro16/fN+WI3NNaTXnohDplyhTo6HwlO0V9iPLRHCtJcyO2gBxklIQgkAl848Z/2PX4Z8980bfvt5hwIBKWLFmEmTN/Yo/70bV80mLRAe3PP1dgxYo/JT4okdxjxozKE41Iwo4dO4t9TbgogjDtdCBeR6Wig3lBzcWCjiY47rIPo0aNxvbt28pOEObNm4dly5axkyG9mU+agGbNmjF/AwrbSgONFs/AwECmTaD8pDkggGhAkXp5zJgxUjltcdGpRdVRFoJAp1jqIAowRaf/siRijCNHOsLJaXeZrn+VlSCQ+YjMIrSQk/8AsevC9uLCGoTTpz0ZEycCSItpbGwMC+Pco0dPNk6ItdOiXrNmrSJV1DRmaAxZWFiw2BaEeeHogMURhGPHjrLvjR8/kcFMxPXTp4/YuGkj7mj3wUrHdrBtYlRkF1A7SF1HmymNUZrMhdtaVEEqt3z5r0ytTJqRX375BW5ublBRKV5bQRswtYFe/qR/0+Zfq1atEt/jEIcgkCknKenbjZj6QlKzVFBQINskikpUlySaMGprZmbGN1XRIaJ69Rrf1PWNDwKAe6GJWH45FBv6WLBQz2Y6yoiNjkRMzNdIryYmpiX6IKVk5uBTQgZSsnIw0ysQ222qoY6+CsjkRWYMUSKZiru6Kw5BWGpdC3MvhOJvK1NoKuUShIf/T26O+cVgd38LTHX1K0AQyNxKB6xBgwblhR0nwkBjg/y8yMGbtLWkliYzLplKSA4aM4QVzSvCUhRynjYQInCk3RX1E80FIhtOTk7MX4wOeDQvu3fvzuSjeUeEgMZvfnMgjWmaj7TOk88QBVWjNYHGBqnMieyfO3eOlSWzDPU1EXQyM1I5mkO0fonjbybCn/IHBAQw+alfaD7SeiBOkoQgpKenMRPX0KHDmK+UuASB1iVa02ldIuJLMlK/FJfc3FzZi7/9+/dnvni09pGpgfZDGmuSJurLUaNGMO0okQMaJ5MmTcbo0WOKrKoogpCUkY1xJwIwp70x2lTN9duhQyxpQOnRwQsXLrD9qsw+CDQoaSCIHhmiASYKskKDkkCj39FEozyiCUhlREGNvvf9eUk7onD+shCEU6dOM1XSvn3OzMQgqc8FyUCnwiVLFpcY9KqktpWVINBiQAvV6tWrsWHDBuzZs+ebTawwQbh79w7zLyATAtnDaXDS5GjZshX7N5laKNof+VIUhQUNdvrm6NGjGcns1q0bi/KYPxVHEGjCkE1v1arVUFZWQVpaKhYu/AXLl6/AltsxsKqnj441KxUJFZ1G16xZw27kbN++nf2I84DWmTNnmHlBZLOmp8VJe9GixdcTYlEfpHc7qAwtoLQIkymupCQOQSjv+K4o5QsTBLKXTjsdgI8JmehskXviGdPMEPpqX9X24sj+IS4dx/1yCQWpWO3r62FuexNxiublKY0gLDn9Ao3MDXE1MBG9amrnlUvLEsLFNxr7BlbD+stvvyEIZJal8Uu+W7TpkvaVDlerVq1iB6wJEyZg7NixTNvh6OjINnmaB+TzQ9oA8rOhOijkNm36t2/fZtrZvn375slA85h8wYgk0PwkjdO4cePY36ldzs7OBTQWtH7Twe+vv/5i2g0iD/QdZ48zCgAAIABJREFUOgASaaEy9JYMaTto/P7888+YNGkSk6tt27ZMa0yb6MiRIyU6CNIasHjxYtauy5cvo0GDBrCzsxOrnyQhCFQhzb2VK/9iB4s1a9aJ5eRO7abN/t9//2XrImnJS1rXifCQFpV8Bjp27IT4+Di2Ac+dOw/e3hehpaXNfPjEOZCIQKA6CBtLy5qYOnUyfvvtd/Ts2VNsgkAZ07NymGarroEqW6OvXLnMNHokL5Ganj2ty04QxOqtHyxTWQgCmRiI8Ts6DsfevfsY65Y0+fj4gBwNSwp6VVKd1Nnk4EXskJj/8uW/YfXqNWKJ8fjxY7ZR04Qtyj5XmCDQNVSa0KJE36OFLr9TJGkQSM1paFi5SBnILkcLZZcuXWBra/tNnpJMDBQ2+PBhF8yePQdr167GxImTUadOHZx9HoGWFjow0FQutt137txhiyx9WxwHSiK9U6ZMxsaNm/Ku+dJEc3E5iJkzZ5WKLy0wNBlnzZpVKhkRhyCQ7G/f+pf4XVLDE67FJZJ/27atpcru4OBYojqfNi4PjxMl1kObFMVQKeyLUpSJISNbiM13wjCttVGe17W3tzczI4lS//4DCoy94j4el5YFV78YjG1mgJysTJBZik7xokQyFdf/pREEMjG4ODaC06NoDKqnm0difD4kQUiPuplpfGNioG/TyZJO/XRqo82YSDKFzqZF38vLi220RGI3b96MnTt3smfiaVMmZ1w6nU+cOJGNW9LUtmzZktm2SSNG/0/pyJEjTCtGWisiAjQnyClPRGypXQcPHmSaAFEiTS+Zhem1WRp/ZDomckCEgDSK9Gz9ggULmMZs1KhRTANCDrC01tA6R/OUCENZbivRAZQ2XnLupptI4iZJCQLVS5o3WiM/fAjG6tVrxTKfkeZg0aJFjKwRGRI30SGaTAu0PlA/k7mOiCFpFPI7t4pbH833adOmwsPjVLE3IUp7B4FkogMo9R/1Kx2M6ABHFwLKrEEQtwHfIx+xQNJGSFsjURaCQCfgoKBgtuCsXPm3xPYmWmiPHj2MSpX0mV2opCtqxWFNav01a1YzNSQxT2vrXujWLVe1WN5UmCBcuuTNTAyiRBOJVJnEkEWJbnfQABSpRCWVoTQnRT+/5/j775X4448/81R4mdlCKMqL96S2uPJERkaC2kubZf7k7u4G8qjnMolDELj83n9Zl6w6KZIPwkTXFxjW1LRE+M69CMfp8V/NjSKCQI7EtOnTRty8eXO2AdPGSwSbTqxE3mj+k1aBiAHdHiMCTZsoLe5EOEXkgbS4Ig0uCUOmCvL/IpJAJoHdu3fj6NGjbE0QaXhJW0D1komBZKIf0nTRDxF9InREAEiLERYWxrQYtImTc/rkyZOZNoK0jER0SFNMJmhS4YtDtrkab2UlCOSDQDeeiGyRqVxaaffuXexGGfnK0HViMr2SRt3efiCOH3eTSNNCMpLGlMyZ8+cvKFbk0ggCEZRDh1zYbYrDhw8zbQqR5H/+WS/7BIEmDalYiC3v2OEk1TjykhAEaQ2wstRLp9SikiQqreK+W5ggkAcsDS5RIsc9UmuOHz8h73cHDuxH06bNyjwRvyUI5//fSl3QDFE8TnsA5KpVy5wWLQJWrSq9ON3vf/MG4ODVR3EIAqlm6YeLvi5uzFDdko4bSesqiiCUVIeovbTRlWQWKgmf/JiV1L4SrzkGBDDtEYWfF6WzXqdRv2FD9sibKP355x/4/fcVef9PGzGdwskvgG572dvbMzKwdetWdspcvnw5U0mT8+/69euZKYxO7nTyEznE0s0Zuk1GGzmRCiISRBjIT4ESbQK0iZNtn/7bpk0bRhiILIjs+1SWtFm3bt1iGgDSNJD2kpzKiTQcOnQI1tbWbD6TXwA5pdMPmQNJ80F/Iz8H8lEgEkHkgeqrqASBMBGZu319ffH06WPmsFjcGxilT/iSc1B/0cFl2bJfmXaFTLDk90C4Dx06GO7uHmJ/m7SXq1f/zebi4sVLS/ywOASB1mQiGceOHWHPCEydOq18txjKC1Z5ypMKlCYVbTrk3T9o0GDQ1batW7dLfEKXRA5ZJAh0gqdrNYUTTQIuTrmFCQItcDT4RYkWZZoY+Sddrmp+Son36EvqF54gFI3OjRvX84KX5c+hpKQstg2XylGfkWaE+raoZGdnL5YaVlT29OnTzAmscCKNHy2QhW9EFCYINH7Onj3D1OYlpTZt2pbozEYaH7Kzlpb69OlbplsMtPn+9tsytGz59cGdkJBg6OrqFbjn/v79O2zatLk0MUr9O61HtBkTaSEfBTJTSFuLWqpQ/3EGSTQINJ7OnvXCu3fvGSEjstWkSdkcyUtrNo1hMgUsWbKUaU6JmCxduoRpEmhckr0//+2v0uojkwg9ZERErjSH4eIIAq3D5GdGGqhff13GzL6tWrVi44kIIJEPmTIxCLPSEXz2Hzj5RKNHr76M0ZL3pqcnOcnMgImJZA5HpXVC4b/LIkGQtI2S5i9MEOj9B5pspSXySShrwKVvCQI9IlW6zT9XpmUA+pcmXsl/37IF2Lev9DpIg+DuDpTxxcj8HxBHg1C6QLKRQ1ZNDGTKoxsEpSVVVRXmXFbeRNcgyUxASWQ+KG+dsl5eEoIgaitpEsiW36HDVzMo1zgQISBftPw+aKQVe/eOXhvWYZuztFJxBIG+T+Z5uspKWgxyPCVNEZmmyE+MxijnBOHmzZuMxZLKibxYyS5V1gdxRIAJszOQnRiJGI95UDRrjavxZuxBphkzZmLiRNIirC6zPVuSTuEJwrdo8bEYJBlBZc/LE4SyY8dlST4WA5docl9XWQgC91JUrBpLMzGUJC3nBIGYEtnMaAMnlQ05z5Qnpb48hxjPRVCp2xtqbcZBQc+CqUDprejHjx8xh7u7d++xVxqlnXiCwBMEaY+x4urnCcJ/hXzB7/IEoWL0Q3FS8AThW2QqFEEQiUf3eMmeUd6Uk56EqL1DoWDaBMq1raBcvT2A3MchyC5J9jwFBSWeIJQX6DKWJ9VUWWNMlPGT7NGYkh4mKWu9Fbnc/xJBoGtypb3g91/1FU8Q/ivkxfsuTxC+xYnGrOhmiXgofs3FuQZBUgHEzf9pbQsgJw45mUKoNhwElcb2FLsIJ/b/i0G/OH2XTYrXIIjbW3w+rhH4XyIIXGPHZX08QeASTe7r4gkCt5jKDEHIig1BhFMvVLIdBWFmBpIeXkFGZByMf7oGOdWvL5ZxC0/B2niCIE10+bpLQoAnCBVjfPAEoWL0Q3FS8ASB2/6RGYJAzc4IeYSoQ8OhUq0OslNVoD98L+SUi4//zi1UYHEBigsDy/W3+Pp4BPIjwBOEijEeeIJQMfqBJwjfpx9kiiAQJKmvvZH29ip0+64A5CR7i728kPIEobwI8uXLigBPEMqKHF/ufwkBXoPAbW/LHEHgtvmS1cYTBMnw4nNzhwBPELjDkq/px0WAJwjc9i1PECTAkycIEoDFZ+UUAZ4gcAonX9kPigBPELjtWJ4gSIAnTxAkAIvPyikCPEHgFE6+sh8UAZ4gcNuxgk/BH4TGZlW5rfUHrY0nCD9ox8pAs3iCIAOdxIv4nyPAEwRuu4AnCBLgyRMECcDis3KKAE8QOIWTr+wHRYAnCNx2LE8QJMCTJwgSgMVn5RQBniBwCidf2Q+KAE8QuO1YniBIgCdPECQAi8/KKQI8QeAUTr6yHxQBniBw27GcE4RXr17h0aNH6NChA4spTTGur169is6dO7P40vnT1KlTsX379jK3iB4tefr0Kdq3p/gM5U/Pnj0D/eRPffr0yXv3nycIX5GhoFwnT54ExRSvXr26RLHMy99TP14NFAr21q1bBRpGc6bql1DRPEEof58nJibC19eXrU2UDhw4ABsbG1DY20qVKpX/A3wN3wUBFxeXAt+haMGioIAVlSBcvHgRPXv2ZHK/fPkSFO5e3HThwgW2xtasWf4Q4eJ+U5SPU4Lg7OwMXV1d1KlTh8WUJoLQo0cP0OJGDRQIBAXks7W1haenp6Qy5+WnCX/37l32DS7Sli1boKmpWSB0dPPmzdnvKPEE4SvKsbGx2LZtG4YMGQItLa1S45lTrPEjR45g3rx5XHTVD1fH2bNn8fDhQ3Tq1CmvbQ0aNMh7uZMnCOXvcgo/HxgYiJUrV7LKNm/ejIkTJ7LAb2pqauX/QDE17N69GxMmTJBa/f9rFdeqVQv//vsvlJWVWdMpEBEdREVrNPWlNPuzLHjTXjd27FgMHDgQtE/Sv8VN7u7uqF27Nmg9+N6Jc4KQv+He3t5s8/7555+xYcMG9O3bl532aXP5/fffGeuzsrJCSEgIVqxYwU5QpG3IysrC7NmzER4eDldXV1DEQCrv6OgIYov29va4fv06DAwM0KxZM1hbW3OCGxGELl26IC0tDTVq1GBk5/nz52jYsCFPEAohTH1IC+6IESMYQaA+pIFPxHDkyJF49+4d3rx5g7CwMJCmiPr11KlT2LhxI+rXr89Jf/1IlRBBSEhIYPODxh+dFkg7RicNWgB5glD+3l6/fj2aNGnCDivVqlVjBGHYsGEMdyL/x44dg7GxMdMm1K1bl43fe/fusXWnUaNGjBDTOO/YsSMoWi2ROVp7/v77b5A2s3v37uyHvkP1tW3blmnYDh8+jNGjRzMyzafyI0AEgTRBtAfQ/pKRkYHg4GB2MK2oGoRly5YhMjISv/32G0gjMGrUKCxcuBBr165l7aA1cd++fYz03Llzh0VCpvH3119/sbXT398fnz9/ZmOvTZs2bB1NSUnBpEmTWL0vXrxA48aN2d+5TJwSBJoIDg4OefIVJgj9+/dnamkiAhSylxp5+fJltvhduXIFSUlJmDNnDpuwbm5uaNmyJTNB0EJJ5RYvXow9e/awcj/99BPi4+PZRBWpbsoLjIggUPjicePGsQ2NFpFff/2VJwhFEAQieaSupcVz5syZedogUtvSwDUzM4OlpSVbIOl3Bw8exNKlS8vbTT9keRFBoDkyfPhwrFmzBnv37mWLCIU+5glC+bqdCC2NPQsLCzx58oSNyfwEgdYhGrNkbqBxSuOWFmkFBQVWbsGCBQgICGAnUzq00IJP6wWNfy8vL3ZYIfPqqlWrWP2tW7dmmxfVS/lmzJhRvgbwpfMQEBEE2mgJX5ojRO5o76ioBIGIwZIlS9hYoINnUQSBDlw0zmivIxJL5DIqKoodGMjUSPshHbJpjSDtuUizbW5uzoiBuro656OEU4JAWgA6PRI7p46iiZJfg0D/pslEnUlsZ/r06Th9+jQ7pZP5gRZJ2owJFPod2WpmzZrFTqkE7D///IPVq1ezPIsWLWL+AkQ0evfuzQkwIoJAqhw6AdMiraGhwb4rUl/xwZpyoaYFl0wG06ZNY/9PiysRBlpg6URFmhhi9CYmJjh06BAGDBjANA40Rvj0LQIigkAnWhr/pAansb1p0yaeIHAwYH755RemeTQyMmInfNpUaKMXaRBoHaIxTBqCGzduMNJLmzytS7TWUP7Q0FBGGMgsOn/+fLYmkcbg9u3bbJ2jAw5pHuk0R5rNrl27stMf9SEdaPjEDQIigkCnbeo3OoFXqVKlwhMEWh/p4EsEgPxfxowZw9ZE0rySNp2IKWnbPTw8GEElYhAREQHy91JUVGRjjTTrNK6IDDRt2hTy8vJ4+/YtW2+lkTglCLSg0QmfJgpNGFI900Qj1QmBQfYXshXRpkFqO9rs6bROjSc1NJ2SiNlra2sz2yCp93x8fJjahWx4RC6ILNAEPH78OMg/gE4E9A0uEtnJ6bRGTpak/SATB8mybt26vE2R2B+fwFSqpAkSmXdoMNNCSOpwIg1EDk1NTRlbvnnzJtPyEI52dnb/ibNNRe8zUh+SeYZODTt27GBaNFocaAGhkwJtXCKHxYreloomHy2wRPbp1E+JNnpao0gjQCYdMmHS+KW1izZ2+huRAzLzEEEggktrF/URLcgPHjxgp7hz586xdY7KUV/Rv1u0aMH6ik6Ay5cvZz+0/lWuXJmzg0xFw/d7y0P7Ap2mybeDsKaDJNn4yYxDBxfaU8gUXZESHYqHDh3KRCINOG30NI7oYEAHKTrkEjHt168f04oTkSXTCWnJaU3w8/NjPn2k2aZDKmnWaZySJoL+Ky2zrSDkfYDQqGoVKCgqSh1P0i4QS+ITjwCPAI9ARUKAFl8yE9DJjrQA0jqRVaQ287LwCJSGgCAs6IMwOTUVFjVrMHYszZTf4U+a3+Hr5hHgEeARkAQB0hbSaZROn+QYWvhKtiR18Xl5BH4UBARRoZ+E5A0pp6iAyibGUFRS+lHaxreDR4BHgEeAR4BHgEegjAgIPn8KF5KNIyU1FampKdDV14eefiUICj1qVMb6+WI8AjwCPAI8Av/jCBR8Aed/HAwZaj4jCDlCITIzMpCUnIzsrCwZEv9HFVWc6SSEAOLk+4KRKKuwFMwkqPJHRZ9vF4+AdBAobfKV4av8fC0DaHwRcREQxIZHCuklMbqelpWdzRMEcZGTer7iZj4Rg/xJghWCsorWKAmKSb2p/Ad4BH4YBKRAAkrDpoLP5QouXmno/k//nREEEQKkScjJzmZPj/JJthD4OgklnI4SZpctVHhpeQS4RqACr40yMpdlREyuB45M1leAIIhaQASBJwmy1Z+lT7oScnzzJ17NIFu9z0v7fRCooOSg9Mn/feApw1dkWPQytFbWighRJEGQtWbw8hZEoNRJV8AfoVBuQWFyUNSiWOoX+C7hEZBRBCooCRAHTRmcljIosjg9IYN5ih73jCAoa6izl/HkFRW+ibgogy2VWGTyv8D/PxGsrKiEzLR0icsTtEI5AeSVFH8szUuOEMLMLMjlm8WkWUrPyoSCsjLkFRQkxoovwCPAI8AjwCMgGwgwgpCak8WimP0vJ3rmNiosHCqKkr8DkZ6TjcrGRj8kfPRGRnpiIuQEcqx98cnJqGJWFXJSflTrhwSTbxSPAI8Aj4AMISCI+vhJqFvZUOqvKMoCJvSamopA8tcklTU1oKqmWmGbePDgAXz+HIPHjx9h715nFnBG3EQag7ioaBA9oH8rqatBTUND3OJ8Ph4BHgEeAR4BGUVAEBn6SWhg+r+tPRD1HQVcUWZbYcGUlZWFyKhIGFU2+uYJVjIvqGppQEX1K0Gg+NwULISCVRVO9OY7BeIoz1OuFO2PnoSlSJOlJYotfvnyJcybNw/37t1H586dSytS4O+5BCEKchCAbrmo6+hASVlyLYtEH+Uz8wjwCPAI8Aj85wgUIAj3Lh7H2Dl/Ql1VCTUbdMKOnWugpaSAnOws3DrniYb97MBiGQpzEB3yDm6nL8CycSd0bdcI8vkN1f95s8omQHEE4UPIB0z/eRb2bN8FQwODghtoEQSBosdRpC6K7JY/qhhFq6TIcRROuqyJZKSYFhTys6TYGWQaoGiL69atwcCBdhg5cpRYhKKwXDxBKGtP8eV4BHgEeARkG4FvCMLu+8nYvnAErrjuwrFXiti91BYTJs1BSlwGVp50RTUAL+5dxArnu1i1aDRueR1GpF47zB0u2cm0IsJWHEGgsJtEEszNzFlo6vypKA0C/Z3Cxz58+JCFoiZNwrt375iKniLFlVV7QCYQClFLxIPCKpeU0tJSWdjQZcuWYu3adWjatNk3sovKMydN4Bu5EhMTGangNQgVcbTyMvEI8AjwCEgXgW8Iwp4HqXBaMhoPzx/GxkuROLhqAsKiUnHt8L9oO3cFIwh71ixDy/GLIPfxLVQqGcKygpsoaAP899/NGD7cAYaGhgxROslv376NnawpzCul4ghCYlISbty6ge5dun0TZ7w4gkD1kSaB4njTJktmirp165ZIDkjO6OjoPBnzdz3J9vbtWzRv3pyZF8RJV69exc6d2+Hichhubq6MtNSrVx/Pnz/D+PET8qpISEhgGo+2bdtCTU2N/d7f35/FHyeTRFxkFOQEvIlBHMz5PDwCPAI8Aj8KAt8QhCU7PdG1WQ08fvgaf+50Rl3D3A3j8Ppf8wjC2kVT8DElBYZmzfH83hUMnv0P7NrVqNCY0Aa7adNGLF68BMrKyli/fh1q1qwJe/tBeXIXRxA+fvqIhb8uwYbV66FfqVKBdpZEECgjmRVoo23ZsuU35KIwYEQQ7t27BwsLiwK3SkRmBdqsC2swSgJ90aKFLHQtkaCoqEjY2+eaGjp16ozatWsXKCoiCR07dgRpKoiMdO/enWk9eA1ChR7avHA8AjwCPAJSQeAbgrDjViw2zh0GZWVVqKh8VWPnJwg7/lyIDrP+QAMtRYT4XsHkNZdw+tBKSO7/L5U2FVtpaGgolixZBDU1ddjY2KBPn74F8hZHEGjjJm0A+RMIBAWf9iiJINAmSxts1apVcffuXUYSSnMspPxPnjxhWg0qJ9qs6XQvye0Dkrdv3944eNAFxsYmoIidtrb9sGLFn0yOolJMTAy8vb2hq6vLyAH5OPAE4fuOUf5rPAI8AjwCFQWBYk0M+QWkzeb4pt/RZuYyVFdSwqPLrth1Oxarf3bEFdcduJNkifWz7SpKm0qUg07zb9/6o3PnLt/kK44g0A2Gzdu3Yv7sOdDW0hZLgxAYGMhIRa1atZhZgfwYnj17BktLS+jo6JQoIxGSFy9eME0HmRyaNm0qtllBVDF96/fff8OhQ0dYHWFhn3D6tCeqVjVD/fr10a5d+yJlIL8DdXX1PFMITxBkYljzQvII8AjwCHCOQAGC8OrhNZx9nY65I6wLfOiPX2bB/1Ms+92wab+gb9t6OH/qMFw9LsKyaVfM+2ksCrrucS7nd6mwOIIQ/Tkae/Y7Y/L4idDRLri5F6VB+PjxI+g0TrcV8msciDDQxk1+BKU5KhJJePr0KdvMiShImvbv34eIiHAsWLAQmzdvYt8bNmw4Iw2///4H9PT0xKqSJwhiwcRn4hHgEeAR+OEQ4N9ByNelxRGEknq9KIJAmzsRg8LmCKqH/lYaOSjPKNu/fz/TODg778W6deuZmSC/PLThFyVXcd/kCUJ5eoMvyyPAI8AjILsICD5/ChcqqKsW+aiP7DarbJKHhoRAQ0lF4sJyKkrQ0i5oepC4Eo4K+Pr64tWrl8yEYGZmVu5aiSDERkRBXiBg/gg58nLQM9Avd718BTwCPAI8AjwCFRsBFotBTlWZ3asnVbYkp8uK3TTxpaMTNl17RHYOMlPTxC/4JWdmTjY0dLSLdGKUuLIKVICuZsbHxkIh95kEltIyMqChqw01dfX/ybFSgbqHF4VHgEeAR0CqCOSFe87OyUZKejqEXx7NkepXK1jlpIZXU/72hoIkYpKpISUtFRT06UdIRBRVVVSgKPft3ZQcYQ5S0tKY6YJPPAI8Aj8QAt81/nL+0PLihNkui3Di1PsD9R/HTckjCBzXy1f3gyFQlqlZIgScV/iDAc43h0fgeyNQrjlZ1o1Y9NHiyhcl1Ld5yyX698ZZhr7HEwQZ6qz/WlROJyGnlf3XyPDf5xH4QRAo17wsD0koa9mvuJdL9B+k+7huhiA2PKL8PcMfFbnuF5mqT6yJWThTUaNOrIpkChpeWB4B2Uag2Dkp5W2jjKjxS0gZgSum2HcgCKUJzHdpaQjJ2t+L7FG+m2WtG3l5/ycQKMNGL8NzWYZF/09GoyAuLq4MI+Q/kZX/KI8AjwCPAI/Af4iApO+o/Iei8p/mAAGJCQI9GUwBg2TtOiQ/sDkYLRWgCmk/NCWNJsri2JM1mWVNXhpnsigzP/+ksUJ8W2dFGRsSEQR6p59eAaSQwLJGEGRxYH+foShbX6FrpHQtVZaSLI69irJAidvPsiYvtUsWxwU//8QdkeXLV1HGs9gEITk5mQUcogeVVFVVpfJc8IcX9/AyUoheXduUD90iSsviwBYXBGFsAHYcvQDIyaFWw5bo2rYZ5H5QYxs93iRJVEtxMMxIjcfNy1fgHxIOBQUV2DmMRCV1BXGKipWH643goocL3ocnMhws6zRFx44twJ20uU3ifIFKjsT2A+55eA0dMxV6qmLBJ1YmzuWlr6aFw8nZA/SyiYKiEoY6jISW2tcIt2IJVkImaaxJaUmJuHrlHD6EfYaWjin6DLCFtuShXIqVmuv59/jqCVRu0B2mBvQSrRAXT51A8572qMTh2JAGzgTQxTNn0KpnX+hIIRCRVMYzgJe3vKBduwNMDUoOGCgaAGIRBBE5oELSIwhC7Fy3EpFCTSyZPwty5Z19hcpzPbA5Fq9c1eWE3MXJtwro2tgcezevxLAZy79MuHJVWyELU9hqMnFxlrJS8c8/69C4gy3aNqmJ+IiP0DSpAQ1l7kYg1wvUns2r4TBxFpKTE3DrsheefBBgyZwxUJLnTmbOF6iYt1ix+wrmzxzFuo4OGVwmrkkYky3xNQ5fj8bA7s0BCL68lMqd1FyvSclxH7F95160tR6KprWM8f6tH7TN2sJMlzuZuZ5/J7YuRs1eM9GwhjEjCOt/XYhBc1fDnMOX67mefyI01/+5Eg7zFsNY8tf5S+0QqYxnIjV7VsCky3g0qGFaqgyUoVSCQGYFGsiiJC2CQC84rtt5GC1NBVBu3B9tzTXEaoC4mbiejOJ+93vkI4Lg9UEdtu3r4cDaX9Bz/G8w0tP8Hp/+7t/geoG6e3wDhPVs0bZBDam1heuxt2fLWoyfMT9PXpcNi9FtxAKYiHkqEKehnC9QMW/xh/N1LJs7QZzPS5yHc3m/EIRjtxIwtHcrieURpwDX4+Lo9rUwsxqPdjXFi9QqjoyF84i0yGUpW1SZAgRBmIP1vy3inCBwjTNPEL4gkF9zkJ8gqKiocG4HfudzDGFqTVFbOx1/H7qNdUsnQ55DNTnXA5urCcJFPUQQfj/oAxMdRbwKSsAfvy+Apip3qlAuZOSqDgqZXZbw18V93/nPyeg8bhWqm3B4zCr0Ma5JTWGCcP34Vph3GAILEwOuYObePh7zFtN+c0LrFg0AbROMHtCDM1mpIqmcEhNf49eNp1BHb3EBAAAgAElEQVTDzAhKytoYNGQAFLlT0oDrcbHp73/guHAO9AXA8UPOCAiJQLfBk9GqBndjOy0tjWlSuEpEEIKyqqCSjjrTIDy6fQtz1+zmVIPANc48QQBQFDkgYEiDwDVByMlKxbLpU2HWsjM0lAV4eOcuFv61HpV1adBwk350gpCrQWiIj6+v4VmCKXq3qskNcBWsFq4XqHO7l8Owwzg0r1P+yJfFQcX1AlWAIORkYtuqxbCf8isqc6g14vxELmUNgrQIwjGfBAztJR0NAtdrkvOmVWg8YCqamWszf7Hnd73xSbM5bJoacTaLuZ5/38PEwPX8+x4EQSrjGcC5Xb+hWs/pqGNuKNaYKNLEkJSUxNhtUUkU9ZFLR7HwgBf4y/Up/v3FkX0y9NEZvJCrA+um3Kl9uT55ioXud8pEGgSPdwro06YeXlw+huRq3dG5vvQ2vO/UrCI/Q1E3ubRfC9M/Y+lvOzFl3jToqysjJT4MCppm0ObQSZHrjWD35tVwnDgLwpxs3L/qhduBClg4cxCnfjucL1Axb/H77stYMHM061dlFRXICbhTEUpFjZz4GtIkCFyvSdHvHmHtXm8sWTQDivLyeHbXG9F6rdG3SWXOpmxKSgq7xcZV+h4Egev5J4sEQZidhdT0FKyePRVT1+6BkbZ4WqBvCEJJ5ECkQSAVL5cE4b3fA8iZNkY13Vy1eEZ6Ms7d9EV/q3ZcjUNwzXw5E4yDiugWw4HTPlBUVoBp1SZo16o2FBU41IVyICNXVXC9QJFcMVHhePjABzGJWTCrUQctmjSCkgJ3mxfXC9Qlz6OIShZCTlEZ9Ro3Q11LC3AoLusqzglCciR2H/WCulquc2KXPnYw5tC9XioEIS0cD9+lokWDalwN3wL1SGNN+hwRgjt3byIxWREmZtXQvFUzaChxtxaQZlldnTvN7pOrHjBs0C3vFoP3qRNoxvEtBq6JmKgTL545i9Y9+0CbQ59pUd1cz7+UuDCcPH8LTVp1Rt3qhhB3dStAEIozK+Qf1aRBoB9OPcmlMv0KVsr1yfM7iMx/oggEuF6gvgfI0lqgpCU73WAgE4MsvTchFYIgLYC/1CsNgiBlkUEHSA0Nbh3IpS2zLOJcUcZzHkEggYi1lJZo0aAFRNYIgjROnqVhxf+dewT4BYp7TAvXKIsEQVp2ZmmiLYuHFrrVpqkpWzekZBHnCkMQPn/+LKQFgRL9V/ST//8L/zshIUHmXlLkWs0rzYWDr7t4BGTxNCCLmxc/BqWPAOdvTUhfZO4f0OJl/g4IlP0Tpb6DUFTVpOY1MTEp+1f/g5KyqJr+D2Cq8J8kcqqlpVXh5cwvoCyeYGQKYF5YHgEeAakgwBMEqcDKVyotBHiCIC1k+Xp5BHgEeAQKIsATBH5EyBQCPEGQqe7iheUR4BGQYQQKEIScrAzcvuqFNP1msGpqUWyzvpoYEjBixM9wcdlTRghiMXbWBjhvXlHG8uIX400M4mNVkXP+CATh3sWjuB6iggXjBzCoo4NfIVPDBJXVhfhn40FMnzcDqhzcW0yMi8CJm8Fw6GQEt4t+GGbfE/udnGEzZhwqqeRGxLzvcxmV63aCuR73d7We+D5H48YNOX2fobixmZYUj9svPqBr64ZiX+HKX9ez589Rv2FDlCdO6KObF5GjYYSG9epCRZl7PItqe1ZSBPYcvoQJEx05fXm2OJxf+pyEl18aFkweVq5lIjMuFPs9H2D8qIGsvxKjP2LjgbPo26U5ggPfoGrjrmhh+e0DT7dvXkS7jj3L9W1R4ciQV3gYLESfDvXEri8n7TP2u5zFmPEjIXrGIyszA0e9rmHEQPHkEmYmYNtmZ4ybNROqXD7NKXYrxM9YgCBc9jiGiCxFqBrVw8COdSQjCNmp8Pa+iLhkOXSz7oXodw8gp18HNavoIdDvPtI1zFDNQAnnvS8Birro1r07NFXivztByEhLxaNXAUj/HICoRDn079cLSoryeOt7D0/93sGoZiN0bNUQn4N8EZmlBP+nz6FqbIY6Bhq48/gVajVvh6Y1TZEcG4ErN24gXaiFXtZdoKHKYcg08fvvfy6nrBOE+PD38Lj4CJFRSZg1ZxyyE6Nx4cQRaFdrhtoWxjhx4w1mjuyNlIQYBIWEQkFJAzWqW0BOmI2ggLdIyZRDFXNz6GjkvicQGx0GqBlCV00e7/3fwrxWTSjkZCIk7DN0NRSQKqeN5MC7eBmviZ6t62Lv8bOYMGJg3qYdFPwBFuZV4O/3EqpamohPTIFl7Tr4FOiPDIEy6lhaAMIMBH8IR2Z6EvtdrRrV2bsLUeEhiIiOh56BMUyM9AFhOj58iEBWVioyUzNx4/5DdO7UCTUtqyM94TOiUwWoUlkP6YkxiErKhrG+Ft6/D0A25FHdsiaUFQT4+CEIusbmUFMU4F3AB9SoboaYsGDkCOSRLlRCFePcF+DCPgQgOiEV+sZVYayngrvXr+NBUAIG21ojOyUWSnJCKGgbITEmEmZVq9DLDgj99BlVTAyRkvAZgSFhUFbRhGUNMwS99cflmz5o36ET9DUUoKhVGdoaKgh45QcTy3pIT4hGukAFiUkpMDfSQUBgIDKyFWFpWQ0qSrlxND8GB8Lb+wJatLOCWWUNxKVmIzUlGTUta+BDUACSUjNgUaM2NFQUkBQfjcRMRcRFhECzkhE05DMQEh6LKtWqQVfj6yNEcdFhCAmLhqa2PizMjMmLHJ9CgvE5PgmGpubs5czwd7649CoBI2w6IjjkI8yrUhCeLHwMj4NpZR34v/SHipoKElIzUMOyBkLev4NQRQO1q1UFclIR8jEOaSlxyJZTRS1LC+SkpyIw6D3ScxRRrXo1qKt8fbI9JS4Cuw9dhKqyPBzGO0A932X6+JgIhIZFQk1DD9XMTXPr/hSHtKQ45MiroaalOeSEWQgNCkJ8Sgbk0mPwPlUb/To0ZPiFvnuOm4HZGN6jCQJePMDDcAUM6d604PomzEDA+4+oblkN4aEfGA6pCRHIUK2C2sZqSIcKYqLCYGBUBZX1dYCcbAS8f4fUzBxUr1mbbcaxUWHIlFNBYko6tBSyoKhtBEFiGJKy5BAXGwdtwyqoYqiN9JQkvA/8ADlBNt69C4WVbW/Q00JRgc/heScIbRpbQE3bANWqGCEtIRg3XiSiZ9sGSIyNREhYBFTUdFHdogrD4UNoLDJSE5AJZdSqaYGkqGDs9/LFjPH92bjRNzaDqpI8IMxEwLtgQJCJyqbVkZEcg9CwaGhXMoKZiQGiPgVD28AUCsiEf0AoatWyREZSLCITs6GvCgR+DIeKhh5qWIgXiEmczeMbE0NsVACuv8nAgA6SEYSdcwdCucsCdKuajg7TneH+S2tsv5eDvX9Nw4y+HWG/7hSu/T0UdsuPIvHBYay+mgzPHVMx7jtrEGKjPqFVC2vsOu6KaJ+diG40E1PayaGXzUKcu3QUI606Y+4hb2RdWYaxO4Jx5uBKjLVqDcvhS7BgaCOMGPs7bt29jumDBsNxzb+o8ukStj6Qw/q5DuLgzecpJwKyThDOn3RDC+v+OLVtIwZOmw895TRs/nMNRs5fgtjAJ/BP0UevFhbwPHEcPW0H4/mlw5C36AADQQSCcqqhRaUEeFx9AYehtgzJlw+vI9OoFWoqBGHbgSuYsGA6ou+dRaxGHSjHvoVBa2v4nzsMnQY9UNtIEed93mBAj9ZfekEI95NeGNi7C/5etxm9+g+DSmoYrt5/DdvBA/D86lk06DMKximvscXVB6McB+PmqYNo0H0ItHJicerqO4xx6IbTbu6wcXCEINIfW49dRe++tqhpCpy59h421h1yicyH5/B+HochfTvA2+0gTFtaI+DKKdTvMwSCiFfwCcyEY/9OOHzYFYMcBkNRmINDHhcwwq43zhzYhLRKjWDVuR20NZSB1FCcuBoM2y71sWnjbkyZPw/BvleRYdQGTaqo4JDTFhjV74j2revg3JkrGNi/D4Rx7+D9MhmdGphg85bDmDx7Cvx8zkKrXi80MEzAyXN+GGjbDe671qPVgCmoqiPA3yv/xYxFv+D1rTPwj85Ez5498dzHG1Wbd4ZGzBu8iFOBVbsmrH3C5DAcPHUXoxwG4uEldzwPE6KvtTX8b3tBULU5GlVVxe5TD/DTRDu8vH0ed4KyMdS6FQ4ecEatdr1QWzURDz5mwb53Z1ZfQsR7HPG8h4kThuPUYWc06TUCatFP8eiTPKxamGPfPheMmDwTb+5fQopuQ7Svp4+T525iQJ/uyI55g5tBAnSsrYeVG3dhsMNoxAY8xrOgWNgN6o9L7sfQeehEVIp7ip1n/DBsYD9cOL4L1g7TEOR7A4rVO6CmIAA336ejd5evz0zfv+IFs7Z9cdd1D1rbTYDxl+cQctJjsNfZE6MmjsJlj4Oo080RJql+cDrzAkMH9sWF47vRy3Eq4j48x8PANNh0rYcj+13Q3n4y6pnkPrr07PZ5fNZshIaGOTjvfQF9B42HbqHH/tKjA3H4oh9G27aE1/1g9GlTA5u3HMP0edNx+9xxRGQbol+nRjh54SZGDLGBt8suGLTqA1PlJBy68g6zxtng9vmTCE2WRw8rK9y/fBatbO3xzGMnIpRqwbq1JTbv9MAvv87C1ZPH0MFmKF5dPgqlah3RpFbupuvrcwG3/KIxcawDju7bg96jxyPp2QWkVm6COkYq2LXTFaOmjMPtc8dg3m4IzDJeYrvnUwyzt8WFozvQw2E60iL88SxGFdVzghChaASrts1Y3VlxIVi/ywN9bAagimYGPC89w6iR/XHceTta245H7AtvWDTrjoi3j3DDNxhjRzni5jlXGDbogAsuLhg/dy5e3vCEaXs7mHN0E5UbguC8EXWr1YSWRR2oyWfh9q37eBMWiqUzZmDfwf2wGT0fnk7zYVC5Lhq2agWFnDREJivgyQNPTP5543c1MRBB+GmNJw6snQL/p97Y/0IDfzm2RcCDmzhx/R7Ou+7CLKebMH6xCYEWQzGkXSOsnjYAjsudUcVQCYO7WuGQtw86tawPVR0jUBTKT/JV4X/FpZxbH19cHARkmSDEhb7AhQfB6NWtHc657EL7odNQSSEZGw9fxcJpQ/HwyhkYt+mDqmoCJCXFISQkDP5PbsGyrQ1M1TJw/ORVdOjRHTVMDKCskquxevfsHqJUquPjw8uopK8Hy9bt4XXEHaPHO+Ka5xH0sh+Bo3v3wXrEaOQE3UWwnBlaWOYudtmxATj7KAKdmpjj8OUXmDK0BwJe3EeowAKd6xni8pmTaNlrAEJueyK1UiO0qGeBlzc8kFG5GWLePUC73oOgIge20Jq274PYB55I0KyHdk0sEfzkEsLkzdGmUW5MEGFqBI6efoBBNu3hed0PHesZwvPeB4wf3AM5CWFwOn4dk8cPw8kzF2DXzxo5qZ9w/kEkerWpjq2b92L8rFlQE70ImJ2Goy7HYNG4BRrXtICKmjoun/VApz4DIZ/yEe4XnmOIXS+khPnB530menRoCr/r7sgxaQW11BBEq9VHG0ttZGdlIkeggPAXN/A+XR+dGltg45ZDmPrTRGTGhmG7xz0smDgQXu5H0dduGOQyP8Npjxtq16PDUxo+J6vCrk8n1r6Pr+7hcYQibDo3xbF9e9B+wEgYqmbB2fUCxo+wg3xmCtZt2I2p82bh1unD6DHAAfLZKTju6oUhw4YgPugJfIKy0adLC1bfjXPu0G/UC/VM1ZGZkc5Osk4bN8Nh+jxoqyng/NGdaNtvNO5cPI0mfQZB6/MzPAxXQqfmdeF76SjUandlJO6cbzRG23bA01sXkWXUHC0tK8H9mCusBw3Gi3PO0G3UB7XMDOHmtBbdhs9C0sfX8L7zCl2te6KKvhaUlHJNJUmRAXA9dxd2A/rC54wbqnWyR90qOnlEMz7+M0JDI/D47n1YjxiDgIvOqNSkH2pWNYCb0zp0d5iFW5e80MvWngW8OnXCAz0HDITql0cez504hJrN2kMhOxsP7t2Blf0I6BZSyr59fANvU3TRRDMccZr1UE1PDjsPX8WMqQ445X4cAwcNgRyyccrrEqzaN8UuDx/MHDsQgrRY/L3hIOYunIVzJ46hv/1QyAkANzd32A3si23r/8XwGT9DMzsOf+86g6VzHHHK1R12g4cwwlOlpQ1qV8kNeHX+xFHU7mKHanpKOHfsACy7DMJbbyc07zMelfU0kJAQw3DwffAAXYeOQsg1F6jV6o761Y3huv1vdHH4GUGPryAgNh2WdZqgSd3qeaahwGc+8I1WwYBuzXHO9SAsO9qhppE6Hni7Qt6sLdQTXkO/Vhs8fnAPuspZaNy2I85euAubPp1x1f0QUjSroG3rVtDVUoc8NZCDxAlBOOi8EU2qNcDxJ/6ora+EuPh4aGvrYMOvszFg/CicvBWB2f3roV6DPrj35hm0lQRITE6BpmbmdzcxEEH4ea0n9q2ZAn/fyzjgpwZ7vdf4/cAL7Nq+DFvmDkfzWfsKEIR1M+ww7Nc9qGKojKFW3XHwvA/sHSbi5PE9zGaZnJQK9S8qXw76hK+iBARklSAoKyni2P690DA2B+1zYYEv0aa3I3Tl4nErIBP2nevBy+M4+g0cDN8bFxAp1EEtCxOcdXPHoElTIJeZDk1lOZzzOokqzXqgeU1jhtIH/6fwixBCU0MD2mnBSFSqDHVdQzQx04CLiytGjBmDA8c9MWqILXy8DqB6G1sYk/oVwPsH5xGlbImqasl4k6yPbo1NcffyWdTp0gc68sApDzf0H2AHt71b0ar/BJhVUoL73q1oaTMGvtdPwmbwKFbPOQ9XdB1gj7MHdqJp71GoZqiGC4d3oEaXYbDMi5KZAU9XD6gLklGv22Ckh/vjeaw6bNrXQfh7X1z2i8ewblVx6UksrDs1Q+D9M0is1BhV1TLgcuEFpo+xyTWLCHMQFRUDbW0NPP5/TV6UkgVs2lrixLFjsBvqgGDf6/BP1kWPdo3w9LIrhFXaoGktExzevh6dhkxD9MvbqNy2J4wVKSBdEns2+Kr7Phi1sEFVbSEOe/ti0mArhL57hqefNdGvmT6OuJ7BcIdhyIh8A88HYejdpSXIX0teSRVqqrnHXJ/zblC17Iwm1fXgfOAERo0ZjKykeHje9MPQ3u2ZWWP38euYPsYaR770S2LoC3g/j4Vd7w54dNkNgipt0Kw2mUMAL1dXtB04GJUUgMSkJKjJZWDVxmOYt2gqFLOSsc9pL4ZNnIozpz0x2N4OD865QKOuFeqa62PfplXoM2Yuot/dR5xmfbSrrY/zp06ivc0AaMqBaY3sba3h9M8qDJy0AHoKyVi35Rhmzx6L1LRsKOakwsP1GNr2c0AN49yN8az7EWSq6oFcV6I+BqBGq95o2yDXT+32lfMsQqe5kSEu3/DBqKG22Ll+JewnL4SuQjLWbz2On+ZMxrlTJzDAzp6ZQNxOnMMgO5vcmS7MwJGDhzB81Ngv5MgVhi0GoI5BQT+O62ddod+wJxQ/PcGbuExoqSihXrPWMFBJh6vnDQy2t0Fa+Etcf5uGFjX1cfFZNIb3bIa4iGDsP/MMM0d2hqvHZQwdMhDIiMOJ8/fQu0sLbD98GT9NGYLPoe9wwS8eQ9qb48LVW9DWrQQVjUpo1bRenl/L0aNuGDRsEMiw5HLgEPoP7o89m7dhwux5eHn3MjLUDWFhbIhrN25hxNCBcP53LXqP/hkGymlY9c8BzF04E5dPu6NOTROEZeijQ9NaeavdzXPu0K7XHY3MdXBknwt6jxwBHbkceBzci6a9h0E52g/R6VlIVzCCUkIgBBkJUKreEeaVVCFQ0URk0EvcePAKjsMIY25SOQkCMHRQf6zY5ITnh5bjmUJz9G5mgCELDuLtHTe89vHEqFlLceD4WTSpVQUbZg9C5Z7ToRH7GDsux8Frzx8YOGQENm3ZBIvKlbhpUTG1iJwUiyIIvVWfYcPpD1jziwMch9hi0cE7pRKE3yYPhUmPqWhlFAnn63HY8dsUqcrPV56LgKwShLS4j7j2MhYDu7dk7Xh21Q2ZlZujskoCHoepoXfr6vB0PYDeAx3gdewA6nXoB2HMG3jd/4hfJvXDAWc39LUbAN87V1Cpbkc0/eLAFRn8Gi4elzB+4gSEvb6PK0+CMGHMCKSF++PUvVCMtLfCIdcTGDSgPy4d24IGViNgbkRzTQiv/VtR33oUEt76wLhFDxiqKuC0+2HY2DtAmBEJN8+HsOvfDTv27EWjJu1goi3ElUcfMW5EP9y7dAra1VpCMT4AL6MB226t4LT3KEZPGAVVuWwc27YFjfo4oq6Fft7QPXlwK+J0mmGMTVskRAbj4OlbGGxrhZuXr6Kz7WDoJL+H+70gNK9lCk93Nwyb+DPSIt7AP6USerWsnltPTiYOOjmhRY/+ECaGICi9Evq0NsEh51OwGWKHx5dcYdC4N+pbGOCh93HEq1WDnlIGTl+4j3mLfkZMkB/uBCWhQ53K8Lnri0H2tvDYuws1Og9ENT0BDp66gl6dmuPaBS/0HP0TtGNe4rxvNAb3JdV/OlyPeaCzVXfcOX8aDbsOQHUTPSbWcRcXWA0ZAW1BGjyvPMRA6w7IykjF3gPH0KtPLwQ9vYMqLXvAMOsTTvgEYtQga/je9EKydn20a2iGI7uc0GXYRBhr5fo0PPXxRpSCIeobq+Lui0+ws26PI7u2sjgF8SGvEKtsAevWtXDs2GHYDhyCp96HkWXQCKrZcThz+Sl+WTwb9y6eQhOr/tBWEMLjhAcG2tlBmPYJZ24GwbpdXaza5oZf5k1E4qf3OHH/Eyb2qYvD7tdhbd0J1854oGmPIahurIOMxHCcvOqHIbZWTLa3Dy/hfboBerVvzP7f/dhRdLSyQuDjy3ifZohBXRuzuhfNn4T4j+9w6mE4xg/ogNNuR9C4bVe8fXwd8YomsOvVkZXP+BwIJ7er6G3VGfGfP+HJ6xCMHW6PXVt3oM/IyahaKZeEHT/sCpthA3B402pUbdQOauqaaNqkCbLC/eATlIU+XVri+bUTEJq2Qi0jNWzb746hg2zhd/cmGlkNgFrMC1zzT0F/q7aI9r8L3xg1NLHQxo03CRjYuSHePruFjMptoBPzCJeffoCZsQFMLWqihrkp0ziQj43TvzvRvEcfqCR/RESmHjo2NME/21wwbfY0XD7ljnbdejBz1+s4TQzr1Qbrd7hizuwJSI4MxtGbgZg6qB3cXU/Bzn4ADu52RvehI2Cqk+t34n7sOKwHDYGGPHDr/Alk6tZCDX3g/ts4DOrVAZ9D/bDvxA1MnTYNwQ/P46JvMmZMtkfQ8zt4l6iNZtXVce3WY9gP6Atnp52wGjwe5gblC6z1DUHIzs5ESroQmmpfnVMKb075H0qKDAtFmkAVZpW1ERwUjLTMHBhXtYCWqiKyM9LwNjAYNSxrQVFegOzMNAQGBwOgQCLmUFOSZ043AlXtvFONtDZCEUHIzs5CxOdEmBjqsqBQ8WlyzDEpODgIGdlK0FID1CuZQiEjFpmKWtBSVcbn8FBo6xtDgTlRfYBJVQtkpafgw8dQZGfLwayaBVQUcyc2n6SLgKwSBGRnQF5FA0oKuX7yGalJyJZTgpKCHGLJOUpHl/1OqKAGJUEGEpJSoayqhpwcQFtTDempyUhMToWCojK0tTXzTjTZmRmIS0yGnp4uMtNSkJIhhI6WOjLTU5GWJYCmugri42KgrKYFQXYq0rMVoMW0XULEx8RCXUcX6SmJbLElr+yE+ARoaWtDmJWBpLQsKCALJ68/Q7+ODZGemQ0dHR0oyMuB5hE5dQnkFaClpQ15OSAuIQm62rnGz7SURKRk5EBPR/srQTh2EL3tHaH8JZBYSlICUtIyoKqmAXU12gSEiI2JAeQVIcjKgKZuJTbPhAqqUMnn7Z2VkY74xEQIBPLQ0dNlmoXE+FhkyylDLjsdqpo6bL2hU35sXAIUlVSQkZ0DfV0tCIU5SIiPRWYWoKGlBRUlRaSlJCE5PRuVdLQQFxeLHMizflHX1ERWWgrSc+SgweSjdiUhKSUNSipq0MrnUBjPcNNiBCY5LQcaarn6cVG/kQxaWhrISk9Fahagpa6KlKR4yCtrQFmRHOTioaWrk+c8SpE64+LjQK/fa+voQFFBHqyvExIgL68EbR2tXO//hDhWh4p8Tm5blVWQkZkDfT0tJCUmQEOTHhUTIjExiT2RLMxKQ0qmgDnFxSamopKOJjNhpGULoKmqhJTkRKSkpjPMSF76RnpKAnLkVaCqnLsnZKanID37KyapyUlITk2HpoYasnIEUFVWKFB3erYAGqpKSE9LYY6eGuqqyBbKf+lzsH0hJi6R1S0nL89kJi3bwf0uGOAwClpkx2KHg0SkJUTiXlA6ujW1QHTIW1x4GYcxvVsgS6AANRVlJCfEQlFNi82ztOQkJKWmQVlFjcmWkZaMTKEC1FWV8+afolwOMnIUoKaswPpWUVUD7q4n0b1Xd6jICXH84AH0dpwCIyJuwiwkJachKzOTtVNX58u4j4+Bqro2hJlpbGxoaKgjKxtQU1FCbGIKw5huOqRmCqGpqoCExBRoaWkiLZlwVWZyU4pPSIS2Vu78ycnOAo2pHGFu/7M5l5WOxJQsNr8zUpORIVCChooii+oaHx+HrGwh1DW1oKqkyOamurY2FGliliPx7yCUAzy+6PdHQFYJApchqr8n6rGfXuJljCbaN6ha9s9mJ+LsqfPQrNoAHVvWLXs9fMn/GQQykmIQn6UEA52CgaHioj/i9JWHMNXVQmZ2Ouo0bgNzY5EvBDfweJ/zRI6COhQFAmTKq6F7lzacR0vlRlLp1yKIjY3NDcTwJYniMhT+dP7fU+AjY+NcG6isJD5Yk6z0VMlyymKwGFmMH/FjjBa+FTwCPALlQeAbDUJxBCH/R/hYDOWBnC9bHgRkkSDIWiwGWgMosquCguyYzWQxIJYsHlp4DV55Vi/xy1aU8cybGMTvMz5nBUCAX6Ck3wmySBBkMa91wWMAACAASURBVFqrLBKEeHZD7atfifRHY/m/IIs48wSh/P0uUQ38U8sSwVVhM/MEQfpdwxME6WNMX5DFjYsnCN9nbFRIgkALQ05ODgQCOciV8NCCLJgYsrOyICevkPdetoggkKeqs8clTHXMfQcfce9xxjcWfTvnPlAizXR4nxM69B8DM93ib4hI8/vF1Z0Q+xFbtuxCRja5owgAo/pYPmXwfyFKqd/kCUKpEJU7A08Qyg2hWBXwBEEsmMqdSRZxrpAE4ejBPahWtxGueZ+BjcN01DM3KLJzKjJBSE+Owe7tG/DX36tw/GogOjTKfXhERBDiP4ejy5ileHJ6d27bgrwxwyUAW5ZOLvdALK0C2+6t8cvuK2hfLfd50bIkeru+Ro0vd8IlqCA8NACVTatBIIowkq8sXYl7/dof61fMQUvHFejQwASNa1WToPbvl5UnCNLHmicI0seYviCLGxevQfg+Y6NCEoT09HQoKyvj9dWjeK9QB3075r4zXjhVZIIQ5OuDC0/DcX/POIzd8kJsgrB+hg0Gz3HCib3LERvgh9l7ruPQX9Px59K5MDKpiqd+z9Gj9wC8f/0Sz1+H4a91f8JAMRPr/tmInBwhDCwaYtKYwXDdtgyfBOaIDn2D7Eo1sfynSaA4HJQKE4S0uHD8s2k7u6ds3qADHO17Ys+fk5Cu3wIfA19D2aI5Fk92xOsH1+B54zHSIv2Qo98aU4d0wumXqZjStxme3TmLFwpNMbylPg78uxmhnxOgoF8Ds6eNQnzoK+w+fh7ZcQF4H6eFPZv/hJfrPjzx/wA5BQ3MmjUD2upf3zNdMNEenX92Rt96WkiJCsaGrXshEOSgfnsbdG2oj3l/OOPfjSuwc8NqjP15Ad5c9YCnzxMoCBQxaMws1DPXxcaVi6Gtb4TnT1+hy7AJsO3UDE+ueMLjxn0oQAEDR81Ew+r6WLlwCkxr1Mdj3+do280GEUFv8Pz1RyxcsRTnnFZh3Py/oK6qhO1rf8OU+b/n3fvnCYL0FyieIEgfY54gfB+MZRXnCkkQCMycrHRsXbUc3UfNRz2z3FfCZIkgiGSd1EUHozb7FUkQWrTvivZtvgSsSQ2BRsMhWD2pG7Rb/YSUoLOIeHIdzeYfRdSl7ejdvT2On/WB0ofzsFl+ERcP/YOTK0Yhs910dK1vhNv+yejboTbm/TQZG7bsxqqpPaHaajF+Gt0anU2rYMujD2j4JSBJYYIQ+s4Pb2JU0KW5BUZMmIIjzrsxr38ttJ3mDnsrMzTVqQLPD9FY/ct0bHHajZAbu7HLVxMjOlXBFp9kbJ7WE1c9tuOmUg/82kUDnrfeoa9VK0yxaomxe27i6tqxmPCXM+TD7mLIn9dwxeUnTFt0AKuXTcGb8//ila41Rlo1z+ve/ATh3bPb+CxXBc1qVYaVw3Rcd9sN5z/GwbhWI1wLVMdvk/uiRusBePH8PtJDn6KO/Z+IeuIGh55dsdvrKrQFgXAYuw7O25ejbjtbPHh0Bznhr9DAbhlCH7rBvks9HLjwEmrhN9Fx8lbcu3AU3lvm46lWZzTIegrVTpPQQT8GtsP+wNnzh/Jk5AmC9BdWniBIH2NZ3bh4DcL3GRsVkiCkJkVixyYn9Bg2FvVrmBYbV70iaxDEIQgdHebiwr51uVk/3MBf3nHFEoQRw4bA5ehxIM4Xc9ZewT9//YyHBxfA32AAbBqbYvb4sajcohNuPXyIG2e9GEGo67AV/TtWw/Cmxph/6j2amdFrZt9qED6/f4H5c+aharO2OHnrMXy9TzKCMGjlNbSpr49+tfSw5U4Uti+biQVrtuGRyyL4qXdHv0ba3xKErlpYOGMBBGbmuOW6G394PEfw8aVoOmwZst+dw8oLcXCZVA19F7mhY9NaEGano2kPB/Tv2KBIghD27C4Wr1iFGk2aY5e3L4KvuyE+MgSNG7SC59P3MEgPhv3S/bh9aBWEyRFQ1K6Kj/EZ+G3qUOw4cIzePcP4CQuw+vdfMHDBNtw8tBZIiYaWYTW8Dk/EAodOcPG8ASS+xqgZ23Fg/yY8P7kapz7Xwfgu1TFhwyXMbZOFW5nN8evYbjxB+D7rEvsKTxC+D9i8iYHHuTgEKiBByMShPc7oPmgkjLRzY80Xl2SdIBTlg7B2shU0a49EwufbCL51Gp1+P8s0CCURBIW3Z5HVYg4c2uph0gRHOO0+JBFBWD1vPOo7rke/pjqwGeaI00cPFUkQTu/4A8kqmqika4rhjiMQ9uYeVp7+COclg+Cx+3c8N3ZEXf9t8JNvj99n9sfoHk0xdtt1xN/cjqeROTDUqYyho8dDL9sfE/48i92r5yLx4xtECQzy3pKnvs6vQZho3xsj/jqOjjVV0cJ2DB6fOYCDq6YjXd0UwRlVMM+xC1rY/4xn1z2QGeUP40ZDER72BPPHFSQIm1b/ijYDZ+D+lRPIiQmEWZPBCAx+iOn2xROExSO7oWPzTqjSuBnWbneCmeYXG40Mx2KQpZcUeYLAb1zFIcBrEL7P2Kh4BCHmLZZudIVldROGQNU6jdC9TW6c6sKpQhOEzHgsW7gCPtfcYNa4L0ZNmY1urWrlOSkmxkbC7qfV8D6wPrdZITew2D0YK2cNwdiezQGLtkhLjMZzYW34HV+FGVMnYct2JyDhBZZv88HyhZPg6/YHAir1RtWcYCz+5yxa1NLGo0/RuHDsALYsHIaaA/+GdeuqmNqzCaY530FD09z3tUcP7otkBX0WrtWkXie0M0rEjhN+qGeqjJufEnDLzRkrxv4fe2cBVsXW/eGXbmxRbAW7A6+NrdiBia1gd+u1uwPF7sBu7MDubkzsAJFu/v9zuKLei8IB5tyZ7+55nu/5rrpnr9m/tWbmPWvv2asC9YfvpGS+NLSvUJDJ+++yYlhbdl16ot7D3qFtP4a0q05l+4aUrlgcn5AQKrafRmOzG3Qfv5HyZQpw8fhu/lx/htc7RzNhrSdGhvqUqFifZfMnMLijE1HWOfC6foa5K3aSL9v3hagTB3elvPM8quc1Z82skRy6EUDONNEcehXO8Tk9qDdwFWd3uzKqXy+GzpnPzjE9Oe9rhI7/B+r3nEHTijkZ1teF6QuWqnaJZ9DgScyeNZXVY/ty8m0MRsGfqdFlIi2r5aV3xya4rtkFgV70HbWOBfMn8uDgIo745aFf6zqcXTmUYR5hnNsx/6fwE1MM0j+gBCBIr7HKgsggCJ2Vk0GIiSYkNCzuevX09ONqgSsKEGKi1YVJvu0frSp4Y2SgHwcIqodfcEgoZqZ/ZUmiI9UFpoyNDImOiiAoOBRjY2NCI6KwMDUmbhe8mChCw6PU7VTFRaJ1DNSFMIKCAtAzMEGHKIyMjNUFSfQMjNXFNUKCAjA0MY+rzR0cHESkqoqHqiiJviHmJkYEBgZgYGymtm2isqsqGGIcW887ODAAY7MgOrT6kzWbl6oLeHTo7Mym9WsICwkmIgaMDfWJQl8NDyHBgURjgL5OJHpG4TQqas/Gy1cwN9RhuHNLpi7bhqpOTmBQEAaGJhgb/VxONTQ0BH1DY/R1ddRFbYICgzA0MSMiIhxjAz3Co8DEyIDwsBB0VWPUjS2Zq6Orj6lJrJ6hISEYq/87hpCQMEzU5XBj1O3QURVoia0uFhIchImpmbp8b4iqYI+JsboYSWSMntpf++d156V1U3q1qCUAQTvP0TgrAhC0I7gABKGzcgBBA1/JOoPwi3EoeaOknevdePTGD3RMKVGuorocbWKOMwc2cPqWN/r6xljnKoCTY91fritJTH/aavPk2mFmLj7GhNkTsEr983SXyCBI7wUBCNJrLDII2tFYqTrLZorhx2JNf6/DEF9dBvUvcFGsSXvRLSz9pEBgYCDm5j9XeJO7REor1qREQJDLA1WTWFRajQ7V2EQtFE08nPS2kZGRsqiFImoxJN2H4sx/QQGRQZBedCUCghJrMSgxqykWKUp//6ksyAV4BSBox9/CSgopIAAhhYT8TTcCEKTXWKmpbwEI2okNAQja0TnOihJpXcsSKcKcAATp3SQAQXqNBSBoR2Ol6ixLQHjz7CHnr92hWOkK2Oa0jit09HdXynmRYlRkBNdOHeTAmas4NGuPXVEb9cK8nwAhJpqLJ/YRYFGMmnY5441UlxpZ2XwlAGNDUzoPncHkwU70adOVUZtXkuWXsR1Nj1pFaDLzKLWKxX4umpwjPDSYSi16cmnvmt92o/riwK5ee654bEjQnGPdihw6f1f9pYLquPj0C/ni3zAzwb7+jQYCEKRXXQCC9Bor9cUlMgjaiQ1ZAsLzJ16Yp7Jky5LZVGw9iOI2VvGqIWdAWDtjKA8MStDJoThTRw6k/sBFNK+QOw4QwkMC6da5OY+evKOW8yImdKsY7xh7OuSl25zD5Muamr6t6jF02V7mDRomKSD4fHrN52Bz8uVIrb4mqQCh5/z9VModu9BPX19fOxGfQlYEIKSQkL/pRgCC9BoLQNCOxkrVWZaAoBIzKiyUlfOnU739APJkit0i+O+HnAHB6/4tMuYpRiojWDS6C5HFu9OveZk4QIiKCOfJi/fcPb6SW3o1fwsI3ecfp6htFka2qYnTjE24DhlAhlKF8Hv1kgDDPAxqWoTeqx9xYtkATm1fyu732QjfO0SdQcit6838034s7FWH03uXclK3Os5WV6jbew2Nqxbj2PnTODg44vvBm1O3XnP0wDYee25gj5cFU/o0+QcguDgUIH2pFvi98cLXJBcbFk5m/YKJHLj2jsK2WVhx6Aqvzu/Gc+siNp65g3l0DDrWJZk+0gX92GSB+lBlEFzm7qZiTnPQ08PYwIAONXIwc8cjMqYKpFbhuuy9cYnWLRqR37YQ9XqM4cXe6Xh6+WIRE07Wso0Z2L4ujuUyUqxRXz48vo+utR3zJ/Vnw/zpXH77CV3/QKq27kmj8rkZ0KEzJplz4v32I9OXrsT00SY6zz9NwewWnD94jmX7PLDNki7RTwsBCImWKskNBSAkWTqNThT7IGgkV5IbK1FnWQLC+SM72bL/FHY1GtCsTlX1JjxKA4Rv1xvo+57WXfuzfos7qQ3+NsUA7Fgy9reA0L12ToKz1lTvEvgiIgOHty9nYLtucRmEGo4dObZpHkUyF+To85esnDiQjhPnM6lB7BTDrwCh//KnbFk2mi3TeuKbx5EejhVpVTwPA3bdoWyuVD/J/WMGoVfjUoxY5knWjNE0KlsV9zOXcWzXhf1b1hATHU0pByeu73PFzqYg++54Y2WpS4fadszZehbdqGCiYnRJny6tGhAuP/6EqaEu5CzPg4Mr4weEOk1xO76bjFGRVG3cmeP71kFoAMXL1ufkZU/61c3Dot13SWOpj1O96qzb50mDlh2YPXEkYcGBDJu3lUPrZhAREoTv1wDWzRlOxiaTaWhwgmV30zOsY10Oz3FGr2Jfath9rweR0FNAAEJCCiX/3wUgJF/DxPSgxBeXmGJIjGeT30aWgKAalupl8+DMNh5H5aFxtdKKBIQPL25Sq1U/tm7fSb6ssb9O/75IMSFA6OlgS6vxOyicJxupUqdW72zYs3WXOECo3boLhzevZP/MzphWH8CelYuYv2hx3BqEhABh35z+vM7WiB6OlelYPjc9Nt7+LSD0bhILCFky6NKiaiXWHr5Mp+79cV+1UL3roXoNwubJpMtbnmfeb9QZlIFO1Rk2fxerF4zjY6QlMyeMoVX9yvRxPUzlPGZxvo03g/AXIGSIjKB+xwEc3OAKkSGULFYY9zNPmdDCloW77pDGwpheTg4sXHeABq06M3fSCHW/esYWpI/6QINmQxnvNpnzWxeQtfk0NSCsfpSegW3rcnpZX8KLOwtASP7zJEV7EICQonL+sjMBCELnXykgP0CI8MPrbTB5sqZj/4ZFWBZpgH1JW8UBwsXjO5kyeyfTFk0jo4UxRkamWFiY/gQIqo1rdq+YwF2dGox1roRupD+LVrjTp3dPdHRi8/GqNQixUwzZ4jSIDxDC/J7Tve8QshRvyqSBrRnqWJqSPddSLnM43SbvZdNsZxZOHYpu9XHqKYZvGYT4ACFd4F1ufjCjeY3iaps/ZhDiBYRWjgyZ4UamqGeU6zAV7/Pb6FqzNF0W7CefaSCNWnbDw9MTC5PvWyqrMgjOs3dRIWcsIJiamtK7QVGc5xwk9O0FXHpN54JqiuEvQLCKjqJBbQcmLtlAFj7SoNt0Th5bh1O5DLgsOkvxVAG0cRnF0eOHaO7gwOhF68lp8oltnq8oYv6OKXves29xX/p0aEyZPqsEIGjnmZgsKwIQkiVfok8WgJBoqZLVUIk6yw8QIoNYs3wpLz4GUrZqA+pWLvFLp8h5DcKkId04dsUr7torNOzK5IFO3wEhOoKhXTpx+flrdZsS9Xoxs3sF+g4ax6KlS+MAYe6wtjTsM5c8WTPG9TV3wnTajRlG+v/PSAyZMJ2ZY4YRExVBhTLFGL/mBDWLZsL72jEGue7HfekkRvXpwV2/aBwdqxOTpTYN0jzEdf9bxg5ux/mtrnzKWIFG9sWY2qsVjUevIvTRYY57p2Fw+9jyxhHhofQdNxe3KSOYP9qZtoPnkz61LuP692HErCW8vHmKQaNmk79iU3yDPrBy2khC/N7SvbczfuGWjJw6l7J5fl5oOnZobzwv340b09o9p4h6dpAeQ2ZRs3Nb3h+5xJQVbkwYMoaBcyeh+sDh04vrDBr5JwHhZsx0XYZNptQ4Vc1B6fJNOXrlMUOmL8e+hDXvHl9lyJhxBISlYu4SV3JYwJD+Ljz4lIYGlbKQu3ZPKuhf5+CrVLSoUZZb+xYQadOAUgVyJfoBIKYYEi1VkhsKQEiydBqdqMQXl5hi0MjFSW4sP0DQYChyBoRfDUOafRCi+Pjem+Yu0zi1eyl/fTmogZLKbepU4/sUgzZHIQBBerUFIEivscqCAASh868UEICgndiIsyIFIESHBbJp227K2dchT1ZVXuG/c5w9tge7KvUxNNDT6qAFIEgvtwAE6TUWgKAdjZWqs2wAwdfXN+ZbUSbV///43ypx4/uzqsiIlVX8eyRoz+2aWQoLC8PIyEizk0Rr2SmgxAI3SqwTEBUVhZ6eduEvOcEml+I2moxBic8kJWY9lKizXO4/UYtBkztatP3XFRAZBOldIDII0mus1F+2Yg2CdmJDNhkEPz+/GE2HLNYgaKqYaJ9SCghASCklf92PAATpNRaAoB2NlaqzAATtxYfa0rc1CKpaDbdv3yIiMlr995YZspM/V6YkXU1kWBA3H72lVFFbdb2HhI4HXs8oYJs7oWY8ePyUAnnzJNju+ZNHfPL9GteucAk7TL9/0Zjg+UpsIABBeq8JQJBeY6W+uEQGQTuxIVtACA/+Sv9+/RgybRm50hnGq4acMwghfq/p3qkTJ648oFar3rhOHYqJgW4cIHz1eY9drYa0buCgHptNyZo4Naygode/0mPIAib1qEe2uhP4+mg3iXkvV2zUjrN71idoq3JDJ07vTbjwUufmNYnKWppcqWPXVvQeNo70Jgl2r+gGAhCkd58ABOk1FoCgHY2VqrNsAeGix2q2bDlF3znLFQkIs4d0IU3dobSvlJs5Q1uTqtpYXBoU+QkQ7DuO5sa+FT9F6L3zRzlz+ynNWzqRPo05x3etIn+pShw+doY6LZwIe3qTU3c+4uRUXw0DHidOUzanuRoQXhydxMOPulQuXRDCfTh58Snp9d6y45Yu43o2jLPzDRDOHtpC7kIlOXT0DNUbtSBHOnOIDGXzxu3ksqvO0GFDYgEhJprDh7bhG2JMs6aN+DuuqQCh7ZRdVM8bW3hJdZzYsxa72m0wN45m36bd1G7hyFlPT/LaZCPAKAsFMulz7OBWPvnr07iZIyb6uhzfs57Cpf/g6JGL1GvRkjRmKksRHN6/DZ/wbLRoXAl9XQjz+8Dm7XvIV6wc5coUIezTE+5+isb3+TW+kpum9cqiK/F9LwBBYoH/WpisWiSlpEJeSlwIqsQFfyKDIP39p7IgS0B4/fga+y6/w//qYVr8OVuRgKASNyw4gJPHT7Jr334GjJ9D/szmPwFC+SadmDm8D6CDXZVqBD0+x/zdt2lZvShT1x1i94oZtCpjjE3jGZS0jmHQzE2MGjUInzsneJ6uCkuGtKb7iIlM7habQfC9Op+uvaayYd0SLrtP5mRQEZyqZOP6a10a2Bf7ByD0qGNDhsr9KW1jzLhp6zl76SRj+3cha+m6WOt9YfDivby8uA/XgS0Jy1efvJbRzFyxD4+D2zA3/L6yXAUItnVdKJbZFMzT4VC5LO2rZGDyjhdkSx9G9TyV2HX3Fr3aNSFf2Vq06eTC4uEdyF6xOblMgll/6jmb3cbQyi41pdvNJJ8VLFjmwaFDOxjftyd5azYgdcAzrn/NwPge9RnQrQ/127Znz8ZltB6/ggI++2gx4Qg9OjfBY9ZI2szdQdWSeSW9gwQgSCqvunORQZBeY6X+shWAoJ3YkB0ghAb6sd59G926dmLmwAE0H6VcQAj292XLdne2bt/Hn9OWUr5o9p8AoWyd1gxybqOqGEBtx9ZkMojA68kTvgaF0muyKzcObMKpfCrGbnmBbfoQyharxcl7d/l0fRedVj/gxJKRPwGCaoph8qCe9J48j4F1ytJ/nScls/+zEua3DEKfhoXo73aOPFmMaFauBCuP38HFpTtb1q9UR596isF9Fhky5uXeBz8ymukyoGU5+s3dT+DHZ4REG1CiWBGcW9YhdfFGFLAyAktrurWsFz8gOLZi+v7tWAP12jhzYNMyiIqgUtk/WHXsGuMbZ2XmjodkTmdOr1bVmL7qIE0a1KZi5arqOg/nn3zlyLrZvHrixTv/AA5snEfWptNwND/HwksG/Nm9GZdXD+BNzrY0qRp//Y6Uuq0EIKSUkr/uRwCC9BoLQNCOxkrVWWaAEIP7wknsv/wEE2MDAv39yV60MtNH9Y7Xi3Jeg+Cx/wA16tdTp+OvbndlyqlAdroO/+0Uw4ReTmSvNZSmVXPi0KkvZ3es0RgQTm9fyl7vjDy+dYUDa6fEm2r/HSA4OzuzdcPqnwAhY8a83P0GCC3+oN+8A8SEfCQ0Sp+8Nnno1qL2P6YY4s0g/AgIrZ05sHmZeovoymXLsfr4VcY1+icgtO7kwuaVrurr0dHV483t03QYs5t97lPZtXQcVBwkACGRzzil7d0gACGRjk1mMzHFkEwBE3m6EnWWGSBAdGQkUTGqLx6jmDt0ME1HzMAmo6niAGHDvNHsuhVM86rF2bV5PY2HzaaNfdHfAsLYXk7E5K6NrelXxrqf4JnnzkQBwrxBbbDKVY2D185TMn0ERYvXZMgKd7rVKsX1YxtYcyWGBSPa/WOKIb4MwuxhzpC9LFl0PjF1+2VeXtzLurFd8TItio15JKv338Jjz2pM/zbFkKVyWwpbxa5MrNukJSv61yA4d1NM9D6wznU7Z1RTDD8Awphe7dDJVYk8ZsEcux/KqoXDaV3GgpwOY8mbJgT3Yy84tGcFk/p0IMamMvnT+uMdmYtmRU1p1HcFU4c64r7ajWpD1wlASOQDSgBCIoVKRjOxBiEZ4mlwqphi0ECsZDSVHSB8H0sMD65fI1uhkpgbxb/kTM4ZBNU4nj26yqXrXpSuUhNb69gtkL995hgRFsqxi7eoW6Vs3JAjQwM56OGBTdm6vH/5gKrl7Th/ZDtFKjbEwiiKwwdPUt3BgbAvr7j41J/qdoW4fPMudsUL8+reDT4bZKCETUYc7QsxbfMF8mRJj/+X93zwN8A2R2y5adVx9PQFalYux9XTB8hfuibmpnqcOXKQstUd0I0M4dCBY+QuY8977wdUq/CHepHimTMH8Qsxok7tGv/4UuLS2RM8e/Uhrv+6TVpjphPA/n0HKVjuD15fv0NlBweunj1L8SqViMWISM55euAbqEfNOnUx1tPFyT4rI+fvxsvrNTUbNf7rU8lIzpw4yJdAI2o71MBIX5dHV49z/4M5JfKZEpkqD9n1PvHYV5fCNtnweXaNELNcZLVSlXeS7hBTDNJp+61nkUGQXmOVBSX+shWAoJ3YkDEgJCyA3AEhvhFIUYvhRztTBzqx4boON0+sx0DqpfwJu0ijFipA+LYGQaMT/4XGAhCkF10AgvQaC0DQjsZK1VkAgvbiQ21JakDwfv6U9JlzYWqsMDoA3no/JWOWXOjryf/aBSBIf+MIQJBeY6W+uEQGQTuxIRtAUBVrUg05MYWavrVTpcYyZUra7oPakfefVkJDQzE2Nv63zAu7KaSAEtOySpsfVz0LoqOjRbGmFIrZX3WjxGeS1D+0pJBcicWa5FJ8TBRrkiIiRZ+SKSAyCJJJG9exyCBIr7HIIGhHY6XqLJsMgijWpL1AFZaSr4AAhORrmFAPAhASUihl/l2J2TAxxZAyvk+oF1kCwucPb/jk66++9izZc2FpFn9KXimLFG/de0CxQgXU4/mWGgsLCWLZUjcCQyJInTYH7Ts5YmaYmEoKCbkUPjy+QmAaG/JkSPPbxtFRERzatZNbXt7kLV6ShrWqYqCl+f9HXl7Y2NryfT/GhMclpxYCEKT3hgAE6TVW6i9bAQjaiQ1ZAsKmVa4Yp1bttwd2FauSNWP8LzrZA0JMNJ4rRuG4+CYfbxz8CRBUxZrsOw7h1IZ5HFw3n03PrNk7t3uKeP3Grnm8s6mPQxGbuP6iIsMJCo3E0vyvPSViIpk3sBXeGWswvEMDls4dTkDeNszoVjdFriGhTnp168WExYtIlzJMlJC5FP93AQgpLuk/OhSAIL3GAhC0o7FSdZYlIGxcs4K2Hbsm6Dm5A8Lrx1dpNXkXZoGvObxjbTyAEFus6fWTu9QfupybO+czrHsjDENNqNV3PKa+t+niMpxM+e1Y574eHf9XTN90ko9X1nP/vSXnju/AyECfrcsmMmL6Wio368TiGaN4uGseV3TMWDdtIVkKO7Bh6VQ8Vk/G7aAXh/66jg8PL1LEYRjPH53EGP60xwAAIABJREFUzECX8OAAth+5SMvGNXnz4DxN2nYgbY6KrFm9jPRG4Ux2W4n37YfMmjqMKUs9+HJrO48iLNk1dzTNnVzIVbYZ6xaMgKAPOLVszYMn75m6bg+17GwZ26spGbJmx3XtEXpOdaNvkyp0chnAoqVz0fN7QcOmzfELS8WUtWupbpM1Qb/LoYEABOm9IABBeo2V+uISGQTtxIYsAWHXplUERxngHxZDi5YtSWcRW0b474ecASEqxJc+XXsyftk6OnV2Yf+W2O2Lv00xqDIIJavUolalCrx8dAensStoUyU/TSvbMGjeYeyK5uLc8cOUq16XMytHcMmgPF2q56NFj/lsWjWJ+ydXcTdtYxpb3GLA4rPsWD+b43vdyWNXj4CLK9jxMgNDuzZieu/2DJi3Hgu9cN74hpM7R2b1ddz03EM71wvc2TaN108fcu/JS/XfV7b/A5fGjizafYhP13Yweu1tVs0dSr2WzixeOJ/Uev407T4R9xVzub5zOqeDC/Fn9yaM6duRBat38OLOBV5HpKeUbWoqtxvDld1udK1bjJaj3bHLE0OL5r3wOHOC+o2d2L5rOZ1LF2HA5tPkNgnC45I3HRxroKOd2E+WFQEIyZIvUScLQEiUTMluJNYgJFvCRHWgRJ1lCQjf1L5zfAMPIvPQonY5xQGC2/iBxJRqSafqRWnu5MzOTSsxMjKMd6vlj28eUqJiM67eusmQ1uVZt/8yujrRnNq6lQveL3l71xOL0p3o26A4w5acY+3UTty+sJftb3NS/MNW7uiXZ6yzQ5xGP04xrJzaiwYuU8mY9ueiTQ8vHKLumF08PbKUx9fOcfTMecaNn8n168cpUqoapUsURUcHCpSpzKwxA+k6zJUNC0fw4dUTBs0/yoZZPbh6cDlPMzSlZel0zBjdg6GT3Hh97yY79uzHNyQYtxNefDy3jV7NKzBh1THSWcbQuk4dNnh4Ur+JE9s3TCdT1gq8+viS1PEzYKJuvH+jkQAE6VUXgCC9xiKDoB2NlaqzrAHh450jHH5uSLuG9ooDhIqFrbn+zE993arvz+3rt+LY7g3x12KIDKRk1py4nXvEwr511IAQ+eoCjYesZ9/mRTz0WMDGF9bxAkKd8OMsv2fE6kk9uXP+EJFpi8CDbXFrEH4FCDEh78mTuQieXs/JlsEcnzfPqNh2HLePTKVW2ZYcvXoG/agI3vn4kSaVSeIAYeJi6tlXZvr2E+Q1Daa4Yz/ue6z5NSDscOWP1Dnx8H5PNtNQFq05gIuLE/oKSCEIQJD+wSoAQXqNlfriElMM2okNWQLC9vWLeeUTjr5xalq1aUkGy9jd+/9+yHmK4cdrrd+yU7xTDMXLVqRwgQJER0CBKg2YPNSZLg3LxGYQIr7Sua0T4cZZKJQlgoCsdeIFhHENcjB+eH8evg7FwMSCGXPn88Fz6T8A4dGJNczc9ZS9G+fHXdqzm6eZMG0JvqGhmJtbMnTiDIrnysihTQtYdfAsemGR1Ok0jJZVCiYOECa5sXrmCLaffkqpMmVZffIar05u+jUg7NnI0xMbmLxsD0TEUKtlXzq3qCymGCS690WxJomE/aFbpW1GJQBB+pj4ZkFMMSRda7FRUtK1E2f+CwqIDIL0oosMgvQaC0DQjsZK1VmWGYTEukwpGYQfx6PELUIT64//UjsBCNJ7WwCC9Bor9cUlphi0ExuyAQRVLYa/12FQ/Vl1xPf/qr9TpUytrKy0o1QKWVHiftwpNPT/qW6Ulq5Xia+09LeoxaCdW0aJzyQlpuuVdv+poi8qKkoWtVDEFIN2ngXCSgopIDIIKSTkb7oRGQTpNRYZBO1orFSdZZNBELUYtBeowlLyFRCAkHwNE+pBAEJCCqXMvyvx17iYYkgZ3yfUiwCEhBRK4X8XaxBSWNB/qTsBCNILLwBBeo2V+stWAIJ2YkOWgBAdEc61Myfxev+ZcpXrkCtrunjVkPMiRb/X95mxeMNf152GEVOGYPHDTopBX33p1KMnubPnVLexLlyJvk71EuX18WPHM2T8WHxvn+AVWSlXNO9P50VHBNOh3WgWu89R2xRHyisgACHlNf17jwIQpNdYAIJ2NFaqzrIEhGN7NhKcphD1yxUiIDiUVKnif83JGRDuHtrA/MvhjO1cC9DHKmsmVHWJftxq2b5jbC2Gb0dMZBif/YIx1IsgJFwPK6t06j0BQgMD8PkagP8HL8LTFWfakB4s27qJyCfX8Y5JSzHbHHz1/UhQaAwZM1mhGxFIkULNOXZnO9G+gVhlzoS+rgJ2H9LevZpsSwIQki1hgh0IQEhQohRpIKYYUkTGBDtRos4yBIQQlrmtw7mHS4KCyxkQjm2ez8lPWUkf8Zxa9dtTKF9G9Xh+BwjBLy5SrM5AylQoxqvLp+g6dwutyueieZuuVK+Un01HHnBqnztdnJzUgPD56CxOhdlRJk0AnYYvw76gOcHWf7BweEeKFKpHqerZ0A0MQKdwa1aPaJ2gnqJB4hUQgJB4rZLaUgBCUpXT7DwlvrjEFINmPk5qa/kBgu8j+kxYS7161fj09C7pi1ShboUS8Y5PzoBw6ch2Tt78SpVK+Vg6czL1+s7G0b7gT4BQulp9HOupMgxQsWUPqlh6U6PLGs6fWM6dfYtwvW3M1Ppp2eptTY8GZXBpYMek9Wfo69xFDQifDk3leFg5coffZ/mlMFxHd0U1dZEtU1qKFKrPoetHsAx6g23rCXw8tSapMSLOi0cBAQjSh4UABOk1VmrqWwCCdmJDfoDw9Qmz1p9ncO/2QBiL3NbTq0f8pZ/lDAgf3r4ldSZrjHTh0MrJ7PlgjdvITr/NIAQ9P0f9Pts4uX8ej4+vYPq5GBb0r4tz/9m0rl+Gte57WLtxM13axmYQvgFCl3rlOLxjDSvWHaBQnUaMc26hnmI4++QwBp9ekL3pGHzPrNNORP1HrAhAkN7RAhCk11gAgnY0VqrO8gMEwM11Ht179SP8y0M2eHjRxamh4jIIE/s4Yd1gDJ1r2jKqexMy1/mTPk1K/QQIVTqo1iAsjxtb8Ivz/wCEGc0yc+FzJhwqlQR00NXVoV3zVszZtpmAw9PUGYQiZn5kLd+ILCbQtX1blq9YKgBB4vteAILEAv+1QZpqoxZ9fX3pjaWQBSVuhiOmGFLI+Ql0o0SdZQkI77298LxwFRNLKypXKk9qc2PFAUKg3we2bd7CE+93FCxTCcfGDhjqfl+DEBzox/BRo7G0SK0eW+ZCFehaPQ8z115k9JD2vLt7kn2PY3DIH8KEVVeoUsKWq8d3U63XTDL43OLkw490rJyRB5G2lMhixvptmwj0D6N0nebUKGbD8GHzGDtnOHr+n+g7bzvLxvTQzl3wH7EiAEF6R4sMgvQaK/WXrZhi0E5syBIQEjt0OU8x/GoMmu6DcHz5KO4ZFKaqXWGuHNxM+krONLSL/TRSHP+eAgIQpNdeAIL0GgtA0I7GStVZAIL24kNtSVNAiImJ5vTOHVx98Z5ydZtQvmBWLV+xMBefAgIQpI8LAQjSa6zUF5fIIGgnNmQDCD4+PurKTN8KNiVUqOlbYItiTdoJFGHlZwWUWKxJLje7JrEUHR2Nrq6uJqf8q23lUtxGExGUWKxJifefEtenyCWeRbEmTe5o0fZfV0BkEKR3gcggSK+xyCBoR2Ol6iyXHxUCELQXp8JSCiggACEFREygCwEI0mus1BeXmGLQTmwIQNCOznFWNF2DoOXLE+YSqYAAhEQKlYxmAhCSIZ4Gpyrx8zsBCBo4OBlNZQcIEV9fsXnPydghRQWjY5mLds1qxztEOX/F8ObWCbpNXEbuTOmBdExyHY/qg8Y4QIiJYvWC8Zy5/YU8ua24du08Q8YvolyRXMlwpzhVWwoIQJBeaQEI0mssMgja0VipOssOEL67K4ZD6xdgXqwhFYvG/9KUMyBc27eKHa+yMaVnzZ8iMK4Ww2dvarYcwakjGzHVg8CXp5m67QmTB3cm4PMbrt55gFlqa+xKFCTU7w1eb/wJ9PeniG0mvD+H8vXjO8KNzSmUw5o7dx+SOnt+SthaExrkz40rVwmJ1qVY6TKkNTPA8/QtrKwNePP6C8XLVSS9qapslDiSo4AAhOSol7hzBSAkTqfkthIZhOQqmLjzlaizbAEhNNCPCUt2MXlQJ3R+UYhQzoDgsW4m89Zf5fy5fTTvPok1cwaqo+gbILy+soUF11Mzw+V7diQ6JoaYMF/ypinNwWdXObFkBAY1x1Nb5yAVnFexbs1Ssvkfp0qfbXjsWMmIlvYYlGzJ1GEtsberze13Xziw+E+i7ZypmeYGMzd4MXdsRzJnL8n42a4UTOtLn01PubNlUuIiWrT6pQICEKQPDgEI0mus1F+2YopBO7EhW0C4e3o34ZntKGlr/Usl5AwIb57e57WfDsUL52T+SGcii7ZnZIeacYDw6uJG3O5nYkrn6pzbvpLdlx7y3DeKmf0dKeHQmdrli/L18zv8s9ViazdrJh8Ixm1Kb16eWMCyW+mZPKANqwY1xLrZZOqUz0udHGlwu+ZDVsNQPA4e4NWnt5y584GNs4eTOXtTnvicIcr7DumaTSfm6gbtRNf/sBUBCNI7VwCC9BoLQNCOxkrVWZ6AEB3G7DEj6DpyGqlMDRUJCFfPnyZ3qcqkNQKP5eM59MWGBUPbxgGCz/v7tB64hgMbZmCgC1EhH+nYfxbjejai6YSD3NwxiejISMIjovG5viFeQFg/tCkZGo+nTvl81LNJjetFH9wGd6Ryx8FU/iM7gwfPYPG0WEB46qsChLukbTpNAEIKPBMEIKSAiAl0IQBBeo2V+uISGQTtxIYsAcHv9X1GrTyD61gXfjG7EJeut7b+dYZBOxLGb2Wr63jWXQhl/qj2dOnUkfEbD1LFJu33RYrRkbi0qIG+TW36dqhJ3x6d6TRiJS2q5KFgxuysvXCXe8eX4GXZkF62DxMNCBOdWzLObS2Xts1i+ZVQPBYJQJAiDgQgSKHqz30KQJBeYwEI2tFYqTrLEhBUC+3efw0np7XqC4BfH3KeYoiJjuDxg/u8/+xH1lx5yZM9cxzUmJmZqf87OjKU+3fu4xsQRMYsOcibOzu6OhDo+57bD7wwNE1DyRKFifB/j7dPNLa5rNULFt8FGpAra0Y+PLuHQfqcpLU04e7lc9iUqEDg59fc93pJDtsChAd/xSZndi5cvEfZCsWJCQvi3L1XVCmZX3t3xf+oJQEI0jtWAIL0Giv1xSUyCNqJDVkCQmKHLmdA+NUYxD4IifWuvNsJQJDePwIQpNdYAIJ2NFaqzrIBhC9fvqhrMfzu+Faf4Vsb1WcjmTPH/jJXyqHET12Uoq02rzMgIAALCwttmky2rdDQUIyN4y+dnuzOJehAiYAglweqJu5Q4jNJALomHk56W7nEs05CgPB3OFANWYkZBCXejEkPr//dMwUgSO9bJQKCEgvyKPGZJABB+vtPZUE2gODn55dgBuHvkigREMQUg3YCW2or4gEltcKxlV1V1eT09fWlN5ZCFgQgpJCQCXQj1iBoR2cBCNrROc6KAAQtCy6ROQEIEgn7Q7cCEKTXWGVBiRkEAQjaiQ0BCNrR+R+AEBYSxPJlSwkKjcDcOivdWrfCUF8vSVfz4dUTrr3WxaFc7iSdL07SXAEBCJprpukZAhA0VSxp7QUgJE03Tc9Sos6yBIQd65ZhmDkXr27dplzDVpTImyVeX8h5isHr1FY6ztlP40pFgFR0H+KMaklbXC0Gn/dUaOqM26QhBPq9ZdLsxUyesxL7kjbxjnXhnNn0GTgo3n+77rkX13MGrBpZV9OYFe2TqIAAhCQKp8FpAhA0ECsZTZX44hIZhGQ4XINTZQgIUbjOX0DvfgN4f/MQJ9+Y0bpeJcUBwrkdSzj0MSdt7XOQOUsuUlnGrh7/ERDsO47mxr4VsX//6gwu00+wcrIzHUetZb3rcL6+uM/w9efpUtaCfiNn0LRVO3r36sWd84fYf/4K5gbpaO/Sife3TzFt72vKZ/2Cb4ABw0YMxUzUY9LgNtC8qQAEzTXT9AwBCJoqlrT2AhCSppumZylRZxkCApzdt43rH4N5eusBIyaPJ5OFkeIAYfuSMQwat4/Grcqye99pzt+4RxZLnV8CgmqAdRo3Z8eyqaSy60fwCw8+3PCk5BB3Ph1zo49LNxYuXQ740aTlYHZtWcGXJ2d5HJoZA5979Jh2ibMHJuM+dzjh5frTpXwmTeNXtNdAAQEIGoiVxKYCEJIonIanKfHFJTIIGjo5ic1lBwiRQe9Ysno/TZo2wO/dXe690aVFw2qKA4TggK9E6hhhaW7MtvkjOR9ZhLmDWv8GEAJp0LQ37ktG/R4QXnnSd9V9FoztEafJj1MMe1ZN5UXONvSrliOJISFOS4wCAhASo1Ly2ghASJ5+iT1bAEJilUpeOyXqLDtA8H9xmRWHnjGweysiQ97iuvIw/Xt3UhwgrF04k4INnCmTMxWrp/bDK3V1pvRoGC8gREdHsHvZn9wIK8rINnZYFOhEwKczeJ8/QMWx+9UZhJ7durB4+Urwf0i7YetY7zaFoLd3eexvQcyHW3FrEAQgJO8mTuzZAhASq1TS2wlASLp2mpypxBeXyCBo4uGkt5UdIKiGsnT2eCLMs/H68Q2adhmIXcFcigOEJzeO0bzVcCrbl+bK4894HNlOGoPvaxD8fT9QpV5j7EuV4snDy/ikLs+hTfOw1A+jaZlcmBWpxZcPr7hvUJRne+cyaWBn/NIVZfzAXkwf1AHv6Gw8OrUR110X0fe9w7KL+iwaVJMD6+fgnb05PapkT3pUiDMTVEAAQoISJbuBAIRkS5ioDgQgJEqmZDdSos6yBIToqEgC/APQNzHFzDj+9Qcqb8n5KwbV9YUGB/LlawBp06fHyCB21eC3RYox0dF8+vSRqOgY9AwNyZA2LTo6sbUroyJC+OTrT6pUqfAPDsMqbSoiwkPw/RJAhgwZICaST599MDGzxNLclIjwUILDdUhlbqS2GaVvgplh0j6ZTPZd8B/pQACC9I4WgCC9xioLSnxxiQyCdmJDloCQ2KHLHRDiG4fYKCmx3pV3OwEI0vtHAIL0GgtA0I7GStVZNoAQXy2G+OovfHOn6t9EsSbtBbew9LMCgYGBmJubK0oWJRZrio6ORk9POdkwuTxQNQlMJWYQlFgLJSQkBBMTE01c86+3jYyMlMVW5zrfajH8Dgr+rpbq17io5vivx9B/8gKU+IBSGiCop9uiogQgSHyHKREQRAZP4qD4q3vZAYImwxZTDJqoJdqmpALiAZWSasbfl5hikF5jpaa+xRoE7cSGXDJicRkETYYtAEETtUTblFRAAEJKqikAQXo1f21BiRkEAQjaiRhZAkL4V18OnT6BTbGKFMz+6x0B5QwIX98+YsHKrX95MTUD/uyDasY67iuGqHAmDuzEjJVbsavRmn3uKzEzTtr+yG/vXaRAz5V89VzOkeMHqFW93j+iZ8uC4byzak7/lqW1E1n/41YEIEjvYJFBkF5jkUHQjsZK1Vl+gBD2iXlLttGkSQMenPXA0LYy1coUiNeLcgaEu0c2MvXIB/q3VNWRMKZYmSIY/gAIb+94MHKzN66j23Pl5F4OPTVnet/6SYrWt3cvYtt9GUFnl3H5wnXsytn9ox/3eUN5m8mRga3KJMmGOOlnBQQgSB8RAhCk11ipLy6RQdBObMgOEL4+Pc+mi370aOsAod4sd79Kt45NFQcIx90XsOueKXY2BuTMX4rKZQurx/Atg/D51TVa9V/GhBF9KVMiPwZ6evRu7UjnBRsoZvScXCU78eDxBd6fXs4N3bJkCfZi2Z4DxAREYd+sHe0bVGDcwJ7ceRtFrkxmLL0ZRtDZVXTt3IolbqsY0LM7ATEx6ESb4LrElX1LRrPzLljEvObJ+yh2bNtMelNd7UTZ/6AVAQjSO1UAgvQaC0DQjsZK1Vl2gECEPxMmzaZNZ2duntzM8/AsDHFurThAOLBmDvvvwKRRrejW0IHW0/fiWCF7HCCoBvT07mn69x/KjafBeJw8wYtjbtzUqUi18O0sO3SDNpP3cmNuS5qN28q8cQOZOGOOWod+g0cxe3QvSri48vbYUrxvnaNAr5VxgLBg9kLK127H/oNbyWhpiqGBPj9mEEa2rkW5ERtoUDSj9u6O/zFLAhCkd6gABOk1VuqLS2QQtBMb8gMEwP/LZ9599CG1cTAHL7yjYysHxQHCjxd8bM1Udr2zZtGIDnGAEPL1K9GmZpgZ6OF1/Rz2fZZxf1NP2g7ahPnDHQycO4Mtlz5zZL07F+6dp0uL+vQdNFLdrb6JJVbGYXSee5ITy4fwfYohNoOwYuVmnnnd4/DuPew6c5ntW7bgsWxM3BTDuM51KNV/nQCEZNxjAhCSIV4iTxWAkEihktlMLFJMpoCJPF2JOssSEIIDAzEy0GfnmqXYVHOkhK214gBh+hAXjEs70c2hOH/2a49tk1F0b1A6DhBu7HNl1VX4s29bnl85RvcVl7m2fRp9GpXlAjW5unMErewrYlRrDOv/bM5Ql3Y0HjibUlljcN9znibVipHPvjM3zu/n0anNOMy5EJdBcHVdzsY9nnRoWZ8t0/uSr+N4nmyZKgAhkTdyYpoJQEiMSslrIwAhefol9mwlvrhEBiGx3k1eO1kCwvqFk7nlHUJbF2dK2Py66JCcFylGhn5h7OAB7D55hfb9xzKsWwu1p76tQYiODGfRnLGs3LSHzEUrs3HpfNKaGLFn2Rje2XSie7VcTOnXntqj11EqA/i8eohLz668fK/DjGWrqFrClhPucxk8ZTP1mzmy//FXrm+cxJ+jBjFx4nQ2zpnMzA1bKFnbEbfJYzi+aS4f09eho0NhFo1ypmD7aVTNlzZ50fMfPlsAgvTOF4AgvcZiikE7GitVZ1kCQmJdJmdA+NUYRC2GxHpX3u0EIEjvHwEI0mus1BeXyCBoJzYEIGhH5zgrAhC0LLhE5gQgSCTsD90KQJBeYwEI2tFYqTrLBhB8fHxiVCKqHgrf6jH87v9V/6YqfmFlZaU9D6eApbCwMIyMfl3COgVMiC60oIASC6+Eh4djaKjajUMZh+oeV1qxJrnsXa+Jh5X4TFLiugkl6iyXWihiq2VN7mjR9l9XQGQQpHeByCBIr7FSf9mKKQbtxIZsMgjfqjlqMmyxBkETtUTblFRAAEJKqhl/XwIQpNdYAIJ2NFaqzgIQtBcfakvf1iBERUXyxOsxkVExmJmlI0eOTOjopMzFhPr7EGFogYXxr9PJMZFh3H/0RG1Q39gUm5y50NNLGfv/hV4EIEjvZQEI0mus1BeXyCBoJzZkBQhRkRHsWbOQQg16kc/KiOioEGZNGsGDV9EMmziV/JnNflJFCRmEyI8PKNRkCI/O7f8JEL76vKdMdQca1qjEmX376bJgG861S6aI12/smsc7m/o4FLH5ZX9hHx+RKmdJunXvgdfN4wSnqs2JndPQTyFISZGByLgTAQjSO0cAgvQaC0DQjsZK1Vk2gPDmyf2YJRsOEvHhDk36TydfRn1WTv+T0i0GkjddNINGzGPGgimY6393qNwBIezrR/6oUR/dtDZcO7zpH4Bg33E0N/at4M2T29QZtJI7e+Zz3vMQ2TNYoZshJ2mNozmw24O0uYtQtUJxQoL8uf74E0bhL3jro0v9uvbo6ujwxcebAwdPU7JSDQrmyEQsINRG1/se5lZFqVA6L3fP72fbaW8mDO+pvg4VIGQqVIXnr95jqetL9RJl2Hb+HulT6XPxzAHefIykdqMmmOvrcvbgZvIU/YPTZy5RpUFTIrwfcP7+R5o2q4mq/mTAJ28OHvIke5EK/FE8Nx/fPOP5F0MC3l5B3yIX9uWKq22+fn6b0xfuU7leY7KmMgaiuXrOg+efzWhYrypGP/hWe7dt0iwJQEiabpqcJQBBE7WS3laJC/5EBiHp/tbkTNkAQuwahBjWzx6LndMobNNEMWDsYmZNHYwBUcwe2JUmw13JnfF7FkHegBDNiqlDyd1wIHMmjGL/ltX/AIQKzZxZPGEw9y6f5GvmigxvW51mlbKTp0Jv+g1yxmPdQtLZlubqzoXYtphA3UKWNOs2jg4tavH8xhHKdZtHVatPtO4wjG79e7J360b6TVpM1JWVzD/hTY3ypdmxxI1V+4/i++QSx2/74tyh2XdAKFiZh09fEvjqIl26z+TA8b0smdCPL6mLUjyTLrvOv2S920ScyhiS3n40pXIYMHbRXvr07YL/43N8yFKHJYNbMnL4SP6oWIH9C4fTbb4H4c88Gbr4LD1aV2Gf+yr6u+4lX9R1uv+5ltbN67Bq1TKWrN/FpW2LuR+ZgXyGvhy758vSORM0id1/ta0ABOnlF4AgvcZK/WUrAEE7sSFbQMhtGU7/aatYNL6fWgm3MZ2p3n0uea1TxSkjZ0C4e9yd6R4fWDe7Hw1adooXEOxqOdKzfXPev33C+Y9pObZiHJ0a2rFu/2V1ZiDA9zMf/X25sX8J1/mDvg2KM2zJOdZO7cTtC3vZ/jYnf/ju5lRwfmb0i92pUXX8OMWwcmovGrhMJWNay58iSpVBMM1ciKzZsqGrp8ecDUdpUi4Xjm07sm3jGnVbxzrVGbfpOFMdTBnp/oqCmSIolb8Sno+9+HJ7H63dbnB25Ri+fHzPx69fuOA+nozVRpDq6x3cH2Zi4cAabJw3nMBSvdDZNwDL6kNoVbts3HV0aVyF7CWqqf98/tpdDu/dpp2oTwErAhBSQMQEuhCAIL3GAhC0o7FSdZYtIORNG82AwVOZMGcClrrh/OnSm95zFmP1wxyDnAGhgX0ZcpWuhpmBLrt272fA0BG4dGoTt0hRtQbh2xRDTHQw1bPkYOqZhyzsVycWEEJe0rzpUKa5zeT12bUc+Zo/XkAo67Ob06EFmN7XUWNA+DbFYBj4iHKV2nLu5iU6de7yHRDqVmfsxuNM+x0gzG1GlwGbGD1AZN2ZAAAgAElEQVTGhbs7J6Jn1zt+QNjbn1Q1h9Gyll3cdbq0bcSEOcvUf9bRMyBjeuVs/SwAQfoHqwAE6TVW6otLZBC0ExuyBYR8Voac3bWSF5GZyZHOgHuf9XBpUZ0f19DJGRBuXr2If3C42ovDx03DbcFsihUu8BMglK/fjnEDnfF//5zp645z9tQBBrYopwaEGN/H1HIcyMhRAzi9exkR+ZrHCwiD7GJo330MPfv2ZdX8SfSavhGLJ1vjFil+yyC8uObBltMvmT1xmPqaflyDkNo4Gud6ZRi35gTrZw0nKntFilnpst7jButWzaDzH7/OIJya5ECbYRvo2roWHhumU6vngngBoVnGp/SftoM2TWsyZdRQ1hy6xNWd87kZkZMqtgYcu/iC2ZNGaCfqU8CKAIQUEFFkEKQXMREWxBqERIiUAk2UqLPMAAG87lwlg00JUpvEfnPndfsaHyN1KVeiBLp/W2EvZ0D4MZ4OH/ekdvUq6r/69pljeGgI27a6ExIehamFFY7NHDDQ1+Pkod3Y126s/uTx6b2rnLn6knpVC/Ai0JhC2dNx+cEH7MvkxffDS54FW1A6V1p8P71g557jVKtdn9zZrPB5cZdgy+xkS2vJo5vnyF6gDJFfXnHjRTCV/yiivo6okK9s3LGfVq3bYqgH984dI23R8mS2MOTsyZ14v4ukgWMrLAx0OblnNSWqtSa1aTS7tu2nfosWhPm85OQDHxpULsmVM4fx/mJIjWKW+BvnxDD8C0/9TChfJAtP7l4hIn1BCmQy4+XT65w4/YAmrZqS2sREdRVc9NzDk1dR1G/ehNTGylmlKAAhBZ6YAhCkFzERFpT44hIZhEQ4NgWayA4QNBmTUgDhxzGJWgyaeFi+bQUgSO8bMcUgvcYqCwIQhM6/UkAAgnZiI86KAAQtCy6ROQEIEgn7Q7cCEKTXWACCdjRWqs6yAQRfX9+YH4szJaZgk4p8M2XKpD0Pp4Cl0NBQjI1VewCIQ8kKKPFXlyjWJH3EKbFYkxKfSUq8/5RYrEku8SyKNUn/7BIWUlABkUFIQTF/0ZXIIEivsVJ/2Yo1CNqJDdlkEESxJu04XFhJGQUEIKSMjr/rRQCC9BoLQNCOxkrVWXaAEBroB8aWGOvrxnkuyN8XU4u0/yhmJOdFiuHBftx9+OyvMRhRpGQh9bbEcWsQYqK5fsGTW4+ekiGLDXWqV0Zf7/uYNQ3b0MDPhOuaYWmq+jrg+xEdEcom92O0bFdfbV8cKaOAAISU0VEAgvQ6JmRBiel6kUFIyKsp8++yAYQvvr4xH18/Y8bUaTiPWxRbrCkygusXjrJplyfTZk7DUO/n7xzlDAhenltpNHI59sVsgfRMWTyB1D8AwqfXN6nbejpbN81g9cwxWFTtxdAmpZPs1fOrpvDeti5NK5X4qY/IwE9kzt6Up75n+HkvxSSbEicCAhCkDwORQZBeY6X+shWAoJ3YkA0gfPB+HnP2pjdPzrhj33WcGhB8nz/gVZAuR91X0Xe8sgDh3M6lHPtSkLFdKv3kyW8ZhLcPPBi5+RNrJnQgPDSIt59DSBX2iEEzD2Dke5dPehlxXbqETBa6rHOdzLpNHpSo2ZwpYwdyft8qLn404dTOxWQq3ojV04bw9NRyXqe1p2gGPQYN7s2LdzBpvit2uSzUgDB4THk89txk2tptlMsuUCG5t5cAhOQqmPD5AhAS1iglWogMQkqomHAfStRZNoDw92JNKkCIPcKYM2YMvccqCxD2rpzGqoOvyJNDnxfPfZjiuoR81uY/bJQUzNgR/Xj8NoRSduXo2b0b4c+OUNnJlbMX9nJ10zR2Pk/P4rFdWLP1MB3a1Gde/xa0GLGU6/sWsemKEavn9WZo23o0nraXzPdn89SqCUFXtvIifSMG1bfG49xDGlYpTubsVdl5fAcZwl9QedRePh5blHA0ixa/VUAAgvQBIgBBeo1FBkE7GitVZwEIWoiPnYtG4RlcgPlDnOIAIToyCvR00dWJYrvbDKaeCOLgmHK0HHGMk/vnwbur1OrrxiH3xRxYuYpLr19z++oJ5i7bw22PJTwwqsnIDuWY3qc5Np1cyfvCTQ0IpdJH06FTJ/IXr4vzoN4UtjKKm2KI8r5L2qbTiLm6QQuj/t82IQBBev8KQJBeY6W+uMQUg3ZiQwCCRDpPHNyLpiMXUSgtbJ4zkBt6FZjRr1kcIHiuGcPnAk40K5sX39dPyNNgGPfXdaLNX4Dw8cZunOdeZHHPIqx7lJ6BbaqzfX5/yrYa81tAqFs6P4b6+nzx9aHvkNGscZ0iAEECHwtAkEDUv3UpAEF6jQUgaEdjpeosAEGi+Lh/6QgTZq0lVSoTAqONmTZ7FtnSGMcBQuCnl3TvPQQ9M1MiIqNo3GUQ9mlfU95xGq3qlebuvad0nziPitnCaddjPIWKFMf31XkGTVzxW0DI8Pkeq09cIpVOBKnzl2eEUx0BCBL4WACCBKIKQJBe1HgsKHFuXGQQtBMqMgMEzQYt568YfjWS3221/PHO/u9TDJpJIVprWQEBCNILLjII0mus1F+2AhC0ExsCELSjc5wVAQhaFlwicwIQJBL2h24FIEivsQAE7WisVJ1lAwiJrcWgElr14FD9LyQkBCsrK+15OAUsKXE/7hQY9v9cF6rYM1GXrFbOobRaDCplo6Ki0NOLLf2uhEMue9dropUSn0lKnBZRos5yuf9ELQZN7mjR9l9XQGQQpHeByCBIr7FSf9mKKQbtxIZsMgiiFoN2HC6spIwCAhBSRsff9SIAQXqNBSBoR2Ol6iwAQXvxobb0uzUIWr4UYS4ZCghASIZ4iTxVAEIihUpmMyWm60UGIZlOT+TpMgOEGJ7eu0naXEVJY6pHWIAv5y9dI1zPgEqVK2H6t7lIOX/FEPD+KSs27/3LDalwHtAZsx8AIcj/Cz37D8DaKrO6jU1pB7o0+3lb5kT68Kdm4V9e0mXAalatGSeKMyVFwESeIwAhkUIlo5kAhGSIp8GpAhA0ECsZTZWos2wA4fO71zGb167lzLnzDJq1Sl2LYcfqhRR3cCLm7W02XQtgTNf6P7lHzoBw7/BGZl8IYmyn2oAB1jmsf6rm+NXnPfYdR3Nj34q4MYWFBhOtY0B4RASpzE0JCw0iOCSSVKkt0dXRITjQH0MjYwICgzG3tMRAXf0xhsAAf6KidbG0tCDsw31syw/n3r1NRIfHkCqVBT+XuEpGhItT4xQQgCB9MAhAkF5jlQUlvrhEBkE7sSEbQPD9/CnG92sQB1bP5o92o9WA8G0FZdCX9/y57BBzhnVUDCAcd1/AiU/ZyK7/HvuajuSzSa++9m9TDPEBwqZ5g9l62Y+cpaozsq41XUYspJhtZoIzlmTO0E4MblOBZ2HZSGcYhm+agmxfNJldiyay+twLsur4Uah1P7qWSY9V/rY4tivH54f3qdZnBn0b2mknmv5DVgQgSO9sAQjSaywAQTsaK1Vn2QDCr4o1RUeG4rHdnfTFavBHgayKAYRzBzZx4Nx7qlYtwIr5c3Aa5UaDcjY/AULpavVp7lAT0KXTwBGcXT6Yp5YNmNy7Hv1b1cG6hgslsxszqN9wdl28znSnMgxfeopcmaJoWKke20+fo2mzFmzaug1z/WiePH9DdrMAcpXpjdfTo7y/vIfOa+9xevmf2rsL/iOWBCBI72gBCNJrrNQXl8ggaCc2ZA0IESH+bHXfRI6i1ahYKu8/FJHzFMMXHx/M06TDQBcOrZzMng/WuI3s9NsMwqop3fHN2ZnBbexoUqMKpRq1x9osdoKgYcv2jGtXgTErT5IxDbSsUZ31h87RocdQNi+fFadN6PvYKYanz/by4doBWrhe4cLqcdqJpv+QFQEI0jtbAIL0GgtA0I7GStVZxoBgwMopY6jSdTg2Gc3j9aKcAWHqwE5ka/gnTva5Gde7OamqDGGAY9lEA8Ikl2akrz8CF4diTJs0C5ehIxjTtuw/AKGxQx2W7TpCRn0/eo1axcLBdQQgaOGeF4AgvcgCEKTXWKkvLpFB0E5syAwQ4NTuTdjaO5LFElatWIuhmUncIrv6zVqRyvj7rmpyBoSvn16pr//jlwCy5i9B146tMNL9vgYhOOALo+ZvZO7o3nGePrbdjcCMNWhc2ZZgn1e4rVhDYGgEeexq4VS3IkunDaFl70mkNoeZY/5kwLjpvLx7jrXbDhETCm169cImVSTdh69j6dJR+D29yowDXszo21o70fQfsiIAQXpnC0CQXmMBCNrRWKk6yw4QNHGXnAHhV+MQ+yBo4mH5thWAIL1vBCBIr7FSX1wig6Cd2BCAoB2d46wIQNCy4BKZE4AgkbA/dCsAQXqNBSBoR2Ol6iwbQPhWrEn1UFAd3woyfXNffH9Wfb8rijVpL8CFpe8KKLFYk1xudk3iKDo6Gl1d1X4fyjjkUtxGE7WUWERIifefKJamSVT+3FYUa0q6duLMf0EBkUGQXnSRQZBeY6X+shVTDNqJDbn8qBCAoB1/CysppIAAhBQS8jfdCECQXmMBCNrRWKk6C0DQXnyoLYk1CFoWXCJzAhAkEvaHbgUgSK+xUl9cIoOgndiQFSBEhAZyYOdWStV1IlsaQ57eOMtVr3eEBQZQo2lrrFOb/KSKnL9ieHv3NH2mrCBrhjRAOibMH0OqX2y1fPeSJ3mKl8PEyPAfXvf39WLwQk+Wje3I+H49GDDVFUtTI+1Eh7DySwUEIEgfHAIQpNdYAIJ2NFaqzrIBhHfPHsb8OWEWZoTSZsRsdS2GgIAALCwseP/yIes9XzOkfQ3FAML1/avZ9tKaqb1UxZq+H3+vxeC5bgpTB3SlZudh2JUug150ME+evMDA2JTctraEfn3yFyB0xfvpfaxzFiAqLJDnz54TEaOHTd68GOvFcOf+S1Kl0uGrfxi58+XH3PD7fhHauwX+O5YEIEjvawEI0mus1BeXyCBoJzZkAwhfvvjGREaB+/xx2DmNUgOC+oiK4qTHFizz16CUbUbFAMLBdbNw3XaP+7dP0KDDCBZM6K6+9r8DwgX3ucwa1Jn6vSZQIF9epg/qRJPekzi3fjJB+VvQzSF7HCB0qJWH2TvusXrCYNLXcKao7gWOPEnPoBYlMLUqz8pNK+HNZfa+z8iO6b20E0H/USsCEKR3vAAE6TUWgKAdjZWqs2wAId5iTRH+HD16lvfvvMlaogZVS9ooBhCe3bvKs886VCibj5mDumBSoSdD2lSJd6vlRUM64jhiARnTWhL06QPHzp/h4YUDPDYtz9ze9v8ABMvoIE54evLhyzvOeIWzeEAjUmVvz+fAs3y9e5KKo/bybO9c7UX+f9CSAATpnS4AQXqNlfriEhkE7cSGvAHhLw1C/T/hMn41q2YP5cfEuZzXIDy8ewvrvMWwNITDKyey/3NOFg5r91tAyGAaSuMqjRi+eiNmr44w/5JevIAwvENrGvUZQZXy2Rk1ZTOz+zYidfb2+ASd5et9T8oP3y0AQeL7RwCCxAL/tReKal8BfX196Y2lkAUlfuuu2k/G1NQ0hRTQTjcCELSjs3wBIYMuew6eolrNytw/f5Kb/mlxaWinmAzChlkj2XrHkFWTu9GscQNGrz9CzQLp4wUEt2Ht+KPXPEpYfqJUtR5cvXaSge3r4G/bjPn9mtKs9zR2r5pC93r51VMMnZu3ZOPuHeye14e9vnnZOFwAgnZul+9WBCBIr7jIIEivscggaEdjpeosM0CAl4/vkTZHASyMdHjz3IvXH30xsUxL4Xy26OrGlj7+dsg5gxAdFcb1Sxd5+e4zNoVKUix/LvVlf1uDEBEeiueVe9SoUIoA33ccO3WeClXr4vPiFveefqR4kTz4RZtRKl92zpw8gVWewvi/uknRcrV5++QON+6/oNgf5Qn86keRPNbs8bhCw8b2RPh/4uTdt9QtX0x7kf8ftCQAQXqnC0CQXmOlvrhEBkE7sSE7QNBk2HIGhF+NQ+yDoImH5dtWAIL0vhGAIL3GAhC0o7FSdZY9IHyrzRCfG1VzZ5kzZ9aeh1PAkgCEFBBRBl18+wRXBpeS6EsIDQ3F2Ng40e3/7YZKBAS5PFA18Z0S1yAIQNfEw0lvK5d41vny5Utslaa/jvjA4O9/p3rZKg0QlFhkJOnh9b97ZmBgIObm5ooaoBKL8iit+JFcHqiaBKYSn0kC0DXxcNLbRkZGymKRsKjFkHQfijP/BQXELxjpRVdiBkF8xSB9XKgsiDUI2tFZLsArAEE7/hZWUkgBAQgpJORvuhGAIL3GKgtKnGIQgKCd2BCAoB2d46x8W4MQFhLEhvXrCAmPIku2vDRqWBNdnZ+/0tDypQlzGiggAEEDsZLYVABCEoXT8DQBCBoKlsTmStRZNoDw5fOnmFtXL7N/13YcB077vtUykSyfNByrugNpWMr6J9fI+SuGJ6e30XLCJmqWzgekZeS0oVj+8Jnjl09vqd2uD9OGdufW2WPc0SvEqlHtfxt6IV99GOO2g5nDnRMM0dCATwRGGpM+jUWCbUUDzRUQgKC5ZpqeIQBBU8WS1l6JLy6RQUiarzU9SzaA8ObZw5gdR24Q9vwslTuPiQOEexePcvT+C2yK1aO+ggDhws6leHzMRTeHfKRLnxkz09hKjd8yCCpAaNxnGp7uC/B59QSbWv358GAPt057sP/kdbLkLUzLhg0w0gln/Z5DxARHYBHykEGLDjFu1GjqV7Tl5Atoa5+fu5eP8sKkOA75zdi5dfv/tXceUFUcXRz/0VUQERQR7D1qjBp7b7FjS+xdwQ5q7L3GLiqKil0RK/bewdgbsWDHgoIICggKUt93HgpCNCrKbna/zJ6TE4TZubv/e+ft792ZnctDv4ccPX6OaQtd+evgcjr2n0gGgzfMn+rKoLHDCHjgw5Zdu4mOy0o3+y5ky5jA7m2buHb/CZVr2VK/RjmiQgNYu2kjr15n4LdOHSiYU1uVUhxJCghAkD4WBCBIr7HWggAEofM/KaAYQPhkLQYiWb16F7Wq5MHndX5VAYLHkvEMm3YA21ZlOHzcG89zF7Ey/jsgTGbnkinsWTmPHcF5WNalIK3HbOTApsV4bZjF/ud5+KNvUxq0d2DXxlXovXlG3b6zOe/hzP1rp1h6WQfn3rU4vGkBl7I05ecna/HWq4BDq/JUaOLI5TOb6dPkRxZtu4JJhlCaVOrAvnNHad6sCys2uZIQ8pjRS04wqLYFgzffYe/CoWzbs5+OrZvTtUIhBqw7SwGjQArXG4H/vcNk1JVnIKnBigAE6b0kAEF6jQUgyKOxWnVWLCAUzJqAy0JXfu3ek/gX17geoS5AiAh9QYxORizMjNk4dziXdMsxd3CbVBmE2q168Lt9B0xMs9GoSX083eewPygXC4d3IsH/PI0Gr8Rj2TT6TlzN+vnDiAh+Sq1eM7i8YxE3L534CBDqhG9nr78NY+zqU6nZQC56utPrE4BQo1Yd6tauSUJCPC90sjF3UFumT53C3YcvadjNjs51S5HVojC9hw7GWC+O+3d8WbhqPWaCEJI/TQQgSP/BKgBBeo3V+uASUwzyxIZiAcEmYxjLlq4mJgGi3oQSHp8Rh/4OFLCxSFZGyWsQNixdQEnbnpSyMWH9nKFcN6rCTIdWn5xiSLqhi3uWM88rnA1zhvDs8k76Lz7P2rlDUgFCtZ7TuLp7Mbcue+LkGcnyIY3ZsWIKt2w60DWvHwPHOJPD3IKeIydTtrA13ZqUYqHHJQzin9CsXm8OnzvKL807sHvbBgyJxffxc3JaGBEekwGbrLo0te3Iml1u1M5ljce1ZxTOpseVa/coU6YUeiKDIABBns+lRCsCEOQRW0wxCJ1VM8Ww3mki5TuNpqilUfI1P757hhuv89GkrHoWKd65uJ8GtoOxbVqDY1cec+rcYcwNU08x/DpoFsfd56fwTSRdatchZ82GHPbYxcJNB/kplx79J69lndMQYt+EULx4RfpOcqL7L0XJV7QGzZpV5k7gC1oNX0uHrN6UqdaeSH09KlRvysat7uyc2gnPQHOieE6Y7xv+PHMY15G92HY3mnyZn/Fjq/G0KaSheitH2rdvwfEb9/nTw437R1zps+A4+S0T8LP4hUOzv7wwUp5hpgwrIoMgvR8EIEivscggyKOxWnVWWAYBIsJCyJA5KwZ6H175i4t9S3SCPsZGqcu+KjmDoA2IN+EhBAaHktMmF5kyvAOepEWKCfFxPHsRhk2ObKkiNDY2Ej+/Z5hZ5sAis0niNEBwSAQ5spkltgsPCyQ8So9cObMREhhARIIe2UwzEqObkTk9m1Ju0DKalMnJ8nE9MKjYix5NK+L31J/s1jl5/SKMnLm0kJXAM/8nxCUYYJMrZ+LrlZHhoTwLDiGHTS5M3l9r0POnvI3RIVduG0TyIPUHiQAE6T9YBSBIr7FaH1xiikGe2FAcIKTltpUOCJ+6FylrMVw9sYVV+y6SP1c2fB+9Yezk0eQwVc/e+2nx/b/dVgCC9B4QgCC9xgIQ5NFYrTorDhA+V5zp765UYy0GNc73yTeE1GNJ7AUvj69ELQbpdVbjZ5IAdOnjQmtBMbUY/l6sKen2PwcMAhDkCRJh5WMF1FisSW3VHLWqC0CQfvSJYk3Sa6y1oEadFQMI7/ZBSNshphjSppdonX4KiG8w6aflP/Ukphik11itqW+xBkGe2FDcFENablsAQlrUEm3TUwEBCOmp5qf7EoAgvcYCEOTRWK06Kw4QQp7eA/P8mGfSJ/ZVAAdPXk70oEXu4lQpXTCVN9UCCJu276Jdq+aJ1560SDEiNJjqVSsR/OotuQtUZs9BN7IbZ0yXaL1xYAXP89ejbrF8n+1v78rJDJ62gnzFq7B6wyZyZQ5n4Ih5LJg54auu48ghD2rXa4X+f3CDBAEIXxUi39VIAMJ3yffVJ6txDYLIIHy1e7+roWIAIcj/kWbtmnXcvXEDu4kLE2sxBHjv48DdBKr+VBhjs+zktvqwSVLSw9baOvXeCN+lRnqfHB/DuJ4NWX0rM0/P70oFCK9eBlKr2yjOeSzG23MvQ9x9OL1uYrpcgfeO+Twr1JTGPxZK7i8yPJh7TyP4qXiBxN89uHyc6n0XcvWoG7e9djBryy22rxtOzz5TWOs69yuuI46D23dTt3kLDAQgfIVe/34Ttc2BCkCQJ2YEIAid/0kBxQBC8LMAzfNwHU6sn06FTmMSAeHWsY3ciLGmToWfsLB4tw9AykPpGYSLR7aw+roOfuf3s3fz6k8AwmgubHflxtkjjNt2k70LhtK+fjEsLSvRadR4Hp32YMOOk8TFxjJpqRvWBmH0HLuEPBkC8bn9nLXb95HXLI7Jwwdx/t5zDE2z4eyyhBDPpWy+F87DixcIjTBh5671nN2xhFXHH+G+zCnxOp7dukD5VkPYsWk5JYoVIJORtphUGF17vwOEJxd24zhpGTrxcfw2cj4Rh6eiKd+fPi0rMdOuEQU7zmLv3M64bLvMxX3rmLNuB7rR0HboGDrWrSTPiPsXrYgMgvTiC0CQXmOtBQEIQmfFA8KnijX5Xj3Dn96++N64QoWW/bCtWlg1gBD76jGNmw9g37FdtOrQ85OAUKxIocQpBu3GUFsPX6BR+fx0alyetXvOo6enS0JCArq6uvjsmYe7nw2OTUvjOP8Um5164P3nFnYGF6Nx3AmW/KXL2ukOie11dHT5a+d8/As0oelPhVk0uidths7D0jwzGg3o6HzYgOpF0GPsOzXnhHcYG4560finLMmAoElI0Dbm5YPLFOzhSpB7d7pN2MV6lzGUrNCK05eP8nvLnxIBoXXrTuzYtQkjNCRoQFf3gw15hp78VgQgSK+5AATpNRaAII/GatVZMRmET1dzfOe8mNch9BnizGLXiaTc9kfJGYQhPTtRt89IyuSyoHvvgWxYswxzc7PkNQjvphjG4r1nBVERz6n0Q3k2XvBhmn0d1u29gK5ONJPsB1CgSQt4cIRbhlVxtC3NiKWnWTu9O9fO7sYjIB+ln2/hun4VJvRqnBzpKacYVk7vj23v6Viam6YaCdGRkURq9MlqbMgz3ws0rm+P141jOAyazlrXWawY0peXecrxg5UOnVzOE35yGQP62DNh3Agmrb/AohGd6Nb0HSD07DuYTasWyjfSFGBJAIL0ThCAIL3Gan1wiTUI8sSGogEh4tUrMpqaEvzoDrNWn2DW5L4YpNBFyYAwbcwg7j8LT7zao55/0tdhMKMG90sNCJ2G47V5EW9ePqFapfrsvXqHP3rWTgSEhICLNOrnyuGdy9niNIirRtU+CQids99m+MpLbF05kw2LJ1Ogth3G97cmr0FIAgTN62dcfxRGvRoVE6/p/CF3hrh6s33lOKL8r9Gi3TD+vHQEuz7DWbdwAtkti3EjIJjQa3upNm4f4SdXsM5pCg+i39KwVV8qFc31ARDatWH8gtXYGAazZv91BvZoKU/0/otWBCBIL74ABOk1FoAgj8Zq1VlxgLBl8UzKth5MoexGXNy/hmU7vLDIX4oxQx3IbKiuWgxJodfRzhH3Fc6J/0x6iyE8JIjKFcsRFBaFcZZcOLttplnlIvRt/wsuGw4n1keY5NAG1+0+zBrfnkf6JenV4EcmrbmAy9j2+Fw8yJ7A3Iy0LcHWFWPoN2o57XqNZOEfv3N9vyuB+evzyw/5cZ8/nAbdxnHfy52FB/xwXzrt/WXFs8V5MsPmLidr/p9Y77aOkrmzM7R7GyIKNqSFtT+9xi6nk10fNnkH8XDPfJ7fPEX1Ng6cO3cecxNDHDrUZObqY7wOuEjLNl14HmrJoePbKJjHSr5R9y9ZEoAgvfACEKTXWK0PLpFBkCc2FAYIabtpJWcQ/ulOpKzFkDb1ROvvUUAAwveo93XnCkD4Op2+t5VYpPi9Cn7d+WrUWQDC1/k23VoJQEg3Kf/VjgQgSC+/AATpNRYZBHk0VqvOigEEX19fjfYDIeV/WlG1K/NT/j/l3w89PE/v2m3l83A6WGVF2I4AACAASURBVIqJicHQUPtKoTjUrIAa6xooZbCnxe9Jb/Kk5Zx/s63aakdotVLjZ5IYf/JEuVLGn87jx4/TXIthwPZZ7B60SB6l0smKyCCkk5D/cjcigyC9A0QGQXqN1frNVqxBkCc2lPKlQgCCPP4WVtJJAQEI6STkZ7oRgCC9xgIQ5NFYrToLQJAvPhItJWUQEuLjefr0SeLGQvpGGbCxstLuSyQOlSggAEF6RwlAkF5jtT64RAZBnthQGCBo2HZqLcVLdeAH03fz9BdvHGXa2V3ky9OYeQ0apVJFyVMMTy7vo0Tt9u+vNy/3wq+TIwUghAYHUNu2JbUqlePKmaNUtXNleq9a3+T1ED8fKtgO5rr3YTLqflMX4qQ0KiAAIY2CfUNzAQjfINo3nKLG1fUCEL7B0d9wimIA4abPRc2800cJD7lJ18bjKJHFiLsPTnA6zIDOZaoQ+fYtphkzqQYQvPeuwe2eGZPs6gK6GGc2RvvsTsogaAGhhcMMvDY5ExrgS8FydjwJOMHtc56UrVQLHd5y9tRVKlerSFR4IEc8z1CoeGWKF8oJxHPxzDGCw/SoV782RIUwf/0xhvZtS0zES44f8cI8X3EqlS1GZEQYPn4R6Ec9JOSNEXVrvtsoSRzfp4AAhO/T72vOFoDwNSp9fxsBCN+v4df0oEadFQMI7xYpanDdP5tqVQdSwlSfiVv/oHb51iTER1LEuhg2mYxVAwj71s7C/UwkBbK9JUeuUtjZdyCj/t8BYRpH1s3hrvdJus05zoWtM7D7tRorPP5EVyeQlvUd2bpnLXVq22I/wI7zR/cwwWk5+5dO4HRIDqrmiSE2Z0XaVbbCsvZYXt3ZyaLJo8lWpCxnNzlRZ/AyyuWIpcPAObRuXJnb5w/RfsoWahVMn7LSXzMo/l/bCECQ3rMCEKTXWGtBjQ8ukUGQJzaUCwiZofv68dQs05aWua3ouHUx7t2nkiXFZopKnmLwvXaJcH0ryhTPxewhXYku0YmxPX5JlUHQFmt6HaNDZvOcnP/rCnktTOnxCUCoWq4SncfOwK5FXTIYGbFu1gjcrkSw3nkW2bJlIirwZjIg6MREExbxktNbZnPDqBYdq+Rh/PrbrJvannNHNnAougITmn4oAy1PmP3/WRGAIL1PBSBIr7EABHk0VqvOygUEU11+d5/K0NYTsTaCWVt+p1n9KRQzM0n2qJIB4cKpkxSpWAMzAzi48g92Pbdmyejun5xieOxzjmYTt3F16+yPAGHH4a1Ehr/k5rXrLF86n8GzV1DU0oyH925z8dQxzgUbMaVrtXeA4O1Mj45jGDhhOIFn3bhqVFUAgkTjXwCCRMKm6FYAgvQaq/XBJTII8sSGcgEhixFnr2/nRrQZ5bObs+rSRaa1sMNE78NSfyUDwiaXSRzzzUTHxmVZ7DwXu0mu1C+T+5OAEBsRRIH8VTj94BZOfRrSoPs4ggIusdb9PId2r2XU+Fm0bNmIcztdqdZnGo8ObiDGphQFssTjdugacwY0SgSEkD+n0LLHNMaPduDYJid0SncWgCDROBKAIJGwAhCkF/ZvFsQUgzySq1FnhQECXH90GWvr0lgY6iV67a6/D/devaVBsbLo66Z+D1DJgKC99vs+59l/7Dy2bdqT3yp74v0kLVKMjnrNHs9L/NZI++ZCPDtXrOLnZu0w0bzEbfNubNu3xOfUdZq2bMzrZ49Yv2sXxSr+Qs0yxdGJi+Pg/g34B8fSunM3MsaGsczjLH27NuXWpZOc8g6gZb2iPI7MQlFrE87eCqVBlaIE+t3hUXwOKuU3k2dE/B9bEYAgvXNFBkF6jUUGQR6N1aqz4gAhLe5SOiB86l7ETopp8bBy2wpAkN43AhCk11itDy4xxSBPbAhAkEfnZCsCEGQWXCJzAhAkElZMMUgvrJhikF1jtYKYogDh78Wakv6tFTepaFPKNteCfWlS9ts2F/pXIgSIjo7GyMjo3zIv7KaTAqJYTDoJ+YVulFIs5mvvVhRr+lqlvq9dVFQUGTOq63VtNRbFUko864SFhaW5WJP227i1tfX3RZrMZ4sMgsyCS2ROZBAkElZkEKQXVmQQZNdYZBC+T3IBCN+nnzhbZgUEIEgvuFiDIL3Gan1wiTUI8sSGYqYYkjIIMVERYGiCoS4EBT0nLj4hWYlsllYY6n8oNqDkDELs29c8eOz//toNKFi0ANo9npIyCLHRbzl+7CjRcQlkMjGjeo2qGOm/e3Mj5REX+wafBy/4qWheAp/5YZkjN7p/e5vj1ctAHoboUrqwpTxRI6wgAEH6IBCAIL3GAhDk0VitOisKEN6EPmP86LH0mriYItl02L59G2HhkaCJ49Txs0x3XY5VZoNkjyoZEO6f3EqDwfOpUrwAYMkCt7mYf1SLYRI7Fk9hu8tkvKiB27g2H0VreMg9hi70YtmETjQrXY5VXhfIliV1TYorXrtZdNqAVaNTF7OSL/T/e5YEIEjvcwEI0mus1geXyCDIExuKAYRAvweaI6du8uTSHur2nkzRHB8W8vnfucSJp4Z0qlsqlSpKBoQz25dxOKQYE+1qfHTNxsbGpCzWFPL0PgXrD+b5zT1cPrKe6Qu38EPNhkwa2I+Y8CRAsGP+eHt6jFrMvQsHmemyHOt85Zk4aRQPLuxngVcEWQIP8DZTUZbNGSdP9PyHrQhAkN75AhCk11gAgjwaq1VnxQDCuykGDW5zJ1Ch05gPgKCJY/XCmbTtPZxMRh+yB1rBlQwIe1bNYPmeh2Q1fU3k20zMXriAfJaZUu2k2LDrYOaPc+TGOU+OBGXBpduPtHFYyqFDG9nhNIIL8aWYYFfhfQbBjq71CzJ3mw/9OrTBZdM2bu51xbS0LZrAq9hP2sPuDTPYOn84lm3m0KFsVvki/z9oSQCC9E4XgCC9xmp9cIkMgjyxoXhACLxznuXHnzK276+k3kdR2YCQ0n0eC0dxKrok84d2TAUINZq2p2trW3Ln/YHWvzZm/5rpHA3Jx/yhHeDZJeo7LsHDdeRHgHBg9R9MWX2A3vbD6Wffiltn9idPMexaNZ1H+TowsE5eeSLoP2pFAIL0jheAIL3GAhDk0VitOiseEPZtWIFV9Xb8nPtDkaYklyo5gzBv8igaO06nqBlsnj+US1Rk9qDWn6zFkHQ/l3a74nQqmg2zHHlxdQ895/yJ2wL7jwAhs6Eu8W/fcH77LK5nqkM1qygBCPKN80RLAhCkF1wAgvQaq/XBJTII8sSG4gHB2dmZ/o6OfLy+X9kZBG/PXUxfvINC+XLg6/+C6QsWUiBb6imGFg4z8NrknOzp+KhghgxwJEv+Ejy+f5fOAyZQ9Yfs2P7WjbHTprNqROPEKYbFk0egkzU7EU9vUt9uPOYRdwUgyDNekq0IQJBecAEI0mssAEEejdWqs8IAIW3OUnIG4Z/uRGyUlDYfK7W1AATpPSMAQXqN1frgEhkEeWJDAII8OidbEYAgs+ASmROAIJGwKboVgCC9xgIQ5NFYrTorBhBCQkISt1rWfigk/T/p55S/T/mztr52jhw55PNwOlhS4x7+6XDb/3ddqLG2uxr3gldbLYa4uDj09bVboqnnUGN9GDWOPzXqLGoxyDyORQZBZsElMicyCBIJKzII0gv7NwtqfNiKKQZ5wkQxGQRRrEkehwsr6aOAAIT00fFzvYgpBuk1VmvqWwCCPLEhAEEenZOtiAyCzIJLZE4AgkTCigyC9MKKDILsGqsVxBQHCE99b2NqUxjTDHqQEMO1a9d4HaXhxzJlyaz9XYpDyW8xvHn5lJ0Hvd5frQmtOjZHW708JSAEPrrBFvdt+L+OJlvuInRt+yuWFpm/KXhXTutP/Z4zyJ3j287/JqP/4ZMEIEjvfJFBkF5jtT64RAZBnthQDCC8DPTXbF67miOepxg5f23iVsvHN8wjNHsVKuXLyMwtl3Ee0101gHDz8AZm/vmKCd0bAAbkKpAbw5TVHCNf8VOpyqzef4KKRXJw8/Ayph94yTqnEcTExCbep46uLoYGBmg0CYm/0zcwRO99JceE+Dhi4+IxMDREV0cHxyaF6LXwDIVtsiT/Tp4Q+m9aEYAgvd8FIEivsQAEeTRWq87KAYSgQM3T52Gc2ORC5S5jEwFhi/MY8tXvx49WBjhMXcvSOcMSSyYnHUrOIJzYvJCjwbkpZvqKKjVsKZhPW8vxQwbh+YOT/L7iDu7T7JPv59ad+1hmMWSR62piwwO4EWzA9lVOOPS2xyxnbu7dusnydRvRvLhDlz7jKFGmBH4xGXCfMx6HxvkJyV6PrAZveajJwc7lczD4UBlbvlHwH7EkAEF6RwtAkF5jtT64RAZBnthQDCB8qlhTmN8NXNz2Y2GagdwVGtCkYlHVZBC8dq5my+GH1P2lJKsXL8Zx5jp+KZsneYrB7+RqnO/YMMe+/ic9PWZAJ35uM4Y6+V8xyMmT3m1qcv34BrLWHcyTHdPJXPd37Ov/gPdFb4qXL8PQxgXoMMOLyiVNqVPkRzb/5Ut2k9TFreQJqf+GFQEI0vtZAIL0GgtAkEdjteqsWEAokg3GDhpF3z9mYpMplmG9BzJ0/mKsMn946Ck5gxD5+jVGxibo6cDBlX+w67k1S0Z3TwaEwPsnGOX+hNUTuryPUA13H/lRJF9eQu+cZPouX2YN747/qTUMdrtB9ZLvii9VadSWDdOG0d1pDSXNPpSv0k4x9F50jhL5TWhRpjDLTvpimVk7qSEOKRQQgCCFqqn7FIAgvcZqfXCJDII8saFcQLDQMHzQKBymTCeXSTzD+/Rl4Ozl5DY3SlZGyYAwe0Qf8jYbRZuqefljUDuMKjkwtF3VZECIfh1K2XJ1WL//CGUKZOPJya2M2HKTlRO7k79MfS5f88Yma0bCg3zoM+MgG5yGcP/cQSKtKnJm7XjCirZnZLsqOHTvx+hli5neQgCCPEPmnRUBCNKrLQBBeo0FIMijsVp1VhggwFGPNRSt14HcZob43/Xm+NlroKtHnhI/U7PsD6qZYnj57D7O85cTHR+PqU0RBjv2IqNe6rcYHt88y6pVW3mtA/H65gwd7EDEk0tMcPagRAErTLPnYVDvzqxeNA/f0HB0dDMyYugQ9KKCmOe8mKgEIwoWL0v39s1wGduVpgOcyWuVkQl9uzF47lrMMokpBqmGvwAEqZT90K8ABOk1VuuDS2QQ5IkNxQFCWm5byRmEf7oPsQ9CWjys3LYCEKT3jQAE6TUWgCCPxmrVWQCCfPGRaEkAgsyCS2ROAIJEwqboVgCC9Bqr9cElMgjyxIZiAEFbrClloSbt7X/p39o9xK2srORRKp2siGJN6STkv9yNGvevV1uxGO341xZr0tNLvUHav+z6z5pXY7EmNX4mqfGLltrGnzbQlRLPOqIWg5I/9sS1/V0BkUGQPiZEBkF6jUUGQR6N1aqzYjIIAhDkC1Rh6fsVEIDw/Rp+qQcBCF9SKH3+rsZsmJhiSB/ff6kXAQhfUiid/67G1Fg6S/B/0Z0ABOndKABBeo3V+s1WAII8saEoQIiLjuT4gV0Ur/UbucwMCA18iOfJC7xFQ8VqDSlgbZZKFSW/xRB46wy/z1qFVVZTwJyJTmPR/pQECK9eBlK2ej1qVipHeFAE7YZN4reaJT/yetzbN5St25nzp7cnFntKy+G5ZyNvrH6mSfkiaTlNtP0KBQQgfIVI39lEAMJ3CviVp4sMwlcK9Z3N1KizYgDh2YNbmiEjJpE1gy5dxs6jaHYdxv0+GrtJ08ihE86gqWtYNHMo+h82D0x82FpbW3+n26Q53XvfGjY/tGLGgIYfQY2xsTFaQKjVbSzee1YQ8OAmdR0XcWvvYkJDgslqnh2IJ+TFK0xNjJIBwSghjhcvXqJJeMOCqbMY77SQ+OhIwsNfo2+UkWwW5kS/fU10vC7R0TFkzqBLvF5GTDIYEBbygqi3MWQyzUoWk4y8Dn+FnpE+oS9fkcnEFDNTE2mE+D/tVQCC9I4VgCC9xiKDII/GatVZMYAQGvJSEx0HWxdOokKnMRTKGs/gEbOYNmciJkTxu11fhi1YQU7TD+WalAwIB93m4rr7AQGPLvBLawemDn+3pXLKDEKtbsPwcnfhoNsCrhtXZkq3evT4tRorPU6ho/OMlvUd2bp7TTIgnFk3k+DsleDxSfb5Z8NtSl+6dOlN3352bPxjIPbzPAi4tJVhS48zbvRYuL+Lp7nbM7iWLvajt2DXuhJ2nYbjeccbtyn9uRxqTtfWFVnkvJmdO93lGyn/B5YEIEjvRAEI0mus1geXmGKQJzYUAwgfF2sy5PT+LVzwDcPK3IjThw8zeuE6rFUCCLcuneRWIDSoU5o/HLpg2XA4g1pXSQUI5eo0p2PLRrx5E0aonjWLpg6nX9t/BoSZ9k3pNc0d47BrNB7kwal9Cwh+cJcrd+9xae9iKnedRZzvUQ4+/5F5A+uwdfHYd4BgW4K7f13itp8fE+1/ZdO11+xfMIEmk+dQWB/se/dkuetKeSLu/8SKAATpHSkAQXqNBSDIo7FadVYwIHyouZAQHYHDoFnMcpmCcYoSxkrOIDx9/BBzm/xk0oejq6ex83kuFo3s8rcMwrspBhIiqWaTl7mnbrN0WDNWbTv9yQzC7cNrWXzoFiavnlKuw0jaVzalRcvhTHWZTeCx2eiV6f1JQKge7sGy87pMmtSLHj9ZseDiO0BoPm0O+YE+/Xux1GWZfCPl/8CSAATpnSgAQXqN1frgEhkEeWJD0YDwzM8PSysrTu7xIL5QFer9lO+j+XylrkFYPXMEh/2ysWhMJzq2aYHj4h00LmWdGhDaObJj+SwCbl2kcdfR3Hl0hwkdazN88U6OuE1lxVE/zu9bR4WytXE76cn+se0INi2RuNageetuFNK7Ro8511g8uQPNapVlpOvBTwKC0fGRZKg6lAYljCj0Y2Wu+gtA+N7hJQDhexX88vkCEL6sUXq0UOPiOQEI6eH5L/ehMECAO39dIEfRnzHLqEfgQx+u3Q0gR568lCpWGB2dFCsU38/nKxUQEuKi8DpymNuPAihVsSZVyxZPtQYh5m0kG9zXExkdh6FRZmo3bkrBnFl5ctebvcfOUqZ2VcLuBdLQtj5/nfLEP0aHcxtmU/633zHWi2XJgrm4bduP5wEPnkcYUONnGwyzFUXz6il+URZULWWD743zvDYpTMnsGjZs3YFx9sJkCvehUote+F27QL6KVRLfrPA66UnNGrW+HC2iRbICAhCkDwYBCNJrLDII8misVp0VBwhpcZeSpxj+6T6+fR+EGBx/bUCVLkOwyKCH+/rNLFu9EkN99WxDmxbfKr2tAATpPSQAQXqN1frgEhkEeWJDAII8Oidb+XZA0NamSCAuLh50dNDT1UNXN3VGReZb+U+bE4AgvfsFIEivsQAEeTRWq86KAYTQ0FCNVsSkAk1//znJjSn/rn3Y5syZUz4Pp4OlqKgoMmZM65ZH6WBYdJGuCrx+/RoTE3XtHaHGYjHx8fGqKtaklA/UtAS7Gj+T1Dj+1FgUSxRrSstISoe235NBSAfzoot0UkBkENJJyM90IzII0mus1m+2YopBnthQCvCKao7y+FtYSScFBCCkk5ACEKQX8gsWxFsM8rhAjToLQJAnNpKtJGUQYqKj2O6xlaiYeKysS9Cgfnl0//aWxrde2svHPkSZ5iZXYh2Ifzhi37B+625+a92ODAafW8sQy551m6jdtj0mRh92sfynbl/53+bMnWAa1an+rZevivMEIEjvJpFBkF5jkUGQR2O16qwYQLh7w1uz+/BJdDVRaExz0rN1cwJ9vdl59Cy6CXpkKVyRtvVKp/KmGt5iuLTDmVbTD+J3YX/itafcarlyi27MGNaby16HCLWujfOQtukSrd475vOsUFMa/1jon/sL9yNL/nLcfxxAdpPPPfgjqJQpJ5ueBJPP4strJ5wGt2f91VguHPfgyziRLrf7r3QiAEF62QUgSK+xWh9cYopBnthQDCAEBQVpDA0NE+961bIl9LC3Z/qIYXQcPYvcxjE49hrGpKUumBt9+LardEAI9btFufYjyGNpwYkdqz8ChKRiTc8e3KDh0JVc3T6Pda4zsTbPS96KtcgYHYS7+w5MrQvRuUsbEiJD8Th2DeNYXx48jWHQ4P5kNICrF06w48ApSlaqjW29atzc7YxPlpKEXb+AgVlJ7Drbcmb3EmZvvcNu9wXvIisFIJzbu41cPxdi36ZdlK/VkgbVyxAV/oKlrqvInr8I87t0wuNJMJaGkezYtpInAbE07WhHybw5UkWp9i2Luk260rlRYcxqDaDlj+ZcPX2AO6/N8H/uj4W+Dl06/Jp4juvazdh3aMGJfVs4d9WXqr+0pFaVnzi0cQFYluLyuRMUrWpLy5razIo8gyEtVgQgpEWtb2srAOHbdEvrWWpMfQtASKuXv629YgDhXS0GIC6CBYvWMKBvDwZNW4nzJEd00OAypif1+8+nsPWHtLmyASGOYV1/5ff5G7DvM4C9mz8GhAoNWtClpS2XPY/iMN+N2iVy0aJafsa7elKisA37t2+kWr3GXN4ym6vGNehaqxCNO81m+4bJ+Hi588iqFS3Nb9Nzxi7clkzj+G43itXsRPzVtWz2zcmgznVYMKIPQ+avT9xcKfRNLNZWlh8BwvyhduRt0I8WVfNgP2A4u7asonvFvPw29wDFzSOpVK4e558E4z7dgcrdJvJjdj0GDBqO20Y33iHduyMh8gH9ZxxgSNNCtJl1gkseM9i1fBJrvQ1YMrk/Ixz6M3vtenJEXWXsyus4/laBzV4P6dj4Z8aMHskS1xX8YV8LfnTErnVp6pcoj8dtfwpbZvi26JbwLAEIEor7vmsBCNJrrLUgAEHo/E8KKAoQQoLusWOHJ9Ubt6BA9owM+mM5zlMGo/seEBo4LKCQVebke1EyIGxaMJUAq2r83rYWTdt2/yQgVGnVhxUzRhAe8pTR01ex/+AehrStjNveC4m7Rp7ZtYmzAa+IefgnEXma4WhbmhFLT7N2eneund2NR0A+ygVv45JOeSb3bpqsS8ophpXT+2PbezqW5n9bj5AigzB/6EB6L3UhD9C2hx2bF8/ELGtxbr8MxCrT6+QphokDu7Fm/eZEOyN6tcF25DIOrZxJVHQsnQaO5+7qXhx7XZTqRbPz+7AZXPW9xzmPWVxKqMMfvauzw2UCt7PWI6/PPCxbzqBKATNWuSzCyCYfW/fs4fCOHYmAULr7SppUyctvJbMx7uATfsr1wefyDOUvWxGA8GWNvreFAITvVfDrzheA8HU6fW8rNeqsGEB4cPOSZsGawwwf0gtjI3008dGMHTYJhymTsDSMYYTjOEbPm0PWDB+qNSkZENo3r4eJpbYUEhw75kkfx6EMH9T7k8WaNPFvqG6TD6fTd3B2bJAICJowHxq2ncbhwxu47DGDbYEFPgkIdaOPsPG+CUvH9+ap7030zfLw7OSK5DUISYBgbmLAqzexWCQtXPwcILg6USSbJQfuh5E/ayTlTPOw/UkwM4b0wGnFxsQCVA5d2tDXeRO59d4k7l1haBhHaUsr7Ke7YGFswNXDG7EdvohXFzckA8LbZ1ex7TGVoBtXOXb3NkdXjON1kX7YNbChT5/uLF26WgDC934KfeZ8tb3vLgBBwmBI0bUaH1xiikGe2FAMIOxbv0Rz42Usmd5POFe1bYuR30mWbb+IdTZj8ldpQv2yBVOpomRAiImJRvNu0oSWHe3ZuXElhgYGqQChfLW61KpelaAHPvhlrsK57bPp0bT8uwxCdDA1KtanYZvWeJ87QuEG/T4JCBNb5KFtrXoUr92Srds82H/yLKEnl34ECCc3zWLhvrt47dvy7qI+BwirVuC1dDDjD73gR/M49m7cg+eTYHyPrmLYoqPUL2WOX5wN7q6TSVoecO+KFxXtXQm6tAF9HQi678XYDY9plPNhMiCAhgld63DFvBt75nXl8KZFTF59jUp54zlwJwAfrwMCECQc9wIQJBT3fdcxMTEkraWS3lr6WBCAkD46fqkXNeqsGEDw93uoeREanqxxtpy5MTbUJTQ4kMgEHaxz5Eh+GCU1UjIgpAyWh4+fkD9v7sRfJb3FEB8fx53bt4mLT0Df0JhiRQokbp3s9/AeefIXTmwb9iKQp4HhFMhjQXiMHtlMM/Ls5Rty5zTnbWQ4YbGGWGXJwNvIV9y9/5g8+QtiltmYqFcviDXKjGkGI0KC/DG1sCLhbQTPX8WS2zr7u0uLj+XG7XsU++EHXgQEYJHLBgPg8ZOn5M2dK7HJ/Tu3yZAlB7Fh/tgUKo6hvg7P/O8R+iqOAkWLkUHvQzYnMiKU5xEa8lubv+s+Po5H/s/JZqJPlMYEKwvjxN/PHdmVugMXUzqnMZqEOO7duYmxRV50E96Q08qaoKe+ZMiaG1NjAx7fvYll/h/IaJCixveXRqFMfxdTDNILLTII0mustaDGB5fIIMgTG4oBhORFimm4b7UAQspb+i/vpLjVbRF7D99h9Vpn1deREICQhoH6jU0FIHyjcGk8TQBCGgX7xuZq1FkAwjc6+1tP+y8DwrdqpsTzBCBI7xUBCNJrnDKrKY+19LEiMgjpo+OXelEMICQVa9JecMqCTEk38Pffaf+tJTK1FWtSI0V+KYj+i38XxWKk97p2jCckJIhiTRJLrba1KVo5IiIiyJxZeW83fc5VatRZFGuSePD9vXuRQZBZcInMiQyCRMKm6FZkEKTXWGtBjV9aRAZBnthQTAZBrEGQx+HCSvooIAAhfXT8XC8CEKTXWACCPBqrVWdFAYLfrWvcDnxJhao1MDPUS/bcc797ZM9d+KMtd5W8SDEi6CHu2w+9v4fMdOnTkUwp3mJ4HfaCnuNd2Ow84V0b/3NM3/+UYV0asmnvSTr82pjPrd0PC3hAg+ErOL9+GqdOH6Va1XryRbqwhAAE6YNAAIL0Gqv1wSUyCPLEhmIAwcf7guaybyB5zAw4euYKq54XFwAABvdJREFUQx378+b5Q7buPcLd275MnDEDQ73Um/IrGRBuHt3AiE036Nm0AmBMgxa/oC11lLJYU1IthkRXPzrCgPUPmOPwG4vW7MTRsSeGn6lB8PLRTXK1m0bUuVV4rPfgt04d5IkYYSVRAQEI0geCAATpNRaAII/GatVZMYCQcophzYqldLPrQ8Tzp8RnMmPV7CkMmKAuQPDcvIgDT21oXTMX5pa5KZDHKjESUwFCl1Gc2770XYQ+PsqQLU+Z2asOpuUdiXp8gD6tG5CvQC627z2H3Xgn+reux3qXKTitOky58uVZ99cLoi+407NdfVZuOixfpAtLAhBkiAEBCDKILNYgyCOySnVWHCA8v3eezZ4PcLRv/95x0TiNH686QNjh+gdbL8YyZnAzRvbqRf9F+2hYJkcqQChevDixmvdFkRNiaDNoZmpAaNuKhWs2YaQbRA/7abjMHc3P7UZy/eBagu5doXD3+bw9LwBBthGewpDIIEivugAE6TVW6zdbMcUgT2woBxBCX2hOHNhKSKw59RvUJXOG9w9O1AkIKd13cOUU9gbnZdHILl+cYkiZQXDs0pal67TFkcLpaT+CGROG0XmiOwdXjOPDFMN6kUGQZ6yksiIAQXrRBSBIr7EABHk0VqvOigGEi577NecCjWhX76fELZV19fXfL9JTJyBMdOhG0d9G8WuFvMweZYdRRXuGtq/5XYDgPHM8P9v25fTBjQT7nOQnx3ViikG+8S0AQWatBSDII7h4zVHo/E8KKAYQ9rrN1yxYty/5OgfOXEO1Atr9+9UJCDFvgujTsS3r9v6J4xQX5o7qnQg+X1qk+LkMwsrlSzi4Zhpt+s6hRWd7tl7zJ+qcyCDIM7xTWxEZBOlVF4AgvcZq/WYrphjkiQ3FAILYB0Eehwsr6aOAAIT00fFzvQhAkF5jAQjyaKxWnQUgyBcfiZbETooyCy6ROQEIEgmbolsBCNJrrNYHl8ggyBMbigGEly9farQfCEn/aW//Sz9r97a2tLSUR6l0sqLGevHpdOv/V928ffuWDBkyqOqelDLY0yKathaDrq7yyn3/0z3Ex8erqnaE9j7U+Jkkxl9aRtG3t1VKPOuIKYZvd6I4U34FRAZBes1FBkF6jUUGQR6N1aqzUr5UCECQL06FpXRQQABCOoj4hS4EIEivsVofXGKKQZ7YEIAgj87JVpLWIGgSEngZ8pKEBA2GhpkwMzNJ5yvREB7+GlNTdZVETWcRJOtOAIJk0iZ3LABBeo0FIMijsVp1VgwgBPk/1qxwWYRPQDBt7PpRs2QRwp/dx2nRCt4YGDNy9EgsDA1SeVPJtRgCrh2hess+7683F+d8vcieYpFieEgQtW1bUqNCWa54nab/QnfaVP0hHaM1nD79J7HUZRaOrerSdcYGfi5inY79/7e7EoAgvf8FIEivsVofXCKDIE9sKAYQ7t320bzRyYiNqT4urqsYNGgQV854ka9UBWKCfZmz/SpzhnRUDSD8tW8Nq2+ZMMlOW2VRj8xmmdHWp/zUPghP7l6h6Qg3ru6YR3zsW06d8SKLZTFK/5CX+LhYbvoGkEknlCeB0VSrVgF9XR1CAp9y8aoPfrevkKucLQ2rlODK6ZO81TOmauVywCs6dxuJ25ol7HNzpkzTnlhn1e4rIY70UEAAQnqo+Pk+BCBIr7EABHk0VqvOigGE5EWKmjhWrVhJD/veyZ579fwxc7ddYnK/X1UDCAfWzWarN+QyCaVw8eq0adMII73UgFC93UC2LZ7Krcsn8AzKhpNjc5xG9MGgYDXueW4kv+1wejUpTfO2Paj4cxnCHp6nTn9naud8xW+9JjFmYBeW7rnIJteZ/LVlFltv62EcepMXBVuzYEDlZEDoVz8HnRfdoHIRbQ5DHOmhgACE9FBRAIL0Kn7ZgthJ8csapUcLNeqsLEDQaNi+cj46BWrRsk6ZRJ/ERYfjPGM2nYeMJruJtmDyh0PJUwx3rpzlZUJ2ypXKzeyhPdAvZ8eILrVTZRDK1WlOx5aN8Pe7w9MsVTgwsQHFyjajS88uEB3M6ethbFkzl74T17HOaRCP757G9Uw0tQyuciykKDMdGvNbw/a4HNxItrg44uKj8PbaQweXizzYNVEAQnqM6n/oQwCChOK+71pkEKTXWK3fbMUUgzyxoRhACPJ/qFm6fA016zenVPECidsSv/K/ybajf9GgYSNscmT9SBElA8JfF85ToGxFTPXh4Mo/2PXcmiWju39yikET/4bqNvlw2r2dPv3Hs3b1wsT7z5TZjBxZM9F/8nrWzHHk8d0zLD39lvFNbajboD1ly5bBokRlJjm0pUOtejQZNBFLHX96r/XhwW4BCFIOIQEIUqr7rm8BCNJrLABBHo3VqrNSAOF/6P2Gvj0ry2AAAAAASUVORK5CYII=;" vertex="1" parent="1">
                    <mxGeometry x="1190" y="3700" width="270" height="222.23" as="geometry"/>
                </mxCell>
            </root>
        </mxGraphModel>
    </diagram>
</mxfile>